<svg width="124" height="84" viewBox="0 0 124 84" fill="none" xmlns="http://www.w3.org/2000/svg">
<path d="M63 32.625C72.0091 32.625 79.3125 25.3216 79.3125 16.3125C79.3125 7.30336 72.0091 0 63 0C53.9909 0 46.6875 7.30336 46.6875 16.3125C46.6875 25.3216 53.9909 32.625 63 32.625Z" fill="#218225"/>
<path d="M96 32.6248C101.695 32.6248 106.312 28.0077 106.312 22.3123C106.312 16.6169 101.695 11.9998 96 11.9998C90.3046 11.9998 85.6875 16.6169 85.6875 22.3123C85.6875 28.0077 90.3046 32.6248 96 32.6248Z" fill="#61C565"/>
<path d="M30 32.6248C35.6954 32.6248 40.3125 28.0077 40.3125 22.3123C40.3125 16.6169 35.6954 11.9998 30 11.9998C24.3046 11.9998 19.6875 16.6169 19.6875 22.3123C19.6875 28.0077 24.3046 32.6248 30 32.6248Z" fill="#61C565"/>
<path d="M40.1606 41.8856C36.1012 38.5597 32.4249 39 27.7313 39C20.7113 39 15 44.6775 15 51.6544V72.1312C15 75.1612 17.4731 77.625 20.5144 77.625C33.6442 77.625 32.0625 77.8626 32.0625 77.0587C32.0625 62.5489 30.3439 51.9081 40.1606 41.8856Z" fill="#61C565"/>
<path d="M67.4644 39.0748C59.2661 38.391 52.1402 39.0827 45.9938 44.1561C35.7081 52.3948 37.6875 63.4879 37.6875 77.0586C37.6875 80.649 40.6087 83.6248 44.2537 83.6248C83.8316 83.6248 85.4068 84.9015 87.7537 79.7042C88.5234 77.9466 88.3125 78.5051 88.3125 61.6911C88.3125 48.3362 76.7488 39.0748 67.4644 39.0748Z" fill="#218225"/>
<path d="M98.2688 38.9998C93.5494 38.9998 89.8933 38.5641 85.8394 41.8854C95.5828 51.8334 93.9375 61.7482 93.9375 77.0586C93.9375 77.8674 92.6244 77.6248 105.289 77.6248C108.439 77.6248 111 75.0729 111 71.9361V51.6542C111 44.6773 105.289 38.9998 98.2688 38.9998Z" fill="#61C565"/>
<line x1="1.5" y1="77.9019" x2="121.878" y2="8.40192" stroke="#FEC844" stroke-width="6"/>
</svg>
