<svg width="442" height="427" viewBox="0 0 442 427" fill="none" xmlns="http://www.w3.org/2000/svg">
<g style="mix-blend-mode:multiply">
<path d="M328.991 404.207C357.837 404.207 381.221 400.09 381.221 395.012C381.221 389.933 357.837 385.816 328.991 385.816C300.144 385.816 276.76 389.933 276.76 395.012C276.76 400.09 300.144 404.207 328.991 404.207Z" fill="#DADADA"/>
</g>
<path d="M280.68 335.549L297.01 395.011C317.232 398.129 337.816 398.156 358.048 395.082L358.541 395.011L367.094 335.549H280.68Z" fill="#FFA412"/>
<g style="mix-blend-mode:multiply" opacity="0.41">
<path d="M310.732 336.509L361.836 372.137L367.103 335.549L310.732 336.509Z" fill="#FFA412"/>
</g>
<path d="M271.59 307.312H374.589L371.374 335.55L276.76 337.047L271.59 307.312Z" fill="#FFAE2D"/>
<path d="M320.114 307.311C320.114 307.311 324.852 266.09 278.171 271.692L276.488 270.107C276.488 270.107 301.071 258.075 319.85 282.244L321.127 226.983V200.26H324.253L329.662 307.311H320.105H320.114Z" fill="#2CB063"/>
<path d="M321.303 284.534C342.644 259.018 369.693 272.256 369.693 272.256L367.764 274.079C342.283 267.887 329.705 280.491 324.139 291.122C323.399 288.815 322.527 286.569 321.303 284.543V284.534Z" fill="#2CB063"/>
<path d="M321.303 236.672C338.196 216.467 359.608 226.948 359.608 226.948L358.084 228.393C337.914 223.487 327.953 233.466 323.549 241.886C322.967 240.054 322.272 238.284 321.303 236.681V236.672Z" fill="#2CB063"/>
<path d="M324.683 226.05C313.444 204.726 292.27 209.984 292.27 209.984L293.362 211.57C312.36 211.059 319.354 221.901 321.679 230.278C322.551 228.754 323.511 227.301 324.691 226.05H324.683Z" fill="#2CB063"/>
<path d="M283.156 267.967C283.156 267.967 260.872 254.992 248.127 285.6C248.127 285.6 241.459 298.741 227.525 298.548C227.525 298.548 243.221 309.734 261.859 303.057C280.496 296.39 293.47 276.616 283.156 267.967Z" fill="#2CB063"/>
<path opacity="0.37" d="M276.304 267.165C276.304 267.165 258.635 261.977 250.998 280.306C242.49 300.723 227.525 298.538 227.525 298.538C227.525 298.538 235.109 302.176 253.156 293.298C271.204 284.419 282.971 270.3 276.304 267.156V267.165Z" fill="#1DD667"/>
<path d="M346.444 224.28C346.444 224.28 363.84 211.147 377.633 235.554C377.633 235.554 384.556 245.912 396.235 244.344C396.235 244.344 384.186 255.319 367.865 251.593C351.544 247.876 338.658 232.585 346.444 224.28Z" fill="#2CB063"/>
<path opacity="0.37" d="M352.114 222.923C352.114 222.923 366.418 216.784 374.688 231.405C383.892 247.682 396.232 244.343 396.232 244.343C396.232 244.343 390.234 248.166 374.186 242.529C358.138 236.892 346.829 226.226 352.114 222.914V222.923Z" fill="#1DD667"/>
<path d="M278.19 242.864C289.913 242.864 299.417 233.36 299.417 221.637C299.417 209.914 289.913 200.41 278.19 200.41C266.467 200.41 256.963 209.914 256.963 221.637C256.963 233.36 266.467 242.864 278.19 242.864Z" fill="#FFE876"/>
<path d="M292.567 230.561C297.508 222.613 295.071 212.163 287.123 207.222C279.174 202.28 268.725 204.718 263.784 212.666C258.842 220.614 261.279 231.064 269.228 236.005C277.176 240.947 287.625 238.509 292.567 230.561Z" fill="#E6B54A"/>
<path d="M263.557 225.645C261.17 216.907 266.076 207.888 274.585 205.087C274.294 205.149 274.012 205.219 273.721 205.299C264.693 207.765 259.373 217.084 261.839 226.112C264.306 235.14 273.624 240.46 282.653 237.994C282.943 237.914 283.225 237.826 283.507 237.738C274.752 239.649 265.944 234.391 263.557 225.645Z" fill="#D19828"/>
<path d="M402.743 285.965C405.924 274.681 399.354 262.956 388.071 259.775C376.787 256.595 365.062 263.164 361.881 274.448C358.701 285.732 365.27 297.457 376.554 300.638C387.838 303.818 399.563 297.249 402.743 285.965Z" fill="#FFE876"/>
<path d="M384.942 296.994C394.187 295.541 400.505 286.869 399.052 277.623C397.599 268.377 388.926 262.059 379.68 263.512C370.435 264.965 364.117 273.638 365.57 282.884C367.023 292.13 375.696 298.447 384.942 296.994Z" fill="#E6B54A"/>
<path d="M369.024 272.943C373.375 264.99 383.161 261.916 391.237 265.8C390.982 265.641 390.727 265.492 390.471 265.351C382.262 260.859 371.957 263.88 367.474 272.089C362.982 280.298 366.003 290.603 374.212 295.086C374.476 295.227 374.74 295.368 375.005 295.491C367.377 290.797 364.69 280.888 369.033 272.934L369.024 272.943Z" fill="#D19828"/>
<path d="M329.564 199.654C340.728 196.078 346.88 184.129 343.304 172.964C339.728 161.799 327.778 155.647 316.614 159.223C305.449 162.799 299.297 174.749 302.873 185.914C306.449 197.078 318.399 203.23 329.564 199.654Z" fill="#FFE876"/>
<path d="M336.939 189.145C342.325 181.491 340.486 170.92 332.831 165.534C325.177 160.148 314.606 161.988 309.22 169.642C303.835 177.297 305.674 187.868 313.328 193.253C320.983 198.639 331.554 196.8 336.939 189.145Z" fill="#E6B54A"/>
<path d="M307.986 180.777C307.175 171.749 313.596 163.742 322.466 162.483C322.175 162.492 321.876 162.509 321.576 162.536C312.258 163.372 305.379 171.608 306.215 180.935C307.052 190.254 315.288 197.133 324.615 196.296C324.915 196.27 325.205 196.235 325.496 196.191C316.547 196.534 308.796 189.796 307.986 180.768V180.777Z" fill="#D19828"/>
<path d="M259.924 133.365C259.924 133.365 260.065 133.409 260.338 133.506" stroke="#76AADB" stroke-width="2.64237" stroke-miterlimit="10" stroke-linecap="round"/>
<path d="M271.25 139.971C286.373 151.914 309.969 183.473 298.202 260.921" stroke="#76AADB" stroke-width="2.64237" stroke-miterlimit="10" stroke-linecap="round"/>
<path d="M297.184 267.201C297.157 267.342 297.131 267.491 297.113 267.632" stroke="#76AADB" stroke-width="2.64237" stroke-miterlimit="10" stroke-linecap="round"/>
<path d="M256.332 120.461C256.332 120.461 256.482 120.496 256.755 120.566" stroke="#76AADB" stroke-width="2.64237" stroke-miterlimit="10" stroke-linecap="round"/>
<path d="M268.768 125.076C291.774 135.831 337.971 168.922 330.326 259.643" stroke="#76AADB" stroke-width="2.64237" stroke-miterlimit="10" stroke-linecap="round"/>
<path d="M329.71 266.047C329.693 266.197 329.675 266.338 329.666 266.488" stroke="#76AADB" stroke-width="2.64237" stroke-miterlimit="10" stroke-linecap="round"/>
<path d="M251.637 103.453C251.637 103.453 251.786 103.462 252.068 103.497" stroke="#76AADB" stroke-width="2.64237" stroke-miterlimit="10" stroke-linecap="round"/>
<path d="M265.264 105.963C294.286 113.194 360.107 140.358 366.731 238.451" stroke="#76AADB" stroke-width="2.64237" stroke-miterlimit="10" stroke-linecap="round"/>
<path d="M367.092 245.172C367.092 245.322 367.101 245.464 367.109 245.614" stroke="#76AADB" stroke-width="2.64237" stroke-miterlimit="10" stroke-linecap="round"/>
<mask id="mask0_1066_5918" style="mask-type:luminance" maskUnits="userSpaceOnUse" x="0" y="0" width="442" height="427">
<path d="M441.302 0.872467H0.935547V426.128H441.302V0.872467Z" fill="white"/>
</mask>
<g mask="url(#mask0_1066_5918)">
<path d="M164.112 45.196L73.6816 113.457L129.744 179.869L206.813 93.7627C206.813 93.7627 217.083 81.8544 204.558 66.7665C204.558 66.7665 177.025 69.8052 164.112 45.196Z" fill="#AEADB3"/>
<path d="M245.735 129.32L130.801 177.006L164.429 140.022L241.974 119.323L245.735 129.32Z" fill="#AEADB3"/>
<path d="M125.505 181.604L68.2622 115.704C67.0026 114.25 67.1524 112.022 68.6057 110.762C70.059 109.503 72.2874 109.653 73.5469 111.106L130.789 177.007C132.049 178.46 131.899 180.688 130.446 181.948C128.993 183.207 126.764 183.058 125.505 181.604Z" fill="#D8D9DD"/>
<path d="M88.7319 115.007L84.416 108.622C100.719 97.6031 103.415 79.0625 106.022 61.1384C108.858 41.6289 111.791 21.4589 135.458 19.7061C143.068 19.1424 149.471 21.1594 154.492 25.7131C164.568 34.838 165.079 50.8948 165.096 51.573L157.389 51.7668C157.389 51.6347 156.923 38.2819 149.295 31.403C145.851 28.2938 141.518 26.9814 136.03 27.3866C119.348 28.6197 116.767 40.8098 113.649 62.2394C110.937 80.9121 107.854 102.077 88.7319 114.999V115.007Z" fill="#AEADB3"/>
<path d="M243.448 98.7306C243.448 98.7306 232.394 115.104 239.273 128.642C246.152 142.18 260.561 142.673 260.561 142.673L243.448 98.7306Z" fill="#AEADB3"/>
<path d="M259.335 143.087C257.415 143.739 255.31 142.708 254.658 140.788L241.631 102.518C240.979 100.598 242.01 98.4928 243.93 97.841C245.85 97.1892 247.955 98.2197 248.607 100.14L261.634 138.41C262.286 140.33 261.255 142.435 259.335 143.087Z" fill="#D8D9DD"/>
<path d="M125.559 74.2977L175.579 128.66L178.89 124.961L130.086 70.8803L125.559 74.2977Z" fill="#999999"/>
<path d="M165.714 139.678L151.498 168.419L131.055 178.407L165.714 139.678Z" fill="#999999"/>
<path d="M89.0322 44.4856L13.3145 19.8542L5.2929 44.5127L81.0106 69.1441L89.0322 44.4856Z" fill="#F5DBAB"/>
<path d="M96.4415 78.0149L84.4363 74.113C72.167 70.123 65.3937 56.8231 69.3837 44.5537C73.3736 32.2843 86.6736 25.511 98.943 29.501L110.948 33.4029C117.528 35.5432 121.156 42.6776 119.016 49.2571L112.287 69.938C110.147 76.5175 103.012 80.1464 96.4327 78.0061L96.4415 78.0149Z" fill="#F5DBAB"/>
<path d="M124.312 50.1205L106.371 44.2809C103.614 43.3825 102.09 40.3878 102.989 37.6309C103.887 34.8741 106.882 33.3503 109.639 34.2487L127.58 40.0883C130.337 40.9867 131.861 43.9814 130.962 46.7383C130.064 49.4952 127.069 51.0189 124.312 50.1205Z" fill="#FAEFD8"/>
<path d="M121.075 60.0732L100.552 53.3969C97.7955 52.4985 96.2718 49.5038 97.1702 46.7469C98.0686 43.99 101.063 42.4663 103.82 43.3647L124.343 50.0411C127.099 50.9395 128.623 53.9341 127.725 56.691C126.826 59.4479 123.832 60.9717 121.075 60.0732Z" fill="#FAEFD8"/>
<path d="M117.835 70.0352L97.3122 63.3588C94.5553 62.4604 93.0315 59.4657 93.93 56.7088C94.8284 53.9519 97.823 52.4282 100.58 53.3266L121.102 60.003C123.859 60.9014 125.383 63.8961 124.485 66.6529C123.586 69.4098 120.591 70.9336 117.835 70.0352Z" fill="#FAEFD8"/>
<path d="M114.593 79.9879L99.5055 75.0819C96.7487 74.1835 95.2249 71.1888 96.1233 68.432C97.0217 65.6751 100.016 64.1513 102.773 65.0497L117.861 69.9557C120.618 70.8541 122.142 73.8488 121.243 76.6057C120.345 79.3626 117.35 80.8863 114.593 79.9879Z" fill="#FAEFD8"/>
<path opacity="0.54" d="M126.166 46.6057L112.69 42.2193C110.954 41.6556 109.994 39.7707 110.558 38.0356C111.122 36.3004 113.007 35.3404 114.742 35.9041L128.218 40.2904C129.953 40.8541 130.913 42.739 130.349 44.4742C129.786 46.2093 127.901 47.1694 126.166 46.6057Z" fill="white"/>
<path opacity="0.54" d="M122.898 56.6381L109.422 52.2518C107.687 51.6881 106.727 49.8032 107.29 48.0681C107.854 46.3329 109.739 45.3728 111.474 45.9366L124.95 50.3229C126.685 50.8866 127.645 52.7715 127.082 54.5066C126.518 56.2418 124.633 57.2018 122.898 56.6381Z" fill="white"/>
<path opacity="0.54" d="M119.658 66.6001L106.182 62.2137C104.447 61.65 103.486 59.7651 104.05 58.03C104.614 56.2948 106.499 55.3348 108.234 55.8985L121.71 60.2848C123.445 60.8485 124.405 62.7334 123.842 64.4685C123.278 66.2037 121.393 67.1638 119.658 66.6001Z" fill="white"/>
<path opacity="0.54" d="M116.427 76.5531L109.055 74.1573C107.32 73.5936 106.36 71.7087 106.923 69.9736C107.487 68.2384 109.372 67.2784 111.107 67.8421L118.479 70.2378C120.214 70.8015 121.174 72.6864 120.611 74.4216C120.047 76.1567 118.162 77.1168 116.427 76.5531Z" fill="white"/>
<path d="M101.328 49.1783L91.8597 38.3182C89.1556 35.209 89.4727 30.4528 92.5819 27.7487C95.6911 25.0447 100.447 25.3618 103.151 28.471L112.62 39.3311C115.324 42.4403 115.007 47.1966 111.898 49.9006C108.788 52.6046 104.032 52.2875 101.328 49.1783Z" fill="#F6E0B0"/>
<path opacity="0.54" d="M104.455 46.2622L95.0305 35.5606C93.0664 33.3323 93.2866 29.906 95.515 27.9418C97.7434 25.9777 101.17 26.1979 103.134 28.4263L112.558 39.1278C114.522 41.3562 114.302 44.7825 112.074 46.7467C109.845 48.7108 106.419 48.4906 104.455 46.2622Z" fill="#FAEFD8"/>
<path d="M-12.0312 1.65152L59.1384 24.8034C59.5823 24.9478 59.8253 25.4251 59.6809 25.8691L47.1145 64.4985C46.9701 64.9424 46.4928 65.1854 46.0489 65.041L-25.1208 41.8891L-12.0312 1.65152Z" fill="black"/>
<path d="M64.0208 32.6228L58.1074 30.6991L47.8571 62.2091L53.7704 64.1327L64.0208 32.6228Z" fill="white"/>
<path d="M51.2334 51.8664L13.207 39.4962L10.3761 48.1988L48.4024 60.569L51.2334 51.8664Z" fill="#262626"/>
<path d="M41.3963 53.2821C41.1057 54.1893 40.128 54.6825 39.2296 54.3831C38.3224 54.0924 37.8291 53.1147 38.1286 52.2163C38.4193 51.3091 39.3969 50.8159 40.2953 51.1153C41.2026 51.406 41.6958 52.3837 41.3963 53.2821Z" fill="black"/>
<path d="M33.4217 50.6929C33.1311 51.6001 32.1534 52.0933 31.255 51.7939C30.3478 51.5032 29.8545 50.5255 30.154 49.6271C30.4535 48.7287 31.4223 48.2267 32.3207 48.5261C33.228 48.8168 33.7212 49.7945 33.4217 50.6929Z" fill="black"/>
<path d="M25.451 48.0943C25.1604 49.0015 24.1827 49.4948 23.2843 49.1953C22.3771 48.9047 21.8838 47.927 22.1833 47.0286C22.474 46.1214 23.4516 45.6281 24.35 45.9276C25.2572 46.2182 25.7505 47.1959 25.451 48.0943Z" fill="black"/>
</g>
</svg>
