<svg width="695" height="501" viewBox="0 0 695 501" fill="none" xmlns="http://www.w3.org/2000/svg">
<g clip-path="url(#clip0_118_2776)">
<path d="M62.0425 500.557C62.0425 500.557 -12.7512 414.868 18.4819 314.149C46.5116 223.753 173.249 165.246 240.594 210.018C273.171 231.675 299.492 144.626 407.614 112.757C487.569 89.1918 605.799 142.042 575.771 303.891C552.94 426.943 666.189 365.595 641.456 501.532L62.0425 500.554V500.557Z" fill="#EBF3FA"/>
<path d="M613.123 500.201L535.77 501.415C532.993 499.059 548.26 491.728 568.127 492.136C570.266 492.179 572.955 492.422 576.037 493.073C576.75 483.6 580.825 441.013 596.176 442.722C613.437 444.637 596.176 461.478 591.297 471.446C587.683 478.83 583.87 489.421 582.126 494.417C583.527 494.722 584.978 495.018 586.46 495.292C588.748 488.269 597.259 464.641 608.086 466.017C620.797 467.63 615.688 477.103 606.679 482.725C600.07 486.859 591.954 492.736 588.097 495.575C591.366 496.108 594.775 496.469 598.233 496.388C607.112 496.176 611.445 498.794 613.126 500.201H613.123Z" fill="#218225"/>
<path d="M56.1517 498.393C54.3119 495.504 48.7769 488.005 41.4053 488.998C33.3736 490.078 50.2774 495.373 55.4513 498.415C54.3025 498.43 53.3126 498.34 52.5873 498.082C49.1287 496.849 43.2015 499.212 41.3087 500.043H74.2446C74.0174 499.255 73.4228 497.97 71.8881 497.029C71.3464 496.699 70.26 496.653 68.856 496.759C70.8141 494.449 72.1745 487.074 66.7235 488.973C62.742 490.358 62.7513 494.866 63.1436 497.531C62.2968 497.664 61.4376 497.798 60.5878 497.92C58.9472 489.561 53.1476 465.068 41.3928 464.414C29.4761 463.754 51.4977 489.817 58.832 498.153C57.8919 498.265 56.9891 498.352 56.1486 498.39L56.1517 498.393Z" fill="#218225"/>
<path d="M215.564 491.354V497.648C215.564 498.15 215.408 498.617 215.146 499.003C214.869 499.41 214.474 499.731 214.007 499.908C213.895 499.952 213.78 499.986 213.661 500.014C213.63 500.024 213.599 500.03 213.565 500.033C213.425 500.058 213.282 500.07 213.139 500.07L112.893 500.055C112.787 500.055 112.681 500.049 112.578 500.033C112.538 500.03 112.497 500.021 112.46 500.014C111.37 499.818 110.527 498.884 110.471 497.754C110.471 497.714 110.471 497.67 110.471 497.63V491.335C110.471 491.295 110.471 491.251 110.474 491.211C110.539 489.934 111.604 488.91 112.896 488.91L213.139 488.926C213.204 488.926 213.266 488.926 213.332 488.935C213.36 488.935 213.388 488.941 213.412 488.944C213.444 488.944 213.472 488.951 213.503 488.957C213.525 488.957 213.546 488.963 213.568 488.966C213.721 488.991 213.87 489.035 214.013 489.091C214.035 489.1 214.054 489.106 214.076 489.116C214.097 489.125 214.116 489.134 214.138 489.141C214.178 489.159 214.219 489.181 214.259 489.2C214.303 489.225 214.349 489.249 214.39 489.274C214.427 489.296 214.468 489.321 214.505 489.346C214.549 489.374 214.589 489.405 214.63 489.439C214.661 489.464 214.692 489.489 214.723 489.517C214.723 489.517 214.726 489.517 214.729 489.523C214.751 489.542 214.77 489.561 214.792 489.579C214.854 489.636 214.913 489.698 214.966 489.76C214.985 489.779 215 489.797 215.013 489.816C215.028 489.835 215.044 489.853 215.059 489.875C215.09 489.916 215.122 489.956 215.15 490C215.411 490.386 215.564 490.853 215.567 491.354H215.564Z" fill="#FFB93E"/>
<path d="M166.337 500.067L112.631 500.057C112.588 500.057 112.544 500.057 112.504 500.054C112.457 500.054 112.41 500.045 112.367 500.039C111.333 499.895 110.524 498.933 110.471 497.757C110.471 497.716 110.471 497.673 110.471 497.632V491.338C110.471 491.297 110.471 491.254 110.474 491.213C110.533 489.937 111.482 488.913 112.637 488.913L159.747 488.919C159.769 489.009 159.79 489.102 159.812 489.193C160.594 492.421 162.337 496.757 166.244 499.986C166.275 500.011 166.309 500.039 166.34 500.063L166.337 500.067Z" fill="#FFA412"/>
<path d="M203.362 488.931H202.223V500.075H203.362V488.931Z" fill="#FFA412"/>
<path d="M199.507 488.926H198.367V500.071H199.507V488.926Z" fill="#FFA412"/>
<path d="M194.882 488.926H193.742V500.071H194.882V488.926Z" fill="#FFA412"/>
<path d="M187.796 488.926H186.656V500.071H187.796V488.926Z" fill="#FFA412"/>
<path d="M180.298 488.926H179.158V500.071H180.298V488.926Z" fill="#FFA412"/>
<path d="M168.803 488.922H167.664V500.067H168.803V488.922Z" fill="#FFA412"/>
<path d="M158.046 488.922H156.906V500.067H158.046V488.922Z" fill="#FFA412"/>
<path d="M148.436 488.92H147.297V500.065H148.436V488.92Z" fill="#FFA412"/>
<path d="M207.034 488.931H205.895V500.075H207.034V488.931Z" fill="#FFA412"/>
<path d="M209.462 488.931H208.322V500.075H209.462V488.931Z" fill="#FFA412"/>
<path d="M211.801 488.931H210.662V500.075H211.801V488.931Z" fill="#FFA412"/>
<path d="M213.562 488.971V500.038C213.422 500.063 213.279 500.075 213.133 500.075H212.42V488.931H213.133C213.279 488.931 213.422 488.943 213.559 488.968L213.562 488.971Z" fill="#FFA412"/>
<path d="M215.149 490V499.003C214.872 499.411 214.474 499.731 214.01 499.909V489.091C214.477 489.271 214.872 489.592 215.149 490Z" fill="#FFA412"/>
<path d="M220.746 480.485V486.78C220.746 487.281 220.593 487.745 220.329 488.134C220.052 488.542 219.656 488.862 219.189 489.04C219.046 489.096 218.9 489.136 218.747 489.164C218.607 489.189 218.464 489.205 218.321 489.205L118.078 489.189C117.677 489.189 117.294 489.089 116.961 488.915C116.251 488.545 115.743 487.829 115.666 486.998C115.662 486.96 115.659 486.926 115.656 486.889C115.656 486.848 115.656 486.805 115.656 486.764V480.469C115.656 480.429 115.656 480.385 115.659 480.345C115.725 479.069 116.789 478.044 118.081 478.044L218.324 478.06C218.47 478.06 218.614 478.072 218.751 478.1C218.903 478.129 219.053 478.169 219.196 478.225C219.66 478.406 220.058 478.726 220.332 479.131C220.593 479.52 220.749 479.984 220.749 480.485H220.746Z" fill="#FFB93E"/>
<path d="M171.519 489.196L117.813 489.187C117.455 489.187 117.115 489.087 116.817 488.913C116.182 488.542 115.73 487.829 115.662 486.995C115.659 486.958 115.655 486.923 115.652 486.886C115.652 486.846 115.652 486.802 115.652 486.762V480.467C115.652 480.427 115.652 480.383 115.655 480.343C115.715 479.066 116.664 478.042 117.819 478.042L164.929 478.048C165.66 481.239 167.338 485.619 171.192 488.919C171.301 489.012 171.41 489.103 171.522 489.193L171.519 489.196Z" fill="#FFA412"/>
<path d="M208.548 478.056H207.408V489.2H208.548V478.056Z" fill="#FFA412"/>
<path d="M204.692 478.056H203.553V489.2H204.692V478.056Z" fill="#FFA412"/>
<path d="M200.063 478.056H198.924V489.2H200.063V478.056Z" fill="#FFA412"/>
<path d="M192.977 478.056H191.838V489.2H192.977V478.056Z" fill="#FFA412"/>
<path d="M185.481 478.053H184.342V489.198H185.481V478.053Z" fill="#FFA412"/>
<path d="M173.989 478.053H172.85V489.198H173.989V478.053Z" fill="#FFA412"/>
<path d="M163.227 478.051H162.088V489.195H163.227V478.051Z" fill="#FFA412"/>
<path d="M153.622 478.051H152.482V489.195H153.622V478.051Z" fill="#FFA412"/>
<path d="M212.219 478.06H211.08V489.204H212.219V478.06Z" fill="#FFA412"/>
<path d="M214.643 478.06H213.504V489.204H214.643V478.06Z" fill="#FFA412"/>
<path d="M216.985 478.06H215.846V489.204H216.985V478.06Z" fill="#FFA412"/>
<path d="M218.748 478.096V489.163C218.608 489.188 218.465 489.203 218.318 489.2H217.605V478.056H218.318C218.465 478.056 218.608 478.068 218.745 478.093L218.748 478.096Z" fill="#FFA412"/>
<path d="M220.331 479.129V488.132C220.054 488.54 219.655 488.861 219.191 489.038V478.22C219.658 478.401 220.054 478.721 220.331 479.126V479.129Z" fill="#FFA412"/>
<mask id="mask0_118_2776" style="mask-type:luminance" maskUnits="userSpaceOnUse" x="94" y="-1" width="507" height="502">
<path d="M600.66 -0.00292969H94.3281V500.037H600.66V-0.00292969Z" fill="white"/>
</mask>
<g mask="url(#mask0_118_2776)">
<path d="M326.668 523.769L325.118 524.307C318.705 510.89 309.061 501.044 299.7 492.81C289.679 483.987 269.946 473.188 245.347 475.196C235.204 476.024 227.711 478.113 224.06 479.312L223.26 477.525C270.799 457.772 298.807 479.299 313.429 499.107C322.79 511.79 326.665 523.769 326.665 523.769H326.668Z" fill="#1D4F36"/>
<path d="M380.618 494.693L326.669 523.768C322.538 515.304 316.322 507.419 311.138 501.653C305.955 495.885 301.805 492.237 301.805 492.237C268.761 463.13 223.264 477.524 223.264 477.524L262.503 436.373C286.489 427.744 307.754 431.607 325.399 440.51C359.957 457.943 380.618 494.699 380.618 494.699V494.693Z" fill="#218225"/>
<path d="M380.62 494.694L326.671 523.77C322.54 515.306 316.323 507.42 311.14 501.655C305.957 495.886 301.807 492.238 301.807 492.238C268.762 463.131 243.332 456.482 243.332 456.482L268.264 456.955C277.557 457.132 283.63 451.059 291.391 445.941C293.162 444.774 294.949 440.104 296.5 438.996C305.4 432.623 314.272 434.896 325.401 440.512C359.959 457.945 380.62 494.7 380.62 494.7V494.694Z" fill="#1D4F36"/>
<path d="M375.35 493.179C370.154 480.226 350.393 461.423 349.596 460.713C339.373 451.406 328.533 444.467 317.379 440.093C308.439 436.587 299.28 434.71 290.156 434.517C274.591 434.187 264.663 438.807 264.246 439.003L264.1 439.072L232.197 471.871L234.924 471.413C252.625 468.452 268.514 469.228 282.152 473.72C293.038 477.303 302.53 483.252 310.366 491.402C323.739 505.311 328.259 519.235 328.297 519.391L375.347 493.176L375.35 493.179ZM325.8 510.864C323.328 505.554 318.88 497.656 311.732 490.206C303.691 481.823 293.95 475.703 282.775 472.017C270.849 468.082 257.267 466.924 242.305 468.561C240.662 468.742 239.693 466.768 240.845 465.582L262.954 442.851C264.576 441.182 266.584 439.943 268.803 439.24C273.028 437.898 280.561 436.111 290.218 436.329C299.118 436.531 308.053 438.371 316.781 441.805C327.705 446.101 338.336 452.912 348.382 462.058C348.432 462.102 353.291 466.448 358.723 472.316C365.874 480.036 370.752 486.851 372.829 492.024L328.742 517.349C328.284 515.799 327.721 514.986 325.803 510.864H325.8Z" fill="#1D4F36"/>
<path d="M325.851 455.783C329.515 463.974 326.928 471.072 318.737 474.733C310.547 478.397 299.85 477.239 296.19 469.048C292.526 460.858 294.873 453.928 303.063 450.267C311.254 446.603 322.19 447.593 325.851 455.783Z" fill="#1D4F36"/>
<path d="M275.557 558.881L273.829 559.441C267.034 544.458 256.58 533.357 246.41 524.04C235.52 514.059 213.932 501.679 186.68 503.357C175.445 504.048 167.108 506.19 163.043 507.438L162.199 505.446C215.22 484.648 245.722 509.075 261.458 531.312C271.532 545.548 275.554 558.884 275.554 558.884L275.557 558.881Z" fill="#1D4F36"/>
<path d="M335.87 527.912L275.555 558.881C271.172 549.426 264.469 540.57 258.866 534.076C253.262 527.582 248.752 523.451 248.752 523.451C212.843 490.525 162.203 505.445 162.203 505.445L206.514 460.792C233.236 451.777 256.671 456.521 275.991 466.757C313.83 486.804 335.87 527.915 335.87 527.915V527.912Z" fill="#218225"/>
<path d="M277.458 554.077C277.418 553.903 272.73 538.4 258.242 522.72C249.755 513.533 239.386 506.743 227.426 502.538C212.44 497.27 194.882 496.063 175.239 498.945L172.213 499.39L208.224 463.815L208.389 463.74C208.853 463.531 219.936 458.641 237.148 459.351C247.237 459.768 257.323 462.043 267.135 466.121C279.376 471.208 291.212 479.118 302.316 489.64C303.181 490.444 324.627 511.678 330.087 526.122L277.465 554.077H277.458ZM277.991 551.826L327.317 524.79C325.134 519.021 319.889 511.376 312.153 502.678C306.273 496.069 300.993 491.153 300.94 491.107C290.029 480.765 278.423 472.998 266.435 468.005C256.856 464.017 247.013 461.782 237.173 461.362C226.498 460.907 218.124 462.719 213.423 464.107C210.955 464.839 208.704 466.165 206.873 467.974L181.916 492.629C180.615 493.915 181.642 496.119 183.463 495.957C200.05 494.475 215.048 496.053 228.151 500.673C240.429 505 251.072 511.983 259.779 521.434C267.521 529.833 272.266 538.664 274.884 544.595C276.917 549.196 277.521 550.105 277.991 551.833V551.826Z" fill="#1D4F36"/>
<path d="M276.151 483.663C280.02 492.806 277.004 500.595 267.864 504.468C258.724 508.337 246.919 506.824 243.047 497.681C239.177 488.541 241.923 480.93 251.066 477.057C260.206 473.188 272.281 474.523 276.151 483.663Z" fill="#1D4F36"/>
<path d="M314.85 454.071C314.85 454.071 311.837 475.368 315.28 488.906H264.883C264.883 488.906 288.996 400.633 338.372 350.112C352.546 335.605 365.586 314.947 378.169 292.244C409.415 235.867 437.846 166.851 473.861 148.023C473.861 148.023 402.715 252.562 388.934 312.842C375.159 373.123 326.041 371.402 314.844 454.071H314.85Z" fill="#4C85D8"/>
<path d="M371.97 312.841C373.436 306.416 375.559 299.492 378.174 292.242C365.588 314.946 352.551 335.604 338.377 350.11C331.102 357.554 324.378 365.816 318.195 374.495C318.161 374.193 315.96 355.004 308.149 335.513C300.389 316.138 287.093 296.47 264.884 294.761C264.884 294.761 318.643 335.949 291.367 420.403C273.629 456.9 260.43 488.908 260.43 488.908H299.203C295.756 475.366 298.773 454.073 298.773 454.073C309.97 371.403 358.191 373.125 371.97 312.844V312.841Z" fill="#699FF0"/>
<path d="M318.192 374.501C318.192 374.501 318.121 374.629 317.987 374.847C316.577 377.2 308.473 390.484 309.199 382.315C309.993 373.374 299.938 339.685 299.938 339.685L308.147 335.514C316.019 355.163 318.192 374.504 318.192 374.504V374.501Z" fill="#4C85D8"/>
<path d="M561.892 221.21C561.892 221.21 561.895 221.219 561.901 221.219L560.41 223.492C555.672 221.035 545.866 216.506 532.144 213.119C507.27 206.977 484.533 211.248 468.08 217.916C462.524 220.167 457.68 222.698 453.717 225.188C439.061 234.4 423.648 245.753 411.875 262.725L409.867 261.639L354.178 218.863L342.373 209.797C342.373 209.797 350.28 199.87 363.906 187.623C379.549 173.562 402.719 156.446 430.111 147.777C445.909 142.774 463.109 140.585 481.071 143.409C492.863 145.267 504.985 149.283 517.254 156.082L561.901 221.216C561.901 221.216 561.895 221.216 561.892 221.213V221.21Z" fill="#1D4F36"/>
<path d="M299.055 556.897L300.605 557.436C307.018 544.019 316.662 534.172 326.023 525.938C336.044 517.116 355.777 506.317 380.376 508.325C390.519 509.153 398.012 511.241 401.663 512.44L402.463 510.653C354.924 490.901 326.916 512.428 312.294 532.236C302.934 544.918 299.058 556.897 299.058 556.897H299.055Z" fill="#1D4F36"/>
<path d="M245.105 527.825L299.054 556.9C303.185 548.436 309.402 540.551 314.585 534.785C319.768 529.02 323.918 525.368 323.918 525.368C356.963 496.262 402.457 510.656 402.457 510.656L363.22 469.505C339.234 460.876 317.969 464.739 300.324 473.642C265.767 491.075 245.105 527.831 245.105 527.831V527.825Z" fill="#218225"/>
<path d="M250.369 526.311C255.565 513.358 275.326 494.555 276.123 493.845C286.346 484.537 297.186 477.598 308.34 473.225C317.281 469.719 326.439 467.842 335.563 467.649C351.129 467.319 361.056 471.939 361.473 472.135L361.62 472.204L393.522 505.002L390.795 504.548C373.094 501.587 357.205 502.363 343.567 506.855C332.681 510.438 323.189 516.387 315.354 524.537C301.98 538.446 297.46 552.37 297.423 552.526L250.372 526.311H250.369ZM299.919 543.996C302.391 538.685 306.84 530.788 313.987 523.338C322.028 514.958 331.772 508.838 342.944 505.149C354.871 501.214 368.453 500.056 383.414 501.693C385.058 501.874 386.026 499.9 384.874 498.714L362.765 475.983C361.143 474.314 359.132 473.075 356.916 472.372C352.691 471.033 345.158 469.243 335.501 469.461C326.601 469.663 317.667 471.503 308.938 474.937C298.014 479.233 287.383 486.044 277.337 495.19C277.288 495.234 272.428 499.58 266.996 505.448C259.845 513.168 254.967 519.982 252.894 525.156L296.981 550.481C297.438 548.93 298.002 548.118 299.919 543.996Z" fill="#1D4F36"/>
<path d="M299.874 488.914C296.21 497.105 298.796 504.202 306.987 507.863C315.177 511.527 325.874 510.369 329.535 502.179C333.199 493.989 330.851 487.059 322.661 483.398C314.471 479.734 303.534 480.724 299.874 488.914Z" fill="#1D4F36"/>
<path d="M423.389 547.094L421.839 547.633C415.426 534.216 405.782 524.369 396.421 516.135C386.4 507.313 366.667 496.514 342.067 498.522C331.925 499.35 324.432 501.439 320.781 502.637L319.98 500.85C367.52 481.098 395.528 502.625 410.149 522.433C419.51 535.116 423.386 547.094 423.386 547.094H423.389Z" fill="#1D4F36"/>
<path d="M477.336 518.019L423.387 547.095C419.256 538.63 413.039 530.745 407.856 524.98C402.673 519.214 398.523 515.563 398.523 515.563C365.478 486.456 319.984 500.851 319.984 500.851L359.221 459.699C383.207 451.07 404.472 454.933 422.117 463.837C456.674 481.27 477.336 518.025 477.336 518.025V518.019Z" fill="#218225"/>
<path d="M472.073 516.506C466.88 503.553 447.116 484.75 446.319 484.041C436.095 474.733 425.256 467.794 414.102 463.42C405.161 459.915 396.003 458.038 386.878 457.845C371.313 457.515 361.386 462.134 360.969 462.33L360.822 462.399L328.92 495.198L331.647 494.743C349.348 491.783 365.237 492.558 378.875 497.047C389.761 500.63 399.253 506.579 407.088 514.729C420.462 528.638 424.979 542.563 425.019 542.721L472.07 516.506H472.073ZM422.523 534.192C420.051 528.881 415.602 520.983 408.455 513.534C400.414 505.153 390.673 499.03 379.497 495.344C367.574 491.409 353.989 490.251 339.028 491.889C337.384 492.069 336.416 490.096 337.568 488.909L359.677 466.178C361.299 464.51 363.31 463.271 365.526 462.567C369.75 461.228 377.284 459.438 386.941 459.656C395.838 459.859 404.775 461.698 413.504 465.132C424.428 469.428 435.059 476.239 445.105 485.385C445.154 485.429 450.014 489.775 455.446 495.643C462.597 503.363 467.475 510.178 469.548 515.352L425.461 540.676C425.004 539.126 424.44 538.313 422.523 534.192Z" fill="#1D4F36"/>
<path d="M422.567 479.108C426.231 487.299 423.644 494.393 415.454 498.057C407.264 501.721 396.567 500.563 392.906 492.373C389.242 484.182 391.59 477.253 399.78 473.592C407.97 469.928 418.906 470.918 422.567 479.108Z" fill="#1D4F36"/>
<path d="M468.079 217.916C462.522 220.167 457.678 222.698 453.715 225.188C439.059 234.4 423.646 245.753 411.873 262.725L409.865 261.639L354.176 218.863C357.027 207.419 360.302 197.006 363.904 187.623C379.547 173.562 402.717 156.446 430.109 147.777C445.908 142.774 463.107 140.585 481.069 143.409C481.673 143.798 481.994 144.019 481.994 144.019C481.994 144.019 453.983 178.048 468.079 217.919V217.916Z" fill="#719E67"/>
<path d="M395.997 201.393L311.438 211.062L309.162 210.959C308.661 203.276 307.326 196.011 305.433 189.109C302.261 177.494 297.535 166.926 292.629 157.235C289.641 151.326 285.183 144.456 279.196 137.601C268.419 125.264 252.68 112.98 231.623 106.492C218.122 102.33 207.382 101.157 202.055 100.817L201.943 98.1027H201.95L273.767 65.2695C287.24 65.7427 299.26 68.339 309.994 72.5229C327.458 79.3218 341.491 90.289 352.742 103.037C369.169 121.647 379.648 144.039 386.17 162.763C393.775 184.576 396 201.393 396 201.393H395.997Z" fill="#1D4F36"/>
<path d="M386.165 162.763C384.948 178.468 376.948 191.282 360.433 195.957C342.377 201.066 322.448 197.01 305.432 189.109C302.26 177.494 297.534 166.925 292.628 157.234C289.64 151.326 285.182 144.455 279.195 137.6C316.58 128.862 309.993 72.5225 309.993 72.5225C327.457 79.3213 341.49 90.2885 352.741 103.036C369.168 121.646 379.647 144.038 386.168 162.763H386.165Z" fill="#719E67"/>
<path d="M286.692 153.053C286.692 153.053 285.163 137.034 255.219 143.509C255.219 143.509 267.042 157.984 286.692 153.053Z" fill="#1D4F36"/>
<path d="M517.67 307.899L517.688 307.908L473.038 242.771C442.073 225.609 412.063 226.182 385.895 234.465C334.645 250.687 298.154 296.483 298.154 296.483L365.651 348.328L367.659 349.414C379.432 332.445 394.842 321.092 409.501 311.88C425.197 302.012 454.653 291.593 487.928 299.811C501.647 303.198 511.456 307.724 516.197 310.181L517.688 307.908C517.688 307.908 517.676 307.902 517.67 307.896V307.899Z" fill="#1D4F36"/>
<path d="M188.407 234.744L188.389 234.753L233.039 169.616C264.004 152.454 294.014 153.027 320.182 161.311C371.432 177.533 407.923 223.328 407.923 223.328L340.426 275.173L338.421 276.259C326.648 259.29 311.238 247.937 296.579 238.726C280.883 228.857 251.428 218.438 218.152 226.656C204.433 230.046 194.624 234.573 189.883 237.026L188.392 234.756C188.392 234.756 188.404 234.747 188.41 234.744H188.407Z" fill="#719E67"/>
<path d="M333.958 200.633L331.938 199.575C339.44 180.333 340.25 161.207 339.705 143.901C339.123 125.369 331.318 95.117 305.916 72.1055C295.444 62.617 286.211 57.0073 281.525 54.4484L282.578 51.9424C347.749 81.3419 352.546 130.164 346.37 163.797C342.413 185.33 333.958 200.633 333.958 200.633Z" fill="#1D4F36"/>
<path d="M414.664 227.669L333.961 200.633C338.612 188.405 340.695 174.617 341.613 163.889C342.535 153.162 342.289 145.488 342.289 145.488C340.387 84.3608 282.584 51.9448 282.584 51.9448L361.549 52.6048C393.078 68.7054 409.362 93.921 417.107 120.251C432.271 171.821 414.664 227.669 414.664 227.669Z" fill="#218225"/>
<path d="M339.94 198.131C340.062 197.944 349.877 180.138 351.266 153.375C352.078 137.698 349.086 122.428 342.378 107.996C333.97 89.9127 319.662 73.0775 299.848 57.9575L296.797 55.6289L360.331 56.7901L360.542 56.8741C361.137 57.1076 375.248 62.7764 389.699 78.8615C398.17 88.2908 404.969 99.3514 409.909 111.738C416.073 127.194 419.341 144.764 419.622 163.966C419.659 165.447 419.385 203.33 411.195 220.9L339.94 198.131ZM342.431 196.637L409.968 217.245C413.237 210.225 415.509 198.81 416.537 184.234C417.318 173.158 417.106 164.106 417.103 164.015C416.826 145.147 413.629 127.907 407.605 112.759C402.789 100.656 396.168 89.8536 387.918 80.6452C378.968 70.6555 370 64.7221 364.627 61.7149C361.806 60.1366 358.64 59.2774 355.409 59.2182L311.378 58.412C309.081 58.3715 308.001 61.2261 309.747 62.7204C325.62 76.3243 337.353 91.1829 344.694 107.003C351.574 121.828 354.628 137.514 353.775 153.621C353.015 167.941 349.242 179.948 346.207 187.497C343.853 193.356 343.567 194.697 342.431 196.634V196.637Z" fill="#1D4F36"/>
<path d="M385.998 106.895C374.505 102.076 365.259 106.278 360.44 117.772C355.621 129.265 364.609 141.197 376.102 146.016C387.595 150.835 397.24 146.713 402.059 135.223C406.878 123.73 397.492 111.714 385.998 106.895Z" fill="#1D4F36"/>
<path d="M291.985 286.631L289.818 287.335C281.286 268.526 268.164 254.589 255.401 242.893C241.731 230.366 214.629 214.823 180.42 216.93C166.315 217.799 155.852 220.489 150.75 222.055L149.691 219.552C216.251 193.446 254.541 224.109 274.297 252.021C286.945 269.892 291.991 286.631 291.991 286.631H291.985Z" fill="#1D4F36"/>
<path d="M367.699 247.754L291.984 286.629C286.483 274.762 278.069 263.643 271.033 255.49C263.998 247.337 258.335 242.153 258.335 242.153C213.259 200.818 149.688 219.55 149.688 219.55L205.311 163.496C238.857 152.177 268.275 158.133 292.529 170.983C340.031 196.149 367.699 247.757 367.699 247.757V247.754Z" fill="#218225"/>
<path d="M294.372 280.601C294.322 280.384 288.436 260.921 270.249 241.237C259.596 229.707 246.581 221.18 231.564 215.903C212.752 209.291 190.708 207.772 166.05 211.393L162.252 211.95L207.459 167.293L207.665 167.2C208.247 166.938 222.159 160.796 243.764 161.687C256.427 162.21 269.091 165.068 281.409 170.185C296.775 176.57 311.634 186.504 325.571 199.712C326.657 200.721 353.579 227.375 360.431 245.508L294.372 280.601ZM295.041 277.775L356.96 243.833C354.22 236.589 347.636 226.992 337.923 216.075C330.542 207.778 323.915 201.608 323.849 201.546C310.152 188.568 295.583 178.812 280.532 172.545C268.509 167.536 256.15 164.731 243.798 164.205C230.396 163.636 219.887 165.908 213.981 167.654C210.881 168.57 208.057 170.235 205.757 172.508L174.427 203.457C172.793 205.073 174.081 207.841 176.37 207.635C197.193 205.777 216.02 207.76 232.47 213.553C247.885 218.985 261.243 227.752 272.176 239.615C281.892 250.159 287.85 261.248 291.135 268.691C293.684 274.466 294.444 275.608 295.035 277.775H295.041Z" fill="#1D4F36"/>
<path d="M292.732 192.21C287.872 180.735 272.718 179.058 261.243 183.917C249.769 188.776 246.319 198.33 251.176 209.805C256.035 221.28 270.853 223.182 282.328 218.322C293.803 213.463 297.591 203.682 292.732 192.207V192.21Z" fill="#1D4F36"/>
<path d="M417.579 227.646L419.855 227.776C423.338 207.42 432.491 190.607 441.873 176.056C451.916 160.473 474.19 138.563 507.817 131.92C521.682 129.18 532.484 129.131 537.817 129.348L538.206 126.659C467.201 118.291 437.942 157.665 425.913 189.676C418.211 210.169 417.576 227.642 417.576 227.642L417.579 227.646Z" fill="#1D4F36"/>
<path d="M334.478 209.246L417.577 227.641C419.89 214.766 425.207 201.875 429.942 192.206C434.68 182.537 438.842 176.083 438.842 176.083C471.959 124.665 538.201 126.658 538.201 126.658L470.175 86.5493C434.857 84.1118 407.911 97.336 387.711 115.918C348.147 152.309 334.475 209.25 334.475 209.25L334.478 209.246Z" fill="#218225"/>
<path d="M340.943 205.23C342.973 185.954 362.252 153.342 363.046 152.09C373.179 135.778 385.03 122.398 398.273 112.327C408.888 104.255 420.413 98.2752 432.532 94.5582C453.202 88.217 468.22 90.6265 468.849 90.7323L469.073 90.7697L524.13 122.498L520.313 122.921C495.543 125.676 474.608 132.733 458.087 143.903C444.9 152.819 434.471 164.365 427.093 178.221C414.498 201.874 413.738 222.193 413.748 222.417L340.946 205.23H340.943ZM413.851 210.077C415.139 202.042 418.091 189.808 424.815 177.144C432.379 162.896 443.079 151.026 456.611 141.864C471.053 132.086 488.763 125.393 509.374 121.906C511.64 121.523 512.185 118.519 510.193 117.374L472.036 95.3832C469.235 93.7706 466.081 92.8741 462.853 92.7745C456.698 92.5846 445.955 93.0515 433.139 97.0051C421.325 100.647 410.084 106.497 399.724 114.388C386.755 124.269 375.137 137.4 365.178 153.429C365.132 153.504 360.285 161.155 355.251 171.052C348.623 184.077 344.691 195.031 343.879 202.733L412.384 219.855C412.409 217.61 412.854 216.312 413.854 210.077H413.851Z" fill="#1D4F36"/>
<path d="M421.26 120.495C408.929 118.705 394.693 124.171 392.903 136.505C391.113 148.839 397.258 157.338 409.592 159.125C421.926 160.915 435.776 155.314 437.566 142.98C439.356 130.65 433.593 122.282 421.263 120.492L421.26 120.495Z" fill="#1D4F36"/>
<path d="M339.102 202.448C346.574 171.688 377.57 152.808 408.33 160.282C439.09 167.753 457.971 198.75 450.496 229.51C443.025 260.27 412.028 279.15 381.269 271.676C350.509 264.201 331.628 233.208 339.102 202.448Z" fill="#E2810E"/>
<path d="M334.245 201.268C341.716 170.508 372.713 151.627 403.473 159.101C434.233 166.576 453.113 197.569 445.639 228.329C438.167 259.089 407.171 277.97 376.411 270.495C345.651 263.024 326.771 232.027 334.242 201.268H334.245Z" fill="#FFB93E"/>
<path d="M389.876 267.698C385.739 267.698 381.577 267.203 377.452 266.201C363.898 262.907 352.436 254.533 345.179 242.62C337.923 230.706 335.74 216.682 339.034 203.125C342.328 189.571 350.702 178.108 362.615 170.852C374.529 163.595 388.553 161.413 402.11 164.707C430.093 171.506 447.327 199.8 440.528 227.78C437.235 241.334 428.861 252.796 416.947 260.053C408.657 265.102 399.343 267.695 389.876 267.695V267.698ZM389.692 166.329C380.789 166.329 372.032 168.766 364.237 173.517C353.033 180.34 345.16 191.118 342.063 203.863C338.965 216.61 341.02 229.797 347.844 241.001C354.668 252.205 365.445 260.078 378.193 263.175C390.941 266.273 404.127 264.218 415.331 257.394C426.535 250.571 434.408 239.793 437.505 227.045C443.896 200.734 427.69 174.127 401.379 167.736C397.503 166.796 393.587 166.329 389.695 166.329H389.692Z" fill="#FFA412"/>
<path d="M338.678 230.22L123.545 290.975L149.024 381.195L364.156 320.44L338.678 230.22Z" fill="#218225"/>
<path d="M138.043 295.685L158.352 367.624L348.378 313.974L328.069 242.035L138.043 295.685ZM341.772 300.949C343.5 307.069 339.945 313.423 333.825 315.15L170.219 361.342C164.743 362.889 159.053 359.701 157.506 354.225L144.611 308.551C142.909 302.518 146.414 296.251 152.447 294.548L315.442 248.532C321.341 246.866 327.474 250.3 329.14 256.199L341.775 300.949H341.772Z" fill="#1D4F36"/>
<path d="M265.949 298.41C262.456 286.042 249.6 278.844 237.232 282.337C224.863 285.83 217.666 298.687 221.159 311.055C224.652 323.423 237.509 330.62 249.877 327.128C262.245 323.635 269.442 310.778 265.949 298.41Z" fill="#1D4F36"/>
<path opacity="0.5" d="M338.663 230.25L364.134 320.471L195.934 367.961C203.716 363.083 274.98 339.626 289.648 307.107C307.452 267.64 293.49 246.017 293.87 242.898L338.66 230.253L338.663 230.25Z" fill="#1D4F36"/>
<path d="M588.799 255.556L365.254 256.532L365.663 350.28L589.208 349.304L588.799 255.556Z" fill="#218225"/>
<path d="M377.988 264.935L378.315 339.685L575.765 338.822L575.439 264.072L377.988 264.935ZM572.883 324.506C572.911 330.866 567.784 336.036 561.424 336.064L391.424 336.808C385.734 336.833 381.101 332.241 381.076 326.551L380.868 279.093C380.84 272.823 385.895 267.724 392.165 267.696L561.53 266.955C567.656 266.927 572.649 271.877 572.677 278.006L572.883 324.506Z" fill="#1D4F36"/>
<path d="M477.129 278.605C464.279 278.661 453.903 289.127 453.959 301.977C454.015 314.831 464.481 325.204 477.332 325.148C490.182 325.092 500.558 314.626 500.502 301.775C500.446 288.921 489.983 278.549 477.129 278.605Z" fill="#1D4F36"/>
<path opacity="0.5" d="M588.802 255.552L589.212 349.301L414.438 350.067C423.241 347.446 498.181 343.909 521.015 316.499C548.724 283.233 541.057 258.662 542.259 255.758L588.802 255.555V255.552Z" fill="#1D4F36"/>
<path d="M452.735 323.408C437.453 295.686 402.59 285.6 374.869 300.882C347.147 316.164 337.061 351.026 352.343 378.748C367.625 406.47 402.487 416.556 430.209 401.274C457.931 385.992 468.017 351.129 452.735 323.408Z" fill="#E2810E"/>
<path d="M448.356 325.821C433.074 298.1 398.211 288.013 370.49 303.295C342.768 318.577 332.682 353.44 347.964 381.162C363.246 408.883 398.109 418.969 425.83 403.688C453.552 388.406 463.638 353.543 448.356 325.821Z" fill="#FFB93E"/>
<path d="M398.56 406.332C393.685 406.332 388.785 405.644 383.972 404.249C370.573 400.373 359.485 391.511 352.751 379.295C346.018 367.08 344.443 352.971 348.318 339.573C352.194 326.171 361.057 315.086 373.272 308.349C385.488 301.616 399.596 300.04 412.995 303.916C426.396 307.792 437.482 316.655 444.218 328.87C458.118 354.089 448.913 385.913 423.694 399.816C415.865 404.131 407.257 406.329 398.557 406.329L398.56 406.332ZM398.416 304.956C390.235 304.956 382.142 307.02 374.779 311.079C351.067 324.151 342.407 354.079 355.481 377.791C361.813 389.279 372.242 397.612 384.84 401.257C397.442 404.903 410.707 403.421 422.194 397.089C445.906 384.017 454.566 354.089 441.491 330.377C435.16 318.89 424.734 310.556 412.132 306.911C407.609 305.603 402.999 304.953 398.416 304.953V304.956Z" fill="#FFA412"/>
<path d="M343.547 270.74C341.496 247.043 320.623 229.495 296.926 231.547C273.23 233.598 255.682 254.471 257.733 278.168C259.785 301.864 280.658 319.412 304.354 317.361C328.051 315.309 345.599 294.439 343.547 270.74Z" fill="#E2810E"/>
<path d="M339.807 271.061C337.755 247.365 316.883 229.817 293.186 231.868C269.49 233.92 251.942 254.792 253.993 278.489C256.045 302.185 276.917 319.733 300.614 317.682C324.31 315.634 341.858 294.761 339.81 271.061H339.807Z" fill="#FFB93E"/>
<path d="M296.91 314.523C276.791 314.523 259.613 299.076 257.845 278.664C255.98 257.109 272 238.054 293.554 236.19C303.996 235.287 314.166 238.503 322.188 245.249C330.21 251.995 335.126 261.458 336.032 271.902C337.896 293.457 321.877 312.512 300.322 314.377C299.177 314.476 298.037 314.523 296.91 314.523ZM260.18 278.465C261.932 298.734 279.857 313.804 300.123 312.045C320.392 310.292 335.456 292.374 333.703 272.102C332.853 262.283 328.231 253.383 320.688 247.039C313.142 240.697 303.575 237.672 293.763 238.521C273.494 240.274 258.43 258.193 260.183 278.465H260.18Z" fill="#FFA412"/>
<path d="M330.975 154.946C324.581 144.287 310.753 140.828 300.094 147.223C289.435 153.617 285.976 167.445 292.374 178.104C298.768 188.763 312.596 192.221 323.255 185.827C333.914 179.433 337.373 165.605 330.975 154.946Z" fill="#E2810E"/>
<path d="M329.292 155.959C322.898 145.3 309.069 141.842 298.41 148.239C287.751 154.633 284.293 168.461 290.69 179.12C297.084 189.779 310.912 193.238 321.571 186.841C332.23 180.446 335.689 166.618 329.292 155.959Z" fill="#FFB93E"/>
<path d="M310.161 188.268C303.187 188.268 296.382 184.716 292.541 178.316C286.723 168.619 289.879 155.996 299.576 150.181C309.273 144.362 321.897 147.519 327.712 157.216C330.529 161.914 331.351 167.427 330.022 172.741C328.693 178.055 325.374 182.534 320.676 185.352C317.383 187.328 313.75 188.268 310.161 188.268ZM293.59 177.687C299.06 186.805 310.93 189.775 320.048 184.302C324.465 181.653 327.584 177.441 328.836 172.445C330.084 167.449 329.315 162.262 326.663 157.845C321.193 148.727 309.323 145.76 300.205 151.23C291.087 156.699 288.12 168.569 293.59 177.687Z" fill="#FFA412"/>
<path d="M412.106 75.6007C400.071 72.4845 387.79 79.713 384.674 91.7448C381.557 103.78 388.783 116.061 400.818 119.177C412.853 122.293 425.134 115.065 428.25 103.033C431.366 90.9977 424.138 78.7168 412.106 75.6007Z" fill="#E2810E"/>
<path d="M410.205 75.109C398.17 71.9928 385.889 79.2213 382.773 91.2532C379.657 103.288 386.885 115.569 398.917 118.685C410.952 121.801 423.233 114.573 426.349 102.541C429.465 90.506 422.237 78.2251 410.205 75.109Z" fill="#FFB93E"/>
<path d="M404.491 117.663C402.794 117.663 401.07 117.451 399.351 117.006C394.05 115.633 389.598 112.277 386.821 107.555C384.041 102.832 383.269 97.313 384.642 92.0115C386.015 86.71 389.374 82.2584 394.093 79.4785C398.816 76.6985 404.335 75.9265 409.637 77.2993C414.941 78.6722 419.39 82.028 422.17 86.7505C424.947 91.473 425.722 96.9924 424.349 102.294C421.958 111.524 413.612 117.66 404.494 117.663H404.491ZM404.463 77.8597C401.066 77.8597 397.72 78.7656 394.716 80.5338C390.277 83.1456 387.12 87.3326 385.828 92.3166C384.536 97.3037 385.265 102.493 387.877 106.932C390.488 111.371 394.675 114.528 399.662 115.82C401.278 116.237 402.9 116.439 404.494 116.439C413.07 116.439 420.918 110.668 423.166 101.989C425.834 91.694 419.626 81.1501 409.332 78.4854C407.719 78.0682 406.085 77.8628 404.463 77.8628V77.8597Z" fill="#FFA412"/>
<path d="M455.97 265.236C450.933 256.843 453.657 245.954 462.05 240.917C470.445 235.88 481.332 238.604 486.369 246.997C491.405 255.39 488.682 266.279 480.289 271.316C471.893 276.353 461.007 273.629 455.97 265.233V265.236Z" fill="#E2810E"/>
<path d="M454.646 266.033C449.609 257.638 452.333 246.751 460.725 241.714C469.121 236.678 480.007 239.401 485.044 247.794C490.081 256.19 487.357 267.076 478.965 272.113C470.569 277.15 459.682 274.426 454.646 266.033Z" fill="#FFB93E"/>
<path d="M469.979 273.239C464.488 273.239 459.127 270.443 456.104 265.4C451.522 257.764 454.009 247.824 461.646 243.242C469.282 238.659 479.222 241.147 483.804 248.783C488.387 256.419 485.899 266.359 478.263 270.938C475.667 272.495 472.806 273.236 469.982 273.236L469.979 273.239ZM456.929 264.905C461.238 272.087 470.586 274.425 477.765 270.116C484.947 265.808 487.281 256.463 482.976 249.281C478.668 242.099 469.322 239.764 462.141 244.07C454.959 248.378 452.624 257.723 456.932 264.905H456.929Z" fill="#FFA412"/>
<path d="M253.636 248.026C253.636 248.026 241.277 239.322 232.016 241.028C222.754 242.734 212.73 254.651 212.73 254.651C212.73 254.651 231.222 256.699 238.077 254.103C244.932 251.507 253.636 248.026 253.636 248.026Z" fill="#FFA412"/>
<path d="M457.38 230.082C457.38 230.082 478.462 218.62 486.503 222.418C494.547 226.216 498.811 235.234 498.811 235.234C498.811 235.234 489.061 236.209 481.506 235.844C473.951 235.48 468.833 228.709 457.377 230.082H457.38Z" fill="#1D4F36"/>
<path d="M491.012 142.162C491.012 142.162 505.098 135.188 511.421 136.813C517.74 138.438 524.128 142.162 524.128 142.162C524.128 142.162 516.277 146.887 508.641 146.563C501.005 146.24 491.012 142.162 491.012 142.162Z" fill="#FFA412"/>
<path d="M399.132 70.3582C399.132 70.3582 391.86 61.3397 394.4 54.7619C396.94 48.1809 399.132 44.769 399.132 44.769C399.132 44.769 405.79 52.3244 405.507 57.5636C405.224 62.8028 399.132 70.3582 399.132 70.3582Z" fill="#FFA412"/>
<path d="M428.969 86.2593C428.969 86.2593 427.269 74.9092 432.533 71.6592C437.797 68.4092 446.246 68.4092 446.246 68.4092C446.246 68.4092 444.945 77.9942 441.371 80.108C437.797 82.2217 430.538 83.3766 428.969 86.2593Z" fill="#1D4F36"/>
<path d="M347.818 388.654C347.818 388.654 354.94 398.727 355.264 402.301C355.588 405.875 345.215 414.974 345.215 414.974C345.215 414.974 341.859 406.202 343.322 401.812C344.786 397.423 347.818 388.65 347.818 388.65V388.654Z" fill="#1D4F36"/>
<path d="M334.575 331.105C334.575 331.105 323.991 334.679 322.527 340.529C321.064 346.378 321.553 350.562 321.553 350.562C321.553 350.562 336.875 343.128 334.575 331.105Z" fill="#1D4F36"/>
<path d="M337.804 331.105C337.804 331.105 341.072 334.841 341.144 337.444C341.215 340.043 339.472 342.306 339.472 342.306C339.472 342.306 335.618 339.202 337.804 331.105Z" fill="#1D4F36"/>
</g>
<path d="M471.83 491.335V497.63C471.83 498.131 471.674 498.598 471.412 498.984C471.135 499.392 470.74 499.712 470.273 499.893C470.13 499.949 469.98 499.989 469.828 500.017C469.688 500.042 469.545 500.055 469.398 500.055L369.156 500.039C368.754 500.039 368.371 499.94 368.038 499.765C367.328 499.395 366.821 498.679 366.74 497.848C366.737 497.81 366.734 497.776 366.73 497.739C366.73 497.698 366.73 497.655 366.73 497.614V491.32C366.73 491.279 366.73 491.236 366.734 491.195C366.799 489.919 367.864 488.895 369.156 488.895L469.398 488.91C469.545 488.91 469.688 488.923 469.828 488.947C469.98 488.972 470.13 489.016 470.273 489.072C470.737 489.253 471.135 489.573 471.412 489.981C471.674 490.37 471.826 490.834 471.826 491.335H471.83Z" fill="#FFB93E"/>
<path d="M422.603 500.049L368.9 500.039C368.542 500.039 368.203 499.94 367.904 499.765C367.269 499.395 366.817 498.679 366.746 497.848C366.743 497.81 366.739 497.776 366.736 497.739C366.736 497.698 366.736 497.655 366.736 497.614V491.32C366.736 491.279 366.736 491.236 366.739 491.195C366.799 489.919 367.748 488.895 368.903 488.895L416.013 488.901C416.744 492.092 418.422 496.472 422.276 499.771C422.385 499.865 422.494 499.955 422.606 500.045L422.603 500.049Z" fill="#FFA412"/>
<path d="M459.63 488.91H458.49V500.054H459.63V488.91Z" fill="#FFA412"/>
<path d="M455.772 488.91H454.633V500.054H455.772V488.91Z" fill="#FFA412"/>
<path d="M451.151 488.907H450.012V500.052H451.151V488.907Z" fill="#FFA412"/>
<path d="M444.061 488.907H442.922V500.052H444.061V488.907Z" fill="#FFA412"/>
<path d="M436.563 488.907H435.424V500.052H436.563V488.907Z" fill="#FFA412"/>
<path d="M425.069 488.905H423.93V500.049H425.069V488.905Z" fill="#FFA412"/>
<path d="M414.311 488.905H413.172V500.049H414.311V488.905Z" fill="#FFA412"/>
<path d="M404.702 488.901H403.562V500.046H404.702V488.901Z" fill="#FFA412"/>
<path d="M463.301 488.91H462.162V500.054H463.301V488.91Z" fill="#FFA412"/>
<path d="M465.727 488.91H464.588V500.054H465.727V488.91Z" fill="#FFA412"/>
<path d="M468.067 488.91H466.928V500.054H468.067V488.91Z" fill="#FFA412"/>
<path d="M469.832 488.951V500.018C469.692 500.043 469.549 500.059 469.402 500.059H468.689V488.914H469.402C469.549 488.914 469.692 488.927 469.829 488.955L469.832 488.951Z" fill="#FFA412"/>
<path d="M471.411 489.983V498.986C471.134 499.394 470.735 499.715 470.271 499.892V489.074C470.738 489.255 471.134 489.575 471.411 489.983Z" fill="#FFA412"/>
<path d="M460.866 480.193V486.487C460.866 486.988 460.714 487.455 460.449 487.841C460.172 488.249 459.777 488.57 459.31 488.747C459.167 488.803 459.02 488.844 458.865 488.872C458.725 488.897 458.584 488.909 458.438 488.909L358.195 488.894C356.903 488.894 355.839 487.869 355.773 486.593C355.773 486.553 355.773 486.509 355.773 486.469V480.174C355.773 480.134 355.773 480.09 355.777 480.05C355.836 478.87 356.754 477.905 357.912 477.768C358.005 477.755 358.102 477.749 358.199 477.749L458.444 477.765C458.591 477.765 458.731 477.777 458.871 477.802C459.023 477.83 459.173 477.87 459.313 477.926C459.78 478.107 460.175 478.428 460.452 478.835C460.714 479.225 460.869 479.688 460.869 480.19L460.866 480.193Z" fill="#FFB93E"/>
<path d="M411.639 488.902L357.933 488.896C356.781 488.896 355.829 487.872 355.77 486.596C355.77 486.555 355.77 486.512 355.77 486.471V480.177C355.77 480.136 355.77 480.092 355.773 480.052C355.826 478.872 356.644 477.907 357.681 477.77C357.765 477.758 357.849 477.751 357.936 477.751L405.046 477.758C405.046 477.758 405.046 477.77 405.049 477.773C405.802 481.051 407.555 485.581 411.639 488.902Z" fill="#FFA412"/>
<path d="M448.669 477.765H447.529V488.909H448.669V477.765Z" fill="#FFA412"/>
<path d="M444.809 477.765H443.67V488.909H444.809V477.765Z" fill="#FFA412"/>
<path d="M440.186 477.765H439.047V488.909H440.186V477.765Z" fill="#FFA412"/>
<path d="M433.096 477.761H431.957V488.906H433.096V477.761Z" fill="#FFA412"/>
<path d="M425.6 477.761H424.461V488.906H425.6V477.761Z" fill="#FFA412"/>
<path d="M414.108 477.757H412.969V488.902H414.108V477.757Z" fill="#FFA412"/>
<path d="M403.346 477.757H402.207V488.902H403.346V477.757Z" fill="#FFA412"/>
<path d="M393.741 477.754H392.602V488.899H393.741V477.754Z" fill="#FFA412"/>
<path d="M452.339 477.765H451.199V488.909H452.339V477.765Z" fill="#FFA412"/>
<path d="M454.76 477.765H453.621V488.909H454.76V477.765Z" fill="#FFA412"/>
<path d="M457.106 477.767H455.967V488.912H457.106V477.767Z" fill="#FFA412"/>
<path d="M458.867 477.804V488.871C458.727 488.896 458.584 488.909 458.438 488.912H457.725V477.767H458.438C458.584 477.767 458.724 477.78 458.864 477.808L458.867 477.804Z" fill="#FFA412"/>
<path d="M460.45 478.837V487.84C460.173 488.248 459.774 488.568 459.311 488.749V477.931C459.778 478.112 460.173 478.432 460.45 478.84V478.837Z" fill="#FFA412"/>
<path d="M471.326 469.063V475.358C471.326 475.859 471.174 476.323 470.909 476.712C470.632 477.12 470.237 477.44 469.77 477.621C469.626 477.677 469.48 477.717 469.324 477.745C469.278 477.755 469.231 477.761 469.184 477.767C469.159 477.767 469.131 477.773 469.107 477.776C469.082 477.776 469.054 477.78 469.029 477.783C468.985 477.783 468.945 477.786 468.901 477.786L368.658 477.77C367.366 477.77 366.302 476.746 366.236 475.47C366.236 475.429 366.236 475.386 366.236 475.345V469.051C366.236 469.01 366.236 468.966 366.239 468.926C366.239 468.892 366.243 468.858 366.246 468.823C366.342 467.796 367.089 466.949 368.064 466.7C368.089 466.694 368.113 466.688 368.138 466.682C368.306 466.644 368.484 466.625 368.661 466.625L468.904 466.641C468.979 466.641 469.05 466.644 469.122 466.65C469.153 466.654 469.187 466.657 469.219 466.663C469.256 466.669 469.293 466.675 469.331 466.682C469.483 466.71 469.633 466.75 469.776 466.806C470.24 466.987 470.638 467.307 470.915 467.715C471.177 468.104 471.329 468.568 471.329 469.069L471.326 469.063Z" fill="#FFB93E"/>
<path d="M422.1 477.777L368.394 477.768C367.242 477.768 366.29 476.744 366.23 475.467C366.23 475.427 366.23 475.383 366.23 475.343V469.048C366.23 469.008 366.23 468.964 366.234 468.924C366.234 468.889 366.237 468.855 366.24 468.821C366.327 467.772 367.021 466.909 367.921 466.682C367.952 466.673 367.983 466.667 368.014 466.66C368.139 466.636 368.266 466.623 368.397 466.623L415.507 466.629C415.513 466.654 415.519 466.682 415.525 466.707C416.285 469.976 418.038 474.459 422.078 477.755C422.085 477.761 422.091 477.768 422.1 477.774V477.777Z" fill="#FFA412"/>
<path d="M459.124 466.635H457.984V477.78H459.124V466.635Z" fill="#FFA412"/>
<path d="M455.268 466.635H454.129V477.78H455.268V466.635Z" fill="#FFA412"/>
<path d="M450.643 466.635H449.504V477.78H450.643V466.635Z" fill="#FFA412"/>
<path d="M443.557 466.635H442.418V477.78H443.557V466.635Z" fill="#FFA412"/>
<path d="M436.057 466.633H434.918V477.777H436.057V466.633Z" fill="#FFA412"/>
<path d="M424.565 466.633H423.426V477.777H424.565V466.633Z" fill="#FFA412"/>
<path d="M413.807 466.628H412.668V477.773H413.807V466.628Z" fill="#FFA412"/>
<path d="M404.198 466.628H403.059V477.773H404.198V466.628Z" fill="#FFA412"/>
<path d="M462.796 466.639H461.656V477.783H462.796V466.639Z" fill="#FFA412"/>
<path d="M465.219 466.639H464.08V477.783H465.219V466.639Z" fill="#FFA412"/>
<path d="M467.563 466.639H466.424V477.783H467.563V466.639Z" fill="#FFA412"/>
<path d="M469.324 466.676V477.743C469.181 477.767 469.041 477.783 468.895 477.78H468.182V466.635H468.895C469.041 466.635 469.184 466.648 469.324 466.673V466.676Z" fill="#FFA412"/>
<path d="M470.907 467.709V476.712C470.63 477.119 470.231 477.44 469.768 477.621V466.803C470.235 466.983 470.63 467.304 470.907 467.712V467.709Z" fill="#FFA412"/>
<path d="M159.817 488.353H116.879V491.992H159.817V488.353Z" fill="#FFA412"/>
<path d="M405.03 477.47H368.408V493.888H405.03V477.47Z" fill="#FFA412"/>
<path d="M410.581 487.97L412.981 490.174L412.645 493.368L398.605 492.96L397.27 487.017L410.581 487.97Z" fill="#FFA412"/>
<path d="M178.838 201.004C178.81 200.273 178.244 192.378 166.221 191.967C166.221 191.967 170.651 192.627 172.793 195.002C172.793 195.002 169.129 192.058 165.851 193.091C162.573 194.125 160.646 199.868 160.627 201.758C160.608 203.647 162.43 209.736 164.509 210.253C165.297 210.449 166.206 210.396 167.027 210.253C166.473 211.119 165.932 212.071 165.412 213.136C160.615 222.982 165.561 232.608 169.624 231.543C172.229 230.862 172.964 235.307 172.964 235.307L198.27 214.82C198.27 214.82 188.974 195.588 178.832 201.001L178.838 201.004Z" fill="#2C3A64"/>
<path opacity="0.5" d="M299.75 352.699L300.335 356.413C320.031 407.554 306.35 498.582 306.789 500.032L388.792 500.138C363.349 380.364 299.75 352.696 299.75 352.696V352.699Z" fill="#AFCDFB"/>
<path d="M187.648 491.116L182.272 493.118C182.272 493.118 158.924 460.736 156.051 432.249C155.537 427.162 155.708 422.234 156.82 417.683C156.82 417.683 156.592 416.379 156.191 414.075C156.007 413.001 155.777 411.706 155.518 410.221C154.759 405.872 153.716 399.92 152.521 393.146C149.775 377.553 146.214 357.623 143.449 342.97L144.897 342.506L160.568 337.451L163.805 327.165L175.473 324.093C175.473 324.093 178.079 329.192 180.41 353.281C180.84 356.44 181.232 359.924 181.525 363.703C182.434 375.237 182.499 389.541 180.413 405.897C179.878 410.084 179.202 414.405 178.365 418.847C177.752 422.103 177.658 426.54 177.917 431.636C179.093 454.924 187.642 491.119 187.642 491.119L187.648 491.116Z" fill="#2B478B"/>
<path d="M181.53 363.702L156.193 414.077C156.009 413.003 155.779 411.708 155.52 410.223C154.761 405.875 153.718 399.922 152.523 393.149C149.777 377.555 146.216 357.626 143.451 342.973L144.899 342.509L160.57 337.453L163.807 327.168L175.475 324.095C175.475 324.095 178.081 329.194 180.412 353.283C180.842 356.443 181.234 359.926 181.527 363.705L181.53 363.702Z" fill="#233862"/>
<path d="M170.379 330.56L169.794 325.529C159.966 328.138 133.711 318.235 133.711 318.235C133.711 318.235 124.191 326.603 125.439 346.664C126.05 356.454 127.164 398.06 128.328 410.372C128.748 414.833 129.116 418.008 129.268 419.278C129.268 419.284 129.268 419.288 129.268 419.291C129.315 419.677 129.178 420.044 128.982 420.38C127.27 423.288 125.85 426.317 124.686 429.414C113.261 459.857 126.445 497.347 126.445 497.347L129.866 495.968C129.866 495.968 137.368 454.247 143.464 435.815C144.5 432.689 145.49 430.233 146.399 428.764C149.049 424.486 151.508 417.498 153.743 409.183C157.964 393.465 161.358 373.019 163.621 357.239C163.932 357.254 170.379 330.56 170.379 330.56Z" fill="#2B478B"/>
<path d="M183.858 268.324C184.549 265.802 185.688 263.81 186.868 262.303C187.03 262.06 187.195 261.814 187.438 261.612C189.389 259.293 191.301 258.318 191.301 258.318C192.278 257.911 193.334 258.399 194.433 259.579V259.62C195.329 260.557 196.304 261.979 197.241 263.769C197.281 263.81 197.321 263.85 197.321 263.891C197.524 264.258 197.729 264.663 197.972 265.111C198.053 265.192 198.094 265.313 198.134 265.397C198.582 266.334 199.027 267.309 199.476 268.327C204.478 279.229 209.808 295.743 214.241 300.665C216.152 302.782 224.9 306.928 231.854 310.02C236.857 312.217 240.926 313.842 240.926 313.842C240.926 313.842 245.941 312.865 247.086 313.842C248.232 314.82 253.671 320.346 252.506 322.16C251.342 323.972 245.76 320.66 244.599 320.346C243.438 320.034 240.194 318.764 240.194 318.764C240.194 318.764 239.87 318.764 239.301 318.724C237.511 318.602 233.159 318.356 228.237 317.827C220.834 317.096 212.046 315.794 208.55 313.637C203.221 310.384 194.476 300.416 188.782 290.451C188.621 290.208 188.499 289.962 188.375 289.72C185.405 284.431 183.332 279.185 183.167 274.995C183.045 272.433 183.328 270.235 183.858 268.324Z" fill="#FFB27D"/>
<path d="M189.157 269.547C186.072 270.976 182.346 271.95 177.841 272.196C160.947 273.121 157.111 258.312 156.414 248.481C158.848 247.6 160.981 247.684 162.211 247.75C163.409 247.815 164.66 247.94 165.691 248.067C167.758 246.987 171.469 241.745 173.617 232.972L174.345 233.311L186.536 239.043C186.536 239.043 185.241 243.009 184.285 246.806C183.538 249.776 183.002 252.647 183.451 253.45C184.413 253.839 184.989 254.085 184.989 254.085C184.989 254.085 184.989 254.088 184.992 254.097C185.113 254.409 187.765 261.164 189.16 269.547H189.157Z" fill="#FFB27D"/>
<path d="M186.53 239.042C186.53 239.042 185.235 243.005 184.28 246.806C177.154 244.817 174.99 237.327 174.34 233.311L186.53 239.042Z" fill="#ED985F"/>
<path d="M188.034 243.239C188.034 243.239 170.987 239.295 173.605 228.714C176.227 218.136 175.791 210.499 186.786 212.573C197.781 214.643 198.889 219.203 198.874 222.948C198.858 226.693 192.536 243.993 188.034 243.239Z" fill="#FFB27D"/>
<path d="M199.832 216.943C197.998 213.108 195.841 213.313 194.493 213.992C186.483 206.58 173.056 208.438 173.056 208.438C170.034 215.745 169.047 222.926 169.047 222.926C169.047 222.926 171.665 225.607 179.258 225.547C181.577 225.529 183.909 224.464 186.028 222.998C181.938 227.12 177.138 229.629 177.138 229.629C186.639 227.811 193.011 216.809 193.665 215.642C194.471 216.831 196.009 219.362 196.14 221.497C196.317 224.402 195.318 230.04 196.98 230.254C196.98 230.254 202.58 222.693 199.832 216.943Z" fill="#2C3A64"/>
<path d="M199.519 268.309C199.045 266.892 196.508 262.329 195.36 260.299C194.946 259.564 194.37 258.936 193.676 258.459C192.306 257.519 189.585 255.897 184.981 254.089C184.981 254.089 184.981 254.092 184.984 254.101C185.099 254.521 188.175 265.663 187.051 268.041C185.912 270.46 164.317 262.653 163.134 260.872C162.19 259.443 162.162 251.881 162.19 248.937C162.193 248.205 162.203 247.757 162.203 247.757C162.203 247.757 154.14 246.664 149.607 248.498C149.607 248.498 151.397 252.386 152.054 256.672C152.117 257.08 152.169 257.488 152.207 257.896C152.294 258.761 152.322 259.624 152.272 260.467C152.207 261.582 151.631 262.568 150.713 263.534C149.878 264.421 148.745 265.292 147.466 266.229C146.628 266.833 145.729 267.472 144.798 268.159C144.72 273.209 145.075 281.511 144.141 290.368C143.904 292.615 143.157 294.763 141.981 296.669C141.517 297.428 140.981 298.147 140.384 298.82C135.624 304.162 127.178 314.805 129.033 321.433C129.17 327.681 181.877 335.893 180.75 329.029C180.75 329.029 188.67 290.854 192.95 281.639C193.106 281.303 193.246 280.973 193.37 280.633C194.74 276.997 194.51 273.256 194.046 269.909C196.462 268.194 199.506 268.309 199.506 268.309H199.519Z" fill="#699DEE"/>
<path d="M166.567 316.202C156.169 316.093 147.369 305.297 141.986 296.671C143.163 294.766 143.907 292.614 144.147 290.37C145.081 281.51 144.726 273.208 144.804 268.162C145.734 267.474 146.634 266.835 147.471 266.232C148.754 265.298 149.884 264.423 150.718 263.536C159.233 277.924 180.66 316.354 166.564 316.205L166.567 316.202Z" fill="#4A75CB"/>
<path d="M146.339 500.141H119.268C119.268 500.141 118.618 496.016 120.034 492.884C121.388 489.88 123.511 488.514 123.004 484.881C124.725 486.652 127.527 488.635 131.44 488.109C131.92 488.887 134.535 493.046 136.138 494.198C137.906 495.468 145.794 495.017 146.339 500.141Z" fill="#233862"/>
<path d="M204.465 500.143H177.394C177.394 500.143 176.382 495.825 178.16 492.886C179.732 490.287 179.131 488.805 177.964 486.654C179.19 487.155 180.778 487.613 182.524 487.513C183.872 487.435 185.298 486.825 186.55 486.097C187.714 487.426 192.704 493.079 194.264 494.2C196.032 495.47 203.92 495.019 204.465 500.143Z" fill="#233862"/>
<path d="M207.475 345.977L213.91 330.284C214.747 328.236 216.995 327.174 219.08 327.75C221.21 323.744 224.145 320.488 227.473 318.203C230.978 315.79 234.916 314.458 238.801 314.476C240.853 314.486 242.895 314.872 244.847 315.672C253.996 319.42 258.093 330.978 254.737 342.325L255.238 342.531C255.238 342.531 256.801 342.422 259.425 342.422C267.709 342.422 286.543 343.524 299.758 352.701C299.758 352.701 300.589 353.585 300.62 354.936C300.636 355.382 300.561 355.883 300.34 356.415C300.34 356.415 279.131 342.68 259.512 356.795C258.308 357.657 257.14 358.457 256.001 359.201L254.242 363.494C251.325 370.617 243.113 374.05 235.994 371.133L218.028 363.771L214.283 362.236C207.942 359.64 204.876 352.321 207.478 345.98L207.475 345.977ZM242.307 333.257L249.626 336.258C251.615 337.071 252.661 339.234 252.147 341.264L252.932 341.585C255.908 331.243 252.278 320.818 244.109 317.468C242.964 316.998 241.784 316.69 240.591 316.537C236.831 316.042 232.912 317.054 229.388 319.252C226.041 321.337 223.056 324.491 220.905 328.454L221.985 328.896C223.043 327.093 225.303 326.287 227.293 327.1L234.614 330.101C235.184 328.703 236.545 327.856 237.97 327.856C238.422 327.856 238.882 327.943 239.324 328.124L240.339 328.541C242.179 329.294 243.066 331.414 242.31 333.251L242.307 333.257Z" fill="#C94C43"/>
<path d="M255.998 359.199C257.137 358.458 258.305 357.654 259.51 356.792C279.128 342.678 300.337 356.412 300.337 356.412C300.558 355.88 300.633 355.379 300.617 354.934C297.647 352.979 286.521 346.472 272.731 348.695C256.574 351.301 253.651 353.548 255.998 359.199Z" fill="#B23B38"/>
<path d="M214.28 362.236L218.025 363.77C212.412 360.707 219.363 347.76 223.429 339.212C227.495 330.663 233.643 334.57 233.643 334.57C235.053 331.706 238.069 331.859 238.069 331.859C238.228 329.097 240.333 328.543 240.333 328.543L239.318 328.126C238.876 327.946 238.412 327.858 237.964 327.858C236.538 327.858 235.177 328.705 234.608 330.103L227.286 327.102C225.297 326.289 223.037 327.099 221.978 328.898L220.898 328.456C223.049 324.496 226.034 321.34 229.381 319.254C232.905 317.056 236.824 316.044 240.585 316.539C239.996 316.063 239.365 315.4 238.795 314.472C234.91 314.457 230.972 315.786 227.467 318.199C224.139 320.484 221.203 323.74 219.074 327.746C216.988 327.17 214.74 328.235 213.903 330.28L207.468 345.973C204.866 352.314 207.932 359.633 214.273 362.229L214.28 362.236Z" fill="#B23B38"/>
<path d="M143.671 261.899C143.752 250.103 149.611 248.475 149.611 248.475C149.732 248.435 149.854 248.394 150.019 248.354C151.036 248.192 152.092 248.883 153.191 250.225C154.573 251.893 156.039 254.617 157.543 257.911C159.862 263.159 162.303 269.952 164.578 276.704C165.839 280.406 167.059 284.107 168.28 287.525C168.971 289.598 169.662 291.553 170.312 293.343C171.573 296.758 172.713 299.526 173.727 301.275C174.378 302.415 176.249 303.999 178.73 305.789C183.042 308.921 189.345 312.703 194.84 315.795C197.119 317.096 199.273 318.276 201.063 319.253C202.567 319.577 210.215 321.205 213.795 320.392C217.823 319.455 224.576 324.296 224.576 324.296C224.576 324.296 225.307 325.843 222.705 326.899C220.102 327.998 216.441 331.82 210.583 329.501C206.392 327.873 201.959 326.734 199.802 326.208C198.949 326.046 198.46 325.924 198.46 325.924C196.182 325.476 193.458 324.866 190.488 324.215H190.447C185.364 322.995 179.667 321.532 174.867 319.904C171.489 318.724 168.563 317.463 166.571 316.202C166.368 316.081 166.203 315.956 166.001 315.795C161.241 312.336 155.588 302.169 151.195 291.267C150.585 289.76 150.015 288.257 149.446 286.794C147.413 281.343 145.785 275.973 144.81 271.337C144.2 268.57 143.792 266.048 143.712 263.975C143.671 263.243 143.631 262.552 143.671 261.902V261.899Z" fill="#FFB27D"/>
<path d="M158.854 258.48C151.025 256.319 143.656 261.882 143.656 261.882C143.756 250.106 149.618 248.493 149.618 248.493C152.553 246.806 156.037 252.154 158.857 258.48H158.854Z" fill="#699DEE"/>
<path d="M334.561 491.322V497.617C334.561 498.118 334.408 498.582 334.144 498.971C333.867 499.379 333.471 499.7 333.004 499.88C332.861 499.936 332.712 499.977 332.559 500.005C332.419 500.03 332.276 500.042 332.13 500.042L231.887 500.027C230.595 500.027 229.53 499.002 229.465 497.726C229.465 497.686 229.465 497.642 229.465 497.601V491.307C229.465 491.266 229.465 491.226 229.468 491.182C229.53 490.003 230.445 489.038 231.603 488.901C231.697 488.888 231.793 488.882 231.89 488.882L332.133 488.897C332.279 488.897 332.422 488.91 332.562 488.935C332.715 488.963 332.864 489.003 333.007 489.059C333.471 489.24 333.87 489.561 334.144 489.968C334.405 490.354 334.561 490.821 334.561 491.322Z" fill="#FFB93E"/>
<path d="M285.335 500.033L231.632 500.023C230.48 500.023 229.528 498.999 229.469 497.723C229.469 497.682 229.469 497.639 229.469 497.598V491.304C229.469 491.263 229.469 491.223 229.472 491.179C229.525 489.999 230.344 489.034 231.38 488.897C231.464 488.885 231.548 488.879 231.635 488.882L278.745 488.888C278.745 488.888 278.745 488.9 278.748 488.903C279.501 492.185 281.254 496.711 285.338 500.033H285.335Z" fill="#FFA412"/>
<path d="M322.362 488.896H321.223V500.041H322.362V488.896Z" fill="#FFA412"/>
<path d="M318.507 488.896H317.367V500.041H318.507V488.896Z" fill="#FFA412"/>
<path d="M313.878 488.896H312.738V500.041H313.878V488.896Z" fill="#FFA412"/>
<path d="M306.792 488.892H305.652V500.036H306.792V488.892Z" fill="#FFA412"/>
<path d="M299.298 488.892H298.158V500.036H299.298V488.892Z" fill="#FFA412"/>
<path d="M287.803 488.889H286.664V500.034H287.803V488.889Z" fill="#FFA412"/>
<path d="M277.042 488.889H275.902V500.034H277.042V488.889Z" fill="#FFA412"/>
<path d="M267.436 488.887H266.297V500.031H267.436V488.887Z" fill="#FFA412"/>
<path d="M326.034 488.896H324.895V500.041H326.034V488.896Z" fill="#FFA412"/>
<path d="M328.458 488.896H327.318V500.041H328.458V488.896Z" fill="#FFA412"/>
<path d="M330.8 488.896H329.66V500.041H330.8V488.896Z" fill="#FFA412"/>
<path d="M332.562 488.937V500.004C332.422 500.029 332.279 500.041 332.133 500.041H331.42V488.896H332.133C332.279 488.896 332.422 488.909 332.559 488.934L332.562 488.937Z" fill="#FFA412"/>
<path d="M334.145 489.969V498.972C333.868 499.38 333.47 499.701 333.006 499.881V489.063C333.473 489.244 333.868 489.565 334.145 489.972V489.969Z" fill="#FFA412"/>
<path d="M316.944 480.192V486.487C316.944 486.988 316.792 487.452 316.527 487.841C316.25 488.249 315.852 488.569 315.388 488.75C315.245 488.806 315.098 488.846 314.943 488.875C314.896 488.884 314.849 488.89 314.803 488.896C314.765 488.903 314.728 488.906 314.691 488.906C314.672 488.906 314.653 488.906 314.635 488.909C314.597 488.909 314.557 488.909 314.516 488.909L214.274 488.893C212.982 488.893 211.917 487.869 211.852 486.593C211.852 486.552 211.852 486.509 211.852 486.468V480.174C211.852 480.133 211.852 480.09 211.855 480.049C211.92 478.773 212.985 477.749 214.277 477.749L314.519 477.764C314.563 477.764 314.603 477.764 314.647 477.767C314.75 477.773 314.849 477.786 314.946 477.801C315.098 477.829 315.248 477.87 315.391 477.926C315.463 477.954 315.534 477.985 315.603 478.019C315.646 478.041 315.687 478.063 315.727 478.085C315.73 478.085 315.737 478.088 315.74 478.094C315.78 478.119 315.821 478.144 315.861 478.172C315.87 478.175 315.877 478.181 315.88 478.184C315.917 478.209 315.954 478.234 315.989 478.262C316.076 478.328 316.157 478.396 316.232 478.474C316.256 478.496 316.278 478.521 316.3 478.545C316.303 478.549 316.309 478.552 316.312 478.558C316.328 478.573 316.34 478.586 316.353 478.605C316.353 478.605 316.359 478.611 316.362 478.614C316.387 478.642 316.409 478.673 316.434 478.701C316.468 478.745 316.499 478.788 316.53 478.832C316.792 479.218 316.944 479.685 316.944 480.186V480.192Z" fill="#FFB93E"/>
<path d="M267.717 488.903L214.011 488.893C212.859 488.893 211.907 487.869 211.848 486.593C211.848 486.552 211.848 486.509 211.848 486.468V480.174C211.848 480.133 211.848 480.09 211.851 480.049C211.91 478.773 212.859 477.749 214.014 477.749L261.124 477.755C261.143 477.839 261.164 477.926 261.186 478.013C261.967 481.263 263.729 485.643 267.695 488.884C267.702 488.89 267.711 488.896 267.717 488.903Z" fill="#FFA412"/>
<path d="M304.745 477.764H303.605V488.909H304.745V477.764Z" fill="#FFA412"/>
<path d="M300.887 477.764H299.748V488.909H300.887V477.764Z" fill="#FFA412"/>
<path d="M296.26 477.764H295.121V488.909H296.26V477.764Z" fill="#FFA412"/>
<path d="M289.171 477.762H288.031V488.906H289.171V477.762Z" fill="#FFA412"/>
<path d="M281.678 477.762H280.539V488.906H281.678V477.762Z" fill="#FFA412"/>
<path d="M270.186 477.756H269.047V488.901H270.186V477.756Z" fill="#FFA412"/>
<path d="M259.425 477.756H258.285V488.901H259.425V477.756Z" fill="#FFA412"/>
<path d="M249.819 477.753H248.68V488.898H249.819V477.753Z" fill="#FFA412"/>
<path d="M308.417 477.764H307.277V488.909H308.417V477.764Z" fill="#FFA412"/>
<path d="M310.839 477.764H309.699V488.909H310.839V477.764Z" fill="#FFA412"/>
<path d="M313.182 477.764H312.043V488.909H313.182V477.764Z" fill="#FFA412"/>
<path d="M314.945 477.805V488.871C314.805 488.896 314.662 488.912 314.516 488.909H313.803V477.764H314.516C314.662 477.764 314.805 477.777 314.942 477.802L314.945 477.805Z" fill="#FFA412"/>
<path d="M316.528 478.837V487.837C316.251 488.245 315.853 488.565 315.389 488.746V477.928C315.856 478.109 316.251 478.429 316.528 478.837Z" fill="#FFA412"/>
<path d="M330.537 469.307V475.598C330.537 476.1 330.385 476.566 330.12 476.953C329.843 477.36 329.448 477.681 328.981 477.858C328.838 477.914 328.691 477.955 328.536 477.983C328.396 478.008 328.256 478.02 328.109 478.02L227.863 478.005C227.474 478.005 227.107 477.911 226.78 477.746C226.048 477.379 225.525 476.651 225.448 475.801C225.448 475.77 225.441 475.735 225.441 475.701C225.441 475.661 225.441 475.617 225.441 475.577V469.282C225.441 469.242 225.441 469.198 225.445 469.157C225.504 467.978 226.422 467.013 227.58 466.876C227.673 466.863 227.77 466.857 227.866 466.857L328.112 466.873C328.259 466.873 328.402 466.885 328.539 466.913C328.691 466.941 328.841 466.981 328.981 467.038C329.448 467.218 329.843 467.539 330.12 467.946C330.382 468.333 330.537 468.799 330.537 469.301V469.307Z" fill="#FFB93E"/>
<path d="M281.311 478.017L227.605 478.007C227.256 478.007 226.929 477.914 226.637 477.749C225.983 477.381 225.519 476.653 225.448 475.803C225.448 475.772 225.441 475.738 225.441 475.704C225.441 475.663 225.441 475.619 225.441 475.579V469.284C225.441 469.244 225.441 469.2 225.445 469.16C225.497 467.98 226.316 467.015 227.353 466.878C227.437 466.866 227.521 466.859 227.608 466.859L274.718 466.866C274.718 466.866 274.718 466.878 274.721 466.884C275.455 470.078 277.14 474.461 281.003 477.755C281.102 477.842 281.205 477.929 281.311 478.013V478.017Z" fill="#FFA412"/>
<path d="M318.337 466.878H317.197V478.023H318.337V466.878Z" fill="#FFA412"/>
<path d="M314.481 466.878H313.342V478.023H314.481V466.878Z" fill="#FFA412"/>
<path d="M309.852 466.878H308.713V478.023H309.852V466.878Z" fill="#FFA412"/>
<path d="M302.766 466.875H301.627V478.02H302.766V466.875Z" fill="#FFA412"/>
<path d="M295.272 466.875H294.133V478.02H295.272V466.875Z" fill="#FFA412"/>
<path d="M283.778 466.875H282.639V478.02H283.778V466.875Z" fill="#FFA412"/>
<path d="M273.016 466.873H271.877V478.018H273.016V466.873Z" fill="#FFA412"/>
<path d="M263.411 466.873H262.271V478.018H263.411V466.873Z" fill="#FFA412"/>
<path d="M322.009 466.878H320.869V478.023H322.009V466.878Z" fill="#FFA412"/>
<path d="M324.436 466.878H323.297V478.023H324.436V466.878Z" fill="#FFA412"/>
<path d="M326.774 466.882H325.635V478.026H326.774V466.882Z" fill="#FFA412"/>
<path d="M328.537 466.918V477.985C328.397 478.01 328.254 478.023 328.107 478.023H327.395V466.878H328.107C328.254 466.878 328.397 466.89 328.534 466.918H328.537Z" fill="#FFA412"/>
<path d="M330.12 467.951V476.954C329.843 477.362 329.444 477.683 328.98 477.86V467.042C329.447 467.223 329.843 467.544 330.12 467.951Z" fill="#FFA412"/>
<path d="M323.174 458.179V464.474C323.174 464.975 323.021 465.442 322.757 465.828C322.48 466.236 322.084 466.557 321.617 466.734C321.474 466.79 321.328 466.83 321.172 466.859C321.125 466.868 321.079 466.874 321.032 466.88C321.007 466.88 320.979 466.887 320.954 466.89C320.929 466.89 320.901 466.893 320.876 466.896C320.833 466.896 320.789 466.899 320.749 466.899L220.506 466.883C219.214 466.883 218.149 465.859 218.084 464.583C218.084 464.542 218.084 464.499 218.084 464.458V458.164C218.084 458.123 218.084 458.08 218.087 458.039C218.152 456.763 219.217 455.739 220.509 455.739L320.752 455.754C320.898 455.754 321.041 455.767 321.178 455.792C321.331 455.82 321.48 455.86 321.623 455.916C322.087 456.097 322.486 456.417 322.763 456.825C323.027 457.214 323.177 457.678 323.177 458.179H323.174Z" fill="#FFB93E"/>
<path d="M273.948 466.893L220.242 466.883C219.087 466.883 218.137 465.859 218.078 464.583C218.078 464.542 218.078 464.499 218.078 464.458V458.164C218.078 458.123 218.078 458.08 218.081 458.039C218.14 456.763 219.09 455.739 220.245 455.739L267.354 455.745C268.105 459.02 269.851 463.546 273.926 466.874C273.932 466.88 273.942 466.887 273.948 466.893Z" fill="#FFA412"/>
<path d="M310.975 455.753H309.836V466.898H310.975V455.753Z" fill="#FFA412"/>
<path d="M307.118 455.75H305.979V466.894H307.118V455.75Z" fill="#FFA412"/>
<path d="M302.491 455.75H301.352V466.894H302.491V455.75Z" fill="#FFA412"/>
<path d="M295.401 455.75H294.262V466.894H295.401V455.75Z" fill="#FFA412"/>
<path d="M287.909 455.746H286.77V466.891H287.909V455.746Z" fill="#FFA412"/>
<path d="M276.417 455.746H275.277V466.891H276.417V455.746Z" fill="#FFA412"/>
<path d="M265.655 455.744H264.516V466.888H265.655V455.744Z" fill="#FFA412"/>
<path d="M256.05 455.744H254.91V466.888H256.05V455.744Z" fill="#FFA412"/>
<path d="M314.647 455.753H313.508V466.898H314.647V455.753Z" fill="#FFA412"/>
<path d="M317.069 455.753H315.93V466.898H317.069V455.753Z" fill="#FFA412"/>
<path d="M319.413 455.753H318.273V466.898H319.413V455.753Z" fill="#FFA412"/>
<path d="M321.176 455.79V466.857C321.036 466.882 320.892 466.894 320.746 466.898H320.033V455.753H320.746C320.892 455.753 321.036 455.765 321.173 455.79H321.176Z" fill="#FFA412"/>
<path d="M322.759 456.823V465.823C322.481 466.231 322.083 466.551 321.619 466.732V455.914C322.086 456.095 322.481 456.415 322.759 456.823Z" fill="#FFA412"/>
<path d="M261.479 476.747L269.446 474.35L268.107 466.897C268.107 466.897 262.121 462.044 261.131 455.747L221.586 465.606V488.169H231.613V497.137H269.62V488.91C269.62 488.91 264.206 487.833 261.476 476.744L261.479 476.747Z" fill="#FFA412"/>
<path d="M312.613 363.769C312.613 363.769 351.159 394.634 364.701 439.462C364.701 439.462 355.47 405.125 312.613 363.769Z" fill="white"/>
<path d="M327.891 399.616C327.891 399.616 347.104 450.673 347.5 487.014C347.5 487.014 353.031 462.188 327.891 399.616Z" fill="white"/>
<path d="M315.205 396.765C315.205 396.765 324.336 433.084 325.064 447.404C325.064 447.404 325.584 427.895 315.205 396.765Z" fill="white"/>
<path d="M186.107 236.24C186.107 236.24 189.846 236.448 191.742 237.597C191.742 237.597 188.975 239.698 186.107 236.24Z" fill="white"/>
</g>
<defs>
<clipPath id="clip0_118_2776">
<rect width="695" height="500.15" fill="white"/>
</clipPath>
</defs>
</svg>
