<svg width="19" height="20" viewBox="0 0 19 20" fill="none" xmlns="http://www.w3.org/2000/svg">
<path fill-rule="evenodd" clip-rule="evenodd" d="M8.44863 14.0414V10.9826H5.38877C4.22027 10.9826 4.22027 9.20436 5.38877 9.20436H8.44863V6.1445C8.44863 4.976 10.2269 4.976 10.2269 6.1445V9.20436H13.2857C14.4541 9.20436 14.4541 10.9826 13.2857 10.9826H10.2269V14.0414C10.2269 15.2099 8.44863 15.2099 8.44863 14.0414ZM9.33739 19.2856C14.4146 19.2856 18.5302 15.1704 18.5302 10.0928C18.5302 5.0155 14.4146 0.899902 9.33739 0.899902C4.26013 0.899902 0.144531 5.0155 0.144531 10.0928C0.144531 15.17 4.26013 19.2856 9.33739 19.2856Z" fill="#218225"/>
</svg>
