<svg width="34" height="34" viewBox="0 0 34 34" fill="none" xmlns="http://www.w3.org/2000/svg">
<circle cx="17" cy="17" r="17" fill="#F5F5F5"/>
<path d="M12.5291 16.9765C12.5283 16.5189 12.6176 16.0656 12.7921 15.6426C12.9666 15.2195 13.2227 14.835 13.5459 14.511L19.2359 8.82103C19.367 8.68989 19.5449 8.61621 19.7304 8.61621C19.9159 8.61621 20.0937 8.68989 20.2249 8.82103C20.356 8.95218 20.4297 9.13005 20.4297 9.31551C20.4297 9.50098 20.356 9.67885 20.2249 9.80999L14.5349 15.5C14.1436 15.8918 13.9238 16.4228 13.9238 16.9765C13.9238 17.5302 14.1436 18.0612 14.5349 18.453L20.2249 24.143C20.356 24.2741 20.4297 24.452 20.4297 24.6375C20.4297 24.8229 20.356 25.0008 20.2249 25.1319C20.0937 25.2631 19.9159 25.3368 19.7304 25.3368C19.5449 25.3368 19.367 25.2631 19.2359 25.1319L13.5459 19.4419C13.2227 19.1179 12.9666 18.7334 12.7921 18.3104C12.6176 17.8874 12.5283 17.4341 12.5291 16.9765Z" fill="black"/>
</svg>
