<svg width="42" height="42" viewBox="0 0 42 42" fill="none" xmlns="http://www.w3.org/2000/svg">
<circle cx="21" cy="21" r="21" fill="white"/>
<path d="M10.2728 16.9734C10.0719 16.6008 9.97885 16.1796 10.004 15.7571C10.0292 15.3346 10.1717 14.9275 10.4154 14.5814C10.8137 13.997 11.347 13.5174 11.9703 13.1831L18.9625 9.54394C19.6497 9.18658 20.413 9 21.1876 9C21.9622 9 22.7254 9.18658 23.4127 9.54394L30.404 13.1859C31.0272 13.5202 31.5606 13.9998 31.9588 14.5842C32.2026 14.9303 32.345 15.3374 32.3702 15.7599C32.3954 16.1824 32.3023 16.6036 32.1015 16.9762C31.8852 17.3852 31.5609 17.7271 31.1638 17.9646C30.7667 18.2021 30.312 18.3261 29.8493 18.3231H12.5258C12.0627 18.326 11.6076 18.2017 11.2103 17.9637C10.813 17.7256 10.4887 17.3831 10.2728 16.9734ZM31.4415 29.5092C31.4415 29.0148 31.2451 28.5406 30.8954 28.1909C30.5458 27.8413 30.0716 27.6449 29.5771 27.6449V20.1875H27.7128V27.6449H24.9163V20.1875H23.0519V27.6449H19.3232V20.1875H17.4589V27.6449H14.6624V20.1875H12.798V27.6449C12.3036 27.6449 11.8294 27.8413 11.4797 28.1909C11.1301 28.5406 10.9337 29.0148 10.9337 29.5092C10.6864 29.5092 10.4493 29.6074 10.2745 29.7823C10.0997 29.9571 10.0015 30.1942 10.0015 30.4414C10.0015 30.6886 10.0997 30.9257 10.2745 31.1005C10.4493 31.2754 10.6864 31.3736 10.9337 31.3736H31.4415C31.6887 31.3736 31.9258 31.2754 32.1006 31.1005C32.2754 30.9257 32.3737 30.6886 32.3737 30.4414C32.3737 30.1942 32.2754 29.9571 32.1006 29.7823C31.9258 29.6074 31.6887 29.5092 31.4415 29.5092Z" fill="#FEC844"/>
<path fill-rule="evenodd" clip-rule="evenodd" d="M30.8959 28.1909C31.2455 28.5406 31.4419 29.0148 31.4419 29.5092C31.6892 29.5092 31.9263 29.6074 32.1011 29.7823C32.2759 29.9571 32.3741 30.1942 32.3741 30.4414C32.3741 30.6886 32.2759 30.9257 32.1011 31.1006C31.9263 31.2754 31.6892 31.3736 31.4419 31.3736H10.9341C10.6869 31.3736 10.4498 31.2754 10.275 31.1006C10.1002 30.9257 10.002 30.6886 10.002 30.4414C10.002 30.1942 10.1002 29.9571 10.275 29.7823C10.4498 29.6074 10.6869 29.5092 10.9341 29.5092C10.9341 29.0148 11.1305 28.5406 11.4802 28.1909C11.8298 27.8413 12.304 27.6449 12.7985 27.6449V20.1875H14.6628V27.6449H17.4593V20.1875H19.3237V27.6449H23.0524V20.1875H24.9167V27.6449H27.7132V20.1875H29.5776V27.6449C30.072 27.6449 30.5462 27.8413 30.8959 28.1909Z" fill="#FEC844"/>
</svg>
