<svg width="42" height="42" viewBox="0 0 42 42" fill="none" xmlns="http://www.w3.org/2000/svg">
<circle cx="21" cy="21" r="21" fill="white"/>
<path d="M27.7113 13.3735H14.6609C13.4252 13.375 12.2405 13.8665 11.3668 14.7403C10.493 15.6141 10.0015 16.7987 10 18.0344H32.3722C32.3707 16.7987 31.8791 15.6141 31.0054 14.7403C30.1316 13.8665 28.947 13.375 27.7113 13.3735Z" fill="#FEC844"/>
<path d="M10 25.4918C10.0015 26.7275 10.493 27.9121 11.3668 28.7859C12.2405 29.6596 13.4252 30.1512 14.6609 30.1526H27.7113C28.947 30.1512 30.1316 29.6596 31.0054 28.7859C31.8791 27.9121 32.3707 26.7275 32.3722 25.4918V19.8987H10V25.4918ZM16.5252 25.0257C16.5252 25.3022 16.4432 25.5726 16.2896 25.8025C16.1359 26.0325 15.9175 26.2117 15.662 26.3175C15.4065 26.4234 15.1254 26.451 14.8542 26.3971C14.5829 26.3431 14.3338 26.21 14.1382 26.0144C13.9427 25.8189 13.8095 25.5697 13.7556 25.2985C13.7016 25.0273 13.7293 24.7461 13.8351 24.4906C13.941 24.2351 14.1202 24.0167 14.3501 23.8631C14.5801 23.7094 14.8504 23.6274 15.127 23.6274C15.4978 23.6274 15.8534 23.7748 16.1157 24.037C16.3779 24.2992 16.5252 24.6549 16.5252 25.0257Z" fill="white"/>
<path fill-rule="evenodd" clip-rule="evenodd" d="M11.3668 28.7861C10.493 27.9123 10.0015 26.7276 10 25.492V19.8989H32.3722V25.492C32.3707 26.7276 31.8791 27.9123 31.0054 28.7861C30.1316 29.6598 28.947 30.1513 27.7113 30.1528H14.6609C13.4252 30.1513 12.2405 29.6598 11.3668 28.7861ZM16.2896 25.8027C16.4432 25.5728 16.5252 25.3024 16.5252 25.0259C16.5252 24.655 16.3779 24.2994 16.1157 24.0372C15.8534 23.7749 15.4978 23.6276 15.127 23.6276C14.8504 23.6276 14.5801 23.7096 14.3501 23.8633C14.1202 24.0169 13.941 24.2353 13.8351 24.4908C13.7293 24.7463 13.7016 25.0274 13.7556 25.2987C13.8095 25.5699 13.9427 25.819 14.1382 26.0146C14.3338 26.2101 14.5829 26.3433 14.8542 26.3973C15.1254 26.4512 15.4065 26.4235 15.662 26.3177C15.9175 26.2119 16.1359 26.0327 16.2896 25.8027Z" fill="#FEC844"/>
</svg>
