<svg width="77" height="31" viewBox="0 0 77 31" fill="none" xmlns="http://www.w3.org/2000/svg">
<path d="M61.4665 22.6952C63.1164 20.799 64.1151 18.3224 64.1151 15.6097C64.1151 12.897 63.1164 10.4204 61.4631 8.52083C61.4158 8.46837 61.3501 8.43626 61.2796 8.43123C61.2092 8.42619 61.1395 8.44863 61.0852 8.49383L59.6378 9.70849C59.5231 9.80634 59.5096 9.97841 59.6074 10.0931C60.9031 11.5642 61.6858 13.4942 61.6858 15.6097C61.6858 17.7252 60.903 19.6552 59.6108 21.1263C59.5129 21.241 59.5264 21.4131 59.6412 21.5109L61.0886 22.7256C61.2 22.82 61.3687 22.8065 61.4665 22.6952ZM66.1936 26.6563C68.687 23.6636 70.1884 19.8138 70.1884 15.6097C70.1884 11.4056 68.687 7.55585 66.1936 4.55969C66.1473 4.50488 66.0813 4.47057 66.0099 4.46425C65.9385 4.45793 65.8674 4.48011 65.8123 4.52595L64.3648 5.74061C64.2501 5.83508 64.2366 6.00716 64.3311 6.1185C66.4702 8.6929 67.7591 12.0028 67.7591 15.6097C67.7591 19.2166 66.4702 22.5265 64.3311 25.0975C64.2366 25.2122 64.2501 25.3809 64.3648 25.4754L65.8123 26.6901C65.927 26.7846 66.0991 26.7711 66.1936 26.6563ZM70.8835 30.5938C74.244 26.4978 76.2617 21.2545 76.2617 15.5422C76.2617 9.86707 74.271 4.65754 70.951 0.571569C70.9284 0.543497 70.9005 0.520221 70.8688 0.503113C70.8371 0.486005 70.8023 0.475409 70.7665 0.471951C70.7306 0.468492 70.6945 0.47224 70.6601 0.482975C70.6257 0.493709 70.5938 0.511212 70.5663 0.534454L69.1189 1.74911C69.0075 1.84358 68.9906 2.01229 69.0817 2.12363C72.0543 5.79122 73.8324 10.4575 73.8324 15.5422C73.8324 20.664 72.0273 25.3607 69.0176 29.0384C68.9232 29.1531 68.94 29.3218 69.0547 29.4163L70.5022 30.631C70.6169 30.7288 70.789 30.7119 70.8835 30.5938ZM56.1524 13.4166C55.5797 13.4166 55.0304 13.6441 54.6255 14.049C54.2205 14.454 53.993 15.0033 53.993 15.576C53.993 16.1487 54.2205 16.6979 54.6255 17.1029C55.0304 17.5078 55.5797 17.7354 56.1524 17.7354C56.7251 17.7354 57.2743 17.5078 57.6793 17.1029C58.0843 16.6979 58.3118 16.1487 58.3118 15.576C58.3118 15.0033 58.0843 14.454 57.6793 14.049C57.2743 13.6441 56.7251 13.4166 56.1524 13.4166Z" fill="white"/>
<path d="M0.867187 15.7303L5.1059 13.2831L5.1059 18.1776L0.867187 15.7303Z" fill="white"/>
<g clip-path="url(#clip0_80_8298)">
<path d="M16.3773 27.9758L41.6213 27.9758C43.942 27.9758 45.8287 26.0891 45.8287 23.7685L45.8287 6.9391C45.8287 4.61849 43.942 2.73176 41.6213 2.73176L20.5846 2.73176L12.1699 11.1464L12.1699 23.7685C12.1699 26.0891 14.0567 27.9758 16.3773 27.9758ZM28.9993 13.2501L28.9993 17.4575L24.792 17.4575L24.792 13.2501L28.9993 13.2501ZM28.9993 6.9391L28.9993 11.1464L24.792 11.1464L24.792 9.04278C24.792 7.87918 25.732 6.9391 26.8956 6.9391L28.9993 6.9391ZM37.414 11.1464L37.414 6.9391L39.5177 6.9391C40.6813 6.9391 41.6213 7.87918 41.6213 9.04277L41.6213 11.1464L37.414 11.1464ZM37.414 17.4575L37.414 13.2501L41.6213 13.2501L41.6213 17.4575L37.414 17.4575ZM37.414 23.7685L37.414 19.5611L41.6213 19.5611L41.6213 21.6648C41.6213 22.8284 40.6813 23.7685 39.5177 23.7685L37.414 23.7685ZM31.103 23.7685L31.103 6.9391L35.3103 6.9391L35.3103 23.7685L31.103 23.7685ZM26.8956 23.7685C25.732 23.7685 24.792 22.8284 24.792 21.6648L24.792 19.5611L28.9993 19.5611L28.9993 23.7685L26.8956 23.7685Z" fill="#F5CA40"/>
</g>
<defs>
<clipPath id="clip0_80_8298">
<rect width="25.2441" height="33.6588" fill="white" transform="translate(12.1699 27.9761) rotate(-90)"/>
</clipPath>
</defs>
</svg>
