<svg width="50" height="50" viewBox="0 0 50 50" fill="none" xmlns="http://www.w3.org/2000/svg">
<circle cx="25" cy="25" r="25" fill="white"/>
<path d="M19.6398 11.8185H21.2464C24.1126 11.8185 25.7386 10.0646 26.4187 7.34996C26.4552 7.19752 26.3612 7.04433 26.2088 7.0078C26.1206 6.98671 26.0276 7.00893 25.9587 7.06774C24.2755 8.55173 21.6358 10.2007 18.5992 10.2119C17.509 10.2135 16.5874 11.0199 16.441 12.1002C16.2998 13.2728 17.1358 14.3378 18.3084 14.4791C19.3727 14.6072 20.3673 13.9277 20.6349 12.8896H19.6398C19.344 12.8896 19.1043 12.6499 19.1043 12.3541C19.1043 12.0583 19.344 11.8185 19.6398 11.8185Z" fill="#FEC844"/>
<path d="M39.2332 30.6557C38.7394 30.2921 37.3989 29.447 36.7917 29.0662L32.1715 32.4466C31.7103 32.7855 31.4521 33.335 31.4855 33.9065L31.5927 35.6041L33.391 36.6854C33.7232 36.8826 34.102 36.9875 34.4883 36.989H36.442C37.1022 36.9877 37.7248 36.6813 38.1284 36.1589L35.5477 35.3556C35.2669 35.2627 35.1146 34.9597 35.2074 34.6789C35.2979 34.4056 35.5881 34.2527 35.8647 34.3327L38.6816 35.2067L39.7179 33.3077C40.2325 32.4252 40.0268 31.2991 39.2332 30.6557ZM38.8658 32.1408C38.7337 32.4054 38.4122 32.513 38.1475 32.3809C38.1474 32.3808 38.1473 32.3808 38.1471 32.3807L37.6116 32.1129C37.3469 31.9807 37.2395 31.6589 37.3717 31.3942C37.5039 31.1295 37.8257 31.0221 38.0904 31.1543L38.6259 31.4221C38.8906 31.5541 38.9981 31.8757 38.866 32.1404C38.8659 32.1405 38.8658 32.1407 38.8658 32.1408Z" fill="#FEC844"/>
<path d="M24.7478 22.3586C25.4306 22.6826 26.2377 22.5289 26.5092 22.0222C26.8278 21.4331 26.2773 20.7905 25.7782 20.5581C25.2357 20.3026 24.3445 20.2866 24.0168 20.8938C23.6971 21.4867 24.2326 22.1154 24.7478 22.3586Z" fill="#FEC844"/>
<path d="M10 27.8848C10 30.1668 10.5018 31.7305 11.5354 32.6656C12.6922 33.7126 14.5703 34.066 17.444 33.7784C17.578 33.7666 17.7115 33.8047 17.8189 33.8856C17.8382 33.9 19.9332 35.4145 24.5185 35.9238C28.021 36.3132 29.8568 35.8258 30.5166 35.5822L30.4164 33.9723C30.3612 33.0371 30.7848 32.1379 31.5411 31.5849L35.9523 28.3588C33.0422 25.4425 30.3129 22.3511 27.7799 19.1019C27.7406 19.0493 27.7113 18.99 27.6937 18.9268C27.0291 16.5923 25.0722 13.7213 21.7111 12.9865C21.3638 14.7226 19.6749 15.8484 17.9388 15.5011C17.0175 15.3168 16.2236 14.7376 15.7666 13.9168C15.433 14.228 15.0661 14.5498 14.657 14.8668C16.1995 15.6176 17.5189 16.7585 18.4845 18.1765C18.6472 18.4241 18.5784 18.7566 18.3308 18.9193C18.0832 19.082 17.7507 19.0132 17.588 18.7656C16.549 17.2733 15.0917 16.122 13.3995 15.4565H13.3963C12.3886 15.0254 11.3368 14.7058 10.2596 14.5033C10.2103 14.4951 10.1597 14.5086 10.121 14.5402C10.055 14.5957 10.016 14.6769 10.0138 14.763C9.967 15.5274 10.0393 16.2943 10.228 17.0364C10.4962 18.2285 11.3148 19.2224 12.4334 19.7142C14.8139 20.7531 16.2566 20.2818 16.2705 20.2775C16.5513 20.1846 16.8543 20.3369 16.9472 20.6177C17.0369 20.8887 16.8982 21.1825 16.632 21.2854C16.2077 21.4136 15.7655 21.472 15.3226 21.4584C14.1748 21.4355 13.0443 21.1749 12.0022 20.6931C11.1957 20.3438 10.5023 19.7767 10 19.0553V23.8008C10.1882 23.4332 10.403 23.0799 10.6427 22.7436C10.8203 22.5071 11.156 22.4594 11.3925 22.637C11.6287 22.8145 11.6766 23.1497 11.4995 23.3862C10.5812 24.7122 10.0609 26.273 10 27.8848ZM23.0731 20.3872C23.6119 19.3767 25.0305 19.0178 26.2361 19.5898C27.3072 20.0948 28.0623 21.3866 27.4539 22.5262C26.8578 23.6417 25.3503 23.8281 24.2899 23.3257C23.2172 22.8207 22.4642 21.5301 23.0731 20.3872Z" fill="#FEC844"/>
</svg>
