<svg width="111" height="127" viewBox="0 0 111 127" fill="none" xmlns="http://www.w3.org/2000/svg">
<circle cx="55.5" cy="55.5" r="55.5" fill="#FFF1CF"/>
<path d="M23.5527 57.5728H31.3301V76.8558H23.5527V57.5728Z" fill="#218225"/>
<path d="M31.3303 44.2384H23.5529L23.5527 29.8889C23.5527 28.8458 24.3985 28 25.4417 28H29.4409C30.4841 28 31.3299 28.8458 31.3299 29.8889V39.2528L31.3303 44.2384Z" fill="#218225"/>
<path d="M23.5527 93.8671H31.3301V125.528H23.5527V93.8671Z" fill="#218225"/>
<path d="M23.5547 93.8671H31.332V103.207L23.5547 103.617V93.8671Z" fill="#052548"/>
<path d="M23.5547 62.5822H31.332V72.3024L23.5547 71.4988V62.5822Z" fill="#052548"/>
<path d="M78.8398 57.5728H86.6172V76.8557H78.8398V57.5728Z" fill="#218225"/>
<path d="M86.6172 47.1819H78.8398V29.8889C78.8398 28.8458 79.6856 28 80.7288 28H84.728C85.7712 28 86.617 28.8458 86.617 29.8889L86.6172 47.1819Z" fill="#218225"/>
<path d="M78.8398 93.8671H86.6172V125.528H78.8398V93.8671Z" fill="#218225"/>
<path d="M78.8398 93.8671H86.6172V103.01L78.8398 103.617V93.8671Z" fill="#052548"/>
<path d="M96.0264 73.6249L12.8908 69.8168C11.4316 69.75 10.3027 68.5128 10.3696 67.0535L11.379 45.0164C11.4458 43.5572 12.683 42.4283 14.1423 42.4952L97.2779 46.3032C98.7371 46.37 99.866 47.6073 99.7991 49.0665L98.7897 71.1038C98.7227 72.563 97.4857 73.6917 96.0264 73.6249Z" fill="#218225"/>
<path d="M92.2492 98.8313L18.524 101.342C17.23 101.386 16.1405 100.238 16.0908 98.7782L15.34 76.7306C15.2903 75.2707 16.2991 74.0514 17.5932 74.0073L91.3184 71.4967C92.6124 71.4526 93.7019 72.6005 93.7516 74.0604L94.5024 96.108C94.5519 97.5679 93.5433 98.7873 92.2492 98.8313Z" fill="#FEC844"/>
<path d="M53.8025 127C53.7079 127 53.6127 126.991 53.5186 126.972C53.1318 126.896 52.7919 126.668 52.5745 126.339L50.2128 122.766C49.7646 122.088 49.9512 121.175 50.6292 120.727C51.3074 120.278 52.2205 120.465 52.6687 121.143L54.2069 123.47L58.2133 120.738C58.885 120.28 59.8004 120.454 60.2584 121.125C60.7164 121.797 60.5431 122.712 59.8716 123.17L54.6316 126.744C54.3855 126.912 54.0961 127 53.8025 127Z" fill="#6FD7A3"/>
<path d="M11.9522 127C11.8604 127 11.768 126.991 11.6761 126.974C11.2344 126.889 10.8555 126.608 10.6475 126.209L9.06956 123.185C8.69357 122.464 8.97301 121.575 9.69358 121.199C10.4145 120.823 11.3033 121.102 11.6793 121.823L12.3973 123.199L14.4915 121.39C15.1067 120.859 16.0361 120.927 16.5673 121.542C17.0987 122.157 17.0308 123.086 16.4158 123.618L12.9146 126.642C12.6447 126.875 12.3025 127 11.9522 127Z" fill="#6FD7A3"/>
<path d="M96.2921 127C96.2002 127 96.1078 126.992 96.016 126.974C95.5742 126.89 95.1951 126.608 94.9873 126.209L93.4094 123.185C93.0334 122.464 93.3128 121.575 94.0336 121.199C94.7536 120.823 95.6431 121.102 96.0191 121.823L96.7369 123.2L98.8311 121.39C99.4463 120.859 100.376 120.927 100.907 121.542C101.439 122.157 101.37 123.086 100.756 123.618L97.2542 126.642C96.9846 126.875 96.6423 127 96.2921 127Z" fill="#6FD7A3"/>
<path d="M103.85 127H6.32136C5.50856 127 4.84961 126.341 4.84961 125.528C4.84961 124.715 5.50856 124.056 6.32136 124.056H103.85C104.663 124.056 105.321 124.715 105.321 125.528C105.321 126.341 104.662 127 103.85 127Z" fill="#9BE69D"/>
<path d="M27.3588 56.2518C27.3588 55.5948 27.475 54.953 27.7075 54.3263C27.94 53.6895 28.2786 53.1133 28.7234 52.5978C29.1782 52.0722 29.7291 51.6578 30.376 51.3546C31.0229 51.0412 31.7557 50.8845 32.5745 50.8845C33.5448 50.8845 34.3838 51.1069 35.0913 51.5517C35.7989 51.9863 36.3245 52.5473 36.6681 53.2346L35.3339 54.1292C35.1317 53.6945 34.874 53.3509 34.5607 53.0982C34.2574 52.8455 33.9239 52.6686 33.56 52.5675C33.2062 52.4664 32.8575 52.4159 32.5138 52.4159C31.9478 52.4159 31.4525 52.5321 31.0279 52.7646C30.6034 52.987 30.2446 53.2852 29.9515 53.6592C29.6684 54.0331 29.4511 54.4526 29.2995 54.9176C29.158 55.3825 29.0872 55.8475 29.0872 56.3125C29.0872 56.828 29.1732 57.3283 29.345 57.8135C29.5168 58.2886 29.7544 58.7131 30.0576 59.0871C30.3709 59.451 30.7399 59.739 31.1644 59.9513C31.5889 60.1636 32.0539 60.2697 32.5593 60.2697C32.903 60.2697 33.2618 60.2091 33.6358 60.0878C34.0098 59.9665 34.3534 59.7795 34.6668 59.5268C34.9902 59.264 35.2429 58.9203 35.4249 58.4958L36.8349 59.2994C36.6126 59.8351 36.2638 60.2899 35.7888 60.6639C35.3238 61.0379 34.7982 61.3209 34.2119 61.513C33.6358 61.705 33.0647 61.8011 32.4986 61.8011C31.7406 61.8011 31.0482 61.6444 30.4215 61.331C29.7948 61.0076 29.254 60.5831 28.7992 60.0574C28.3443 59.5217 27.9905 58.9254 27.7378 58.2683C27.4851 57.6012 27.3588 56.9291 27.3588 56.2518ZM41.7416 61.8617C41.1149 61.8617 40.5539 61.7556 40.0586 61.5433C39.5633 61.3209 39.1337 61.0177 38.7698 60.6336C38.4161 60.2495 38.1431 59.8149 37.9511 59.3297C37.759 58.8344 37.663 58.3088 37.663 57.7528C37.663 57.1969 37.759 56.6713 37.9511 56.176C38.1431 55.6807 38.4161 55.2461 38.7698 54.8721C39.1337 54.488 39.5633 54.1898 40.0586 53.9776C40.564 53.7552 41.125 53.644 41.7416 53.644C42.3581 53.644 42.9141 53.7552 43.4094 53.9776C43.9147 54.1898 44.3443 54.488 44.6981 54.8721C45.062 55.2461 45.34 55.6807 45.532 56.176C45.7241 56.6713 45.8201 57.1969 45.8201 57.7528C45.8201 58.3088 45.7241 58.8344 45.532 59.3297C45.34 59.8149 45.062 60.2495 44.6981 60.6336C44.3443 61.0177 43.9147 61.3209 43.4094 61.5433C42.9141 61.7556 42.3581 61.8617 41.7416 61.8617ZM39.3763 57.768C39.3763 58.2734 39.4824 58.7283 39.6947 59.1326C39.907 59.5369 40.19 59.8553 40.5438 60.0878C40.8975 60.3202 41.2968 60.4365 41.7416 60.4365C42.1762 60.4365 42.5704 60.3202 42.9242 60.0878C43.2881 59.8452 43.5761 59.5217 43.7884 59.1174C44.0007 58.703 44.1068 58.2481 44.1068 57.7528C44.1068 57.2475 44.0007 56.7926 43.7884 56.3883C43.5761 55.984 43.2881 55.6656 42.9242 55.4331C42.5704 55.1905 42.1762 55.0692 41.7416 55.0692C41.2968 55.0692 40.8975 55.1905 40.5438 55.4331C40.19 55.6757 39.907 55.9991 39.6947 56.4034C39.4824 56.7977 39.3763 57.2525 39.3763 57.768ZM59.4288 61.7101H57.761V57.2677C57.761 56.5298 57.6397 55.989 57.3971 55.6454C57.1545 55.3017 56.8007 55.1299 56.3358 55.1299C55.8708 55.1299 55.4362 55.3067 55.0318 55.6605C54.6376 56.0042 54.3597 56.454 54.1979 57.0099V61.7101H52.5301V57.2677C52.5301 56.5298 52.4088 55.989 52.1663 55.6454C51.9237 55.3017 51.5749 55.1299 51.1201 55.1299C50.6551 55.1299 50.2205 55.3017 49.8162 55.6454C49.422 55.989 49.1389 56.4388 48.9671 56.9948V61.7101H47.2993V53.7805H48.8155V55.3724C49.1288 54.8165 49.5382 54.392 50.0436 54.0988C50.5591 53.7956 51.1454 53.644 51.8024 53.644C52.4594 53.644 52.9749 53.8158 53.3489 54.1595C53.733 54.5032 53.9705 54.9327 54.0615 55.4483C54.4051 54.862 54.8246 54.4172 55.3199 54.114C55.8253 53.8007 56.4015 53.644 57.0484 53.644C57.5133 53.644 57.9025 53.7299 58.2158 53.9017C58.5292 54.0736 58.7718 54.3111 58.9436 54.6144C59.1154 54.9075 59.2367 55.2511 59.3075 55.6454C59.3883 56.0295 59.4288 56.4388 59.4288 56.8735V61.7101ZM61.3506 61.7101V53.7805H63.0184V61.7101H61.3506ZM61.3506 52.4765V50.642H63.0184V52.4765H61.3506ZM72.1335 61.7101H70.4657V57.2677C70.4657 56.5298 70.3444 55.989 70.1019 55.6454C69.8694 55.3017 69.5207 55.1299 69.0557 55.1299C68.7322 55.1299 68.4088 55.2107 68.0853 55.3724C67.772 55.5342 67.489 55.7565 67.2363 56.0396C66.9836 56.3125 66.8016 56.6309 66.6904 56.9948V61.7101H65.0226V53.7805H66.5388V55.3724C66.741 55.0187 67.0038 54.7154 67.3272 54.4627C67.6608 54.1999 68.0348 53.9978 68.4492 53.8563C68.8636 53.7147 69.3033 53.644 69.7683 53.644C70.2434 53.644 70.6325 53.7299 70.9358 53.9017C71.2491 54.0736 71.4917 54.3111 71.6635 54.6144C71.8455 54.9075 71.9668 55.2511 72.0274 55.6454C72.0982 56.0295 72.1335 56.4388 72.1335 56.8735V61.7101ZM77.2079 61.7859C76.6722 61.7859 76.1819 61.6798 75.7372 61.4675C75.2925 61.2451 74.9084 60.9469 74.5849 60.5729C74.2716 60.199 74.0239 59.7694 73.842 59.2842C73.6701 58.799 73.5842 58.2886 73.5842 57.7528C73.5842 57.1868 73.6752 56.6561 73.8571 56.1609C74.0391 55.6656 74.2918 55.2309 74.6152 54.8569C74.9488 54.4728 75.3379 54.1747 75.7827 53.9624C76.2274 53.7501 76.7227 53.644 77.2685 53.644C77.9053 53.644 78.4613 53.7956 78.9363 54.0988C79.4215 54.4021 79.8208 54.7963 80.1341 55.2815V53.7805H81.6048V61.4827C81.6048 62.2509 81.4178 62.9028 81.0438 63.4385C80.68 63.9742 80.1796 64.3836 79.5428 64.6666C78.906 64.9497 78.1884 65.0912 77.3898 65.0912C76.5105 65.0912 75.7827 64.9396 75.2065 64.6363C74.6304 64.3331 74.1402 63.9187 73.7358 63.393L74.6759 62.5137C74.9791 62.9382 75.3683 63.2616 75.8433 63.484C76.3285 63.7064 76.844 63.8176 77.3898 63.8176C77.8447 63.8176 78.2642 63.7317 78.6483 63.5598C79.0425 63.3981 79.3558 63.1403 79.5883 62.7866C79.8208 62.4429 79.937 62.0083 79.937 61.4827V60.2697C79.654 60.7448 79.2648 61.1188 78.7696 61.3917C78.2743 61.6545 77.7537 61.7859 77.2079 61.7859ZM77.7537 60.4365C78.0064 60.4365 78.249 60.3961 78.4815 60.3152C78.714 60.2242 78.9262 60.108 79.1183 59.9665C79.3204 59.8149 79.4923 59.6481 79.6338 59.4661C79.7753 59.2741 79.8764 59.0719 79.937 58.8597V56.7825C79.8056 56.4388 79.6186 56.1406 79.376 55.8879C79.1334 55.6251 78.8605 55.423 78.5573 55.2815C78.2541 55.14 77.9458 55.0692 77.6324 55.0692C77.2685 55.0692 76.94 55.1501 76.6469 55.3118C76.3639 55.4634 76.1213 55.6706 75.9191 55.9334C75.717 56.1861 75.5603 56.4742 75.4491 56.7977C75.3379 57.1211 75.2823 57.4547 75.2823 57.7983C75.2823 58.1622 75.343 58.5008 75.4643 58.8142C75.5957 59.1275 75.7726 59.4105 75.9949 59.6632C76.2173 59.9058 76.4801 60.0979 76.7834 60.2394C77.0866 60.3708 77.4101 60.4365 77.7537 60.4365Z" fill="white"/>
<path d="M46.1825 82.9123C46.0814 82.8011 45.9348 82.6849 45.7428 82.5636C45.5507 82.4322 45.3233 82.3109 45.0605 82.1997C44.7977 82.0885 44.5147 81.9976 44.2114 81.9268C43.9082 81.8561 43.5949 81.8207 43.2714 81.8207C42.5639 81.8207 42.0382 81.9521 41.6946 82.2149C41.3509 82.4777 41.1791 82.8416 41.1791 83.3065C41.1791 83.6502 41.2751 83.9231 41.4671 84.1253C41.6592 84.3173 41.9523 84.4791 42.3465 84.6105C42.7407 84.7419 43.236 84.8834 43.8324 85.035C44.5602 85.2068 45.1919 85.414 45.7276 85.6566C46.2633 85.8891 46.6727 86.2024 46.9557 86.5967C47.2387 86.9909 47.3803 87.5114 47.3803 88.1583C47.3803 88.7041 47.2792 89.1742 47.077 89.5684C46.8749 89.9626 46.5918 90.286 46.228 90.5387C45.8641 90.7813 45.4446 90.9633 44.9695 91.0846C44.4945 91.1957 43.984 91.2513 43.4382 91.2513C42.9025 91.2513 42.3667 91.1957 41.831 91.0846C41.3054 90.9734 40.8 90.8116 40.3148 90.5994C39.8398 90.377 39.4001 90.1091 38.9958 89.7958L39.769 88.3403C39.9004 88.4717 40.0874 88.6182 40.33 88.78C40.5827 88.9316 40.8708 89.0781 41.1942 89.2197C41.5278 89.3612 41.8866 89.4825 42.2707 89.5835C42.6649 89.6745 43.0642 89.72 43.4685 89.72C44.1457 89.72 44.6612 89.6038 45.015 89.3713C45.3789 89.1287 45.5608 88.785 45.5608 88.3403C45.5608 87.9764 45.4446 87.6883 45.2121 87.476C44.9796 87.2537 44.641 87.0667 44.1963 86.9151C43.7515 86.7634 43.2209 86.6118 42.6043 86.4602C41.8967 86.2681 41.3054 86.0609 40.8304 85.8386C40.3553 85.6061 39.9965 85.313 39.7539 84.9592C39.5214 84.5953 39.4051 84.1354 39.4051 83.5795C39.4051 82.8719 39.577 82.2755 39.9206 81.7904C40.2643 81.2951 40.7293 80.9261 41.3155 80.6835C41.9119 80.4308 42.579 80.3045 43.3169 80.3045C43.8021 80.3045 44.262 80.3601 44.6966 80.4713C45.1313 80.5724 45.5356 80.7139 45.9096 80.8958C46.2937 81.0778 46.6424 81.285 46.9557 81.5174L46.1825 82.9123ZM52.4341 91.2968C51.8074 91.2968 51.2464 91.1907 50.7512 90.9784C50.2559 90.756 49.8263 90.4528 49.4624 90.0687C49.1086 89.6846 48.8357 89.25 48.6437 88.7648C48.4516 88.2695 48.3556 87.7439 48.3556 87.188C48.3556 86.632 48.4516 86.1064 48.6437 85.6111C48.8357 85.1159 49.1086 84.6812 49.4624 84.3072C49.8263 83.9231 50.2559 83.6249 50.7512 83.4127C51.2566 83.1903 51.8175 83.0791 52.4341 83.0791C53.0507 83.0791 53.6066 83.1903 54.1019 83.4127C54.6073 83.6249 55.0369 83.9231 55.3907 84.3072C55.7546 84.6812 56.0325 85.1159 56.2246 85.6111C56.4166 86.1064 56.5126 86.632 56.5126 87.188C56.5126 87.7439 56.4166 88.2695 56.2246 88.7648C56.0325 89.25 55.7546 89.6846 55.3907 90.0687C55.0369 90.4528 54.6073 90.756 54.1019 90.9784C53.6066 91.1907 53.0507 91.2968 52.4341 91.2968ZM50.0689 87.2031C50.0689 87.7085 50.175 88.1634 50.3873 88.5677C50.5995 88.972 50.8826 89.2904 51.2363 89.5229C51.5901 89.7554 51.9894 89.8716 52.4341 89.8716C52.8688 89.8716 53.263 89.7554 53.6167 89.5229C53.9806 89.2803 54.2687 88.9568 54.481 88.5525C54.6932 88.1381 54.7994 87.6833 54.7994 87.188C54.7994 86.6826 54.6932 86.2277 54.481 85.8234C54.2687 85.4191 53.9806 85.1007 53.6167 84.8682C53.263 84.6256 52.8688 84.5043 52.4341 84.5043C51.9894 84.5043 51.5901 84.6256 51.2363 84.8682C50.8826 85.1108 50.5995 85.4342 50.3873 85.8386C50.175 86.2328 50.0689 86.6876 50.0689 87.2031ZM61.5549 91.2968C60.9282 91.2968 60.3672 91.1907 59.8719 90.9784C59.3767 90.756 58.9471 90.4528 58.5832 90.0687C58.2294 89.6846 57.9565 89.25 57.7644 88.7648C57.5724 88.2695 57.4764 87.7439 57.4764 87.188C57.4764 86.632 57.5724 86.1064 57.7644 85.6111C57.9565 85.1159 58.2294 84.6812 58.5832 84.3072C58.9471 83.9231 59.3767 83.6249 59.8719 83.4127C60.3773 83.1903 60.9383 83.0791 61.5549 83.0791C62.1715 83.0791 62.7274 83.1903 63.2227 83.4127C63.7281 83.6249 64.1577 83.9231 64.5115 84.3072C64.8753 84.6812 65.1533 85.1159 65.3454 85.6111C65.5374 86.1064 65.6334 86.632 65.6334 87.188C65.6334 87.7439 65.5374 88.2695 65.3454 88.7648C65.1533 89.25 64.8753 89.6846 64.5115 90.0687C64.1577 90.4528 63.7281 90.756 63.2227 90.9784C62.7274 91.1907 62.1715 91.2968 61.5549 91.2968ZM59.1897 87.2031C59.1897 87.7085 59.2958 88.1634 59.5081 88.5677C59.7203 88.972 60.0033 89.2904 60.3571 89.5229C60.7109 89.7554 61.1102 89.8716 61.5549 89.8716C61.9895 89.8716 62.3837 89.7554 62.7375 89.5229C63.1014 89.2803 63.3895 88.9568 63.6017 88.5525C63.814 88.1381 63.9201 87.6833 63.9201 87.188C63.9201 86.6826 63.814 86.2277 63.6017 85.8234C63.3895 85.4191 63.1014 85.1007 62.7375 84.8682C62.3837 84.6256 61.9895 84.5043 61.5549 84.5043C61.1102 84.5043 60.7109 84.6256 60.3571 84.8682C60.0033 85.1108 59.7203 85.4342 59.5081 85.8386C59.2958 86.2328 59.1897 86.6876 59.1897 87.2031ZM74.2236 91.1452H72.5558V86.7028C72.5558 85.9649 72.4345 85.4241 72.1919 85.0805C71.9594 84.7368 71.6107 84.565 71.1457 84.565C70.8222 84.565 70.4988 84.6458 70.1753 84.8076C69.862 84.9693 69.579 85.1917 69.3263 85.4747C69.0736 85.7476 68.8916 86.066 68.7805 86.4299V91.1452H67.1127V83.2156H68.6288V84.8076C68.831 84.4538 69.0938 84.1505 69.4173 83.8979C69.7508 83.635 70.1248 83.4329 70.5392 83.2914C70.9537 83.1499 71.3933 83.0791 71.8583 83.0791C72.3334 83.0791 72.7225 83.165 73.0258 83.3369C73.3391 83.5087 73.5817 83.7462 73.7535 84.0495C73.9355 84.3426 74.0568 84.6863 74.1174 85.0805C74.1882 85.4646 74.2236 85.8739 74.2236 86.3086V91.1452Z" fill="white"/>
</svg>
