<svg width="55" height="55" viewBox="0 0 55 55" fill="none" xmlns="http://www.w3.org/2000/svg">
<g opacity="0.1">
<circle cx="27.0713" cy="27.0713" r="27.0713" fill="#B9F556"/>
<circle cx="27.0713" cy="27.0713" r="27.0713" fill="black" fill-opacity="0.2"/>
</g>
<path d="M36.789 18.0478C36.789 17.6644 36.4782 17.3536 36.0948 17.3536L29.8476 17.3536C29.4642 17.3536 29.1535 17.6644 29.1535 18.0478C29.1535 18.4311 29.4642 18.7419 29.8476 18.7419H35.4007V24.295C35.4007 24.6783 35.7115 24.9891 36.0948 24.9891C36.4782 24.9891 36.789 24.6783 36.789 24.295L36.789 18.0478ZM19.9264 35.1979L36.5856 18.5386L35.604 17.5569L18.9447 34.2162L19.9264 35.1979Z" fill="#2DB933"/>
<path d="M36.789 18.0478C36.789 17.6644 36.4782 17.3536 36.0948 17.3536L29.8476 17.3536C29.4642 17.3536 29.1535 17.6644 29.1535 18.0478C29.1535 18.4311 29.4642 18.7419 29.8476 18.7419H35.4007V24.295C35.4007 24.6783 35.7115 24.9891 36.0948 24.9891C36.4782 24.9891 36.789 24.6783 36.789 24.295L36.789 18.0478ZM19.9264 35.1979L36.5856 18.5386L35.604 17.5569L18.9447 34.2162L19.9264 35.1979Z" fill="black" fill-opacity="0.2"/>
</svg>
