<svg width="50" height="50" viewBox="0 0 50 50" fill="none" xmlns="http://www.w3.org/2000/svg">
<circle cx="25" cy="25" r="25" fill="white"/>
<path d="M19.7888 12.8815C19.4345 10.6779 17.9129 9.33059 17.8396 9.26612L17.5333 9L17.2261 9.26706C17.1537 9.33065 15.6321 10.6779 15.2779 12.8815C16.131 13.354 16.9089 13.9481 17.5333 14.6886C18.1578 13.9481 18.9356 13.3541 19.7888 12.8815Z" fill="#FEC844"/>
<path d="M17.5333 19.7956C17.5333 16.4505 14.8117 13.7289 11.4667 13.7289H11V16.0622C11 17.2912 11.3729 18.4325 12.0036 19.3892C14.1988 19.5399 16.1606 20.5491 17.5058 22.1289H17.5609C18.9061 20.5491 20.8679 19.5399 23.063 19.3892C23.6938 18.4325 24.0667 17.2912 24.0667 16.0622V13.7289H23.6C20.2549 13.7289 17.5333 16.4505 17.5333 19.7956Z" fill="#FEC844"/>
<path d="M17.5333 27.2622C17.5333 23.9172 14.8117 21.1956 11.4667 21.1956H11V23.5289C11 24.7579 11.3729 25.8991 12.0036 26.8559C14.1988 27.0066 16.1606 28.0158 17.5058 29.5956H17.5609C18.9061 28.0158 20.8679 27.0066 23.063 26.8559C23.6938 25.8991 24.0667 24.7579 24.0667 23.5289V21.1956H23.6C20.2549 21.1956 17.5333 23.9172 17.5333 27.2622Z" fill="#FEC844"/>
<path d="M34.7221 12.8815C34.3679 10.6779 32.8462 9.33059 32.7729 9.26612L32.4667 9L32.1595 9.26706C32.087 9.33065 30.5655 10.6779 30.2112 12.8815C31.0644 13.354 31.8422 13.9481 32.4667 14.6886C33.0911 13.9481 33.869 13.3541 34.7221 12.8815Z" fill="#FEC844"/>
<path d="M32.4667 19.7956C32.4667 16.4505 29.7451 13.7289 26.4 13.7289H25.9333V16.0622C25.9333 17.2912 26.3062 18.4325 26.937 19.3892C29.1321 19.5399 31.0939 20.5491 32.4391 22.1289H32.4942C33.8394 20.5491 35.8012 19.5399 37.9964 19.3892C38.6271 18.4325 39 17.2912 39 16.0622V13.7289H38.5333C35.1883 13.7289 32.4667 16.4505 32.4667 19.7956Z" fill="#FEC844"/>
<path d="M32.4667 27.2622C32.4667 23.9172 29.7451 21.1956 26.4 21.1956H25.9333V23.5289C25.9333 24.7579 26.3062 25.8991 26.937 26.8559C29.1321 27.0066 31.0939 28.0158 32.4391 29.5956H32.4942C33.8394 28.0158 35.8012 27.0066 37.9964 26.8559C38.6271 25.8991 39 24.7579 39 23.5289V21.1956H38.5333C35.1883 21.1956 32.4667 23.9172 32.4667 27.2622Z" fill="#FEC844"/>
<path d="M17.5333 34.7289C17.5333 31.3838 14.8117 28.6622 11.4667 28.6622H11V30.9956C11 34.1808 13.4761 36.772 16.6 37.0151V40.8578H18.4667V37.0151C21.5906 36.772 24.0667 34.1808 24.0667 30.9956V28.6622H23.6C20.2549 28.6622 17.5333 31.3838 17.5333 34.7289Z" fill="#FEC844"/>
<path d="M32.4667 34.7289C32.4667 31.3838 29.7451 28.6622 26.4 28.6622H25.9333V30.9956C25.9333 34.1808 28.4094 36.772 31.5333 37.0151V40.8578H33.4V37.0151C36.5239 36.772 39 34.1808 39 30.9956V28.6622H38.5333C35.1883 28.6622 32.4667 31.3838 32.4667 34.7289Z" fill="#FEC844"/>
</svg>
