<svg width="24" height="20" viewBox="0 0 24 20" fill="none" xmlns="http://www.w3.org/2000/svg">
<path d="M12 7.7898C14.0646 7.7898 15.7383 6.04599 15.7383 3.8949C15.7383 1.74381 14.0646 0 12 0C9.9354 0 8.26172 1.74381 8.26172 3.8949C8.26172 6.04599 9.9354 7.7898 12 7.7898Z" fill="#218225"/>
<path d="M19.5625 7.78976C20.8677 7.78976 21.9258 6.68735 21.9258 5.32746C21.9258 3.96758 20.8677 2.86517 19.5625 2.86517C18.2573 2.86517 17.1992 3.96758 17.1992 5.32746C17.1992 6.68735 18.2573 7.78976 19.5625 7.78976Z" fill="#218225"/>
<path d="M4.4375 7.78976C5.7427 7.78976 6.80078 6.68735 6.80078 5.32746C6.80078 3.96758 5.7427 2.86517 4.4375 2.86517C3.1323 2.86517 2.07422 3.96758 2.07422 5.32746C2.07422 6.68735 3.1323 7.78976 4.4375 7.78976Z" fill="#218225"/>
<path d="M6.76598 10.0009C5.8357 9.20683 4.99321 9.31195 3.91758 9.31195C2.30883 9.31195 1 10.6675 1 12.3334V17.2226C1 17.9461 1.56676 18.5344 2.26371 18.5344C5.27264 18.5344 4.91016 18.5911 4.91016 18.3992C4.91016 14.9347 4.5163 12.394 6.76598 10.0009Z" fill="#218225"/>
<path d="M13.0231 9.32981C11.1443 9.16654 9.51129 9.33169 8.10273 10.543C5.7456 12.5102 6.19922 15.1589 6.19922 18.3991C6.19922 19.2564 6.86867 19.9669 7.70398 19.9669C16.7739 19.9669 17.1349 20.2717 17.6727 19.0308C17.8491 18.6111 17.8008 18.7445 17.8008 14.7298C17.8008 11.5411 15.1508 9.32981 13.0231 9.32981Z" fill="#218225"/>
<path d="M20.0824 9.3119C19.0009 9.3119 18.1631 9.20786 17.234 10.0009C19.4669 12.3762 19.0898 14.7435 19.0898 18.3991C19.0898 18.5922 18.7889 18.5343 21.6912 18.5343C22.413 18.5343 23 17.925 23 17.176V12.3334C23 10.6675 21.6912 9.3119 20.0824 9.3119Z" fill="#218225"/>
</svg>
