<svg width="55" height="55" viewBox="0 0 55 55" fill="none" xmlns="http://www.w3.org/2000/svg">
<g opacity="0.1">
<circle cx="27.0713" cy="27.9226" r="27.0713" transform="rotate(-180 27.0713 27.9226)" fill="#F55656"/>
<circle cx="27.0713" cy="27.9226" r="27.0713" transform="rotate(-180 27.0713 27.9226)" fill="black" fill-opacity="0.2"/>
</g>
<path d="M17.3536 36.9461C17.3536 37.3295 17.6644 37.6403 18.0478 37.6403L24.295 37.6403C24.6783 37.6403 24.9891 37.3295 24.9891 36.9461C24.9891 36.5628 24.6783 36.252 24.295 36.252H18.7419V30.6989C18.7419 30.3155 18.4311 30.0048 18.0478 30.0048C17.6644 30.0048 17.3536 30.3155 17.3536 30.6989L17.3536 36.9461ZM34.2162 19.796L17.5569 36.4553L18.5386 37.437L35.1979 20.7777L34.2162 19.796Z" fill="#F55656"/>
<path d="M17.3536 36.9461C17.3536 37.3295 17.6644 37.6403 18.0478 37.6403L24.295 37.6403C24.6783 37.6403 24.9891 37.3295 24.9891 36.9461C24.9891 36.5628 24.6783 36.252 24.295 36.252H18.7419V30.6989C18.7419 30.3155 18.4311 30.0048 18.0478 30.0048C17.6644 30.0048 17.3536 30.3155 17.3536 30.6989L17.3536 36.9461ZM34.2162 19.796L17.5569 36.4553L18.5386 37.437L35.1979 20.7777L34.2162 19.796Z" fill="black" fill-opacity="0.2"/>
</svg>
