<svg width="43" height="42" viewBox="0 0 43 42" fill="none" xmlns="http://www.w3.org/2000/svg">
<circle cx="21.5383" cy="20.8923" r="20.6769" fill="white" fill-opacity="0.15"/>
<path d="M30.1448 19.8701H23.7257V13.451C23.7257 13.0254 23.5566 12.6172 23.2556 12.3162C22.9547 12.0153 22.5465 11.8462 22.1209 11.8462C21.6953 11.8462 21.2871 12.0153 20.9861 12.3162C20.6852 12.6172 20.5161 13.0254 20.5161 13.451V19.8701H14.097C13.6714 19.8701 13.2632 20.0392 12.9622 20.3401C12.6613 20.6411 12.4922 21.0493 12.4922 21.4749C12.4922 21.9005 12.6613 22.3087 12.9622 22.6097C13.2632 22.9106 13.6714 23.0797 14.097 23.0797H20.5161V29.4988C20.5161 29.9244 20.6852 30.3326 20.9861 30.6336C21.2871 30.9345 21.6953 31.1036 22.1209 31.1036C22.5465 31.1036 22.9547 30.9345 23.2556 30.6336C23.5566 30.3326 23.7257 29.9244 23.7257 29.4988V23.0797H30.1448C30.5704 23.0797 30.9786 22.9106 31.2796 22.6097C31.5805 22.3087 31.7496 21.9005 31.7496 21.4749C31.7496 21.0493 31.5805 20.6411 31.2796 20.3401C30.9786 20.0392 30.5704 19.8701 30.1448 19.8701Z" fill="white"/>
</svg>
