<svg width="88" height="88" viewBox="0 0 88 88" fill="none" xmlns="http://www.w3.org/2000/svg">
<g clip-path="url(#clip0_73_5796)">
<path d="M85.4219 88.0002H2.57812C1.15431 88.0002 0 86.8459 0 85.4221V36.9533C0 36.1864 0.341344 35.4592 0.931734 34.9694L42.3536 0.594373C43.3084 -0.197799 44.6918 -0.197799 45.6464 0.594373L87.0683 34.9694C87.6587 35.4592 88 36.1864 88 36.9533V85.4221C88 86.8459 86.8457 88.0002 85.4219 88.0002Z" fill="#2BCC31"/>
<path d="M87.0683 34.9692L45.6464 0.594172C45.1691 0.198 44.5845 0 44 0V88H85.4219C86.8457 88 88 86.8457 88 85.4219V36.9531C88 36.1862 87.6587 35.459 87.0683 34.9692Z" fill="#64DB68"/>
<path d="M73.2188 65.3125H14.7812C13.3574 65.3125 12.2031 64.1582 12.2031 62.7344V12.8906C12.2031 11.4668 13.3574 10.3125 14.7812 10.3125H73.2188C74.6426 10.3125 75.7969 11.4668 75.7969 12.8906V62.7344C75.7969 64.1582 74.6426 65.3125 73.2188 65.3125Z" fill="#DCF5FA"/>
<path d="M73.2188 10.3125H44V65.3125H73.2188C74.6426 65.3125 75.7969 64.1582 75.7969 62.7344V12.8906C75.7969 11.4668 74.6426 10.3125 73.2188 10.3125Z" fill="#BEDCE6"/>
<path d="M59.7491 31.4322C59.7443 31.4143 59.7391 31.3965 59.7338 31.3787C58.4602 27.1592 55.611 23.704 51.7106 21.6499C47.8111 19.5962 43.3489 19.2023 39.1457 20.54C35.1629 21.8077 31.8495 24.541 29.8158 28.2362C27.7814 31.9324 27.2465 36.1938 28.3094 40.2356C29.2299 43.7362 31.2178 46.7562 34.0582 48.9691C36.7928 51.0997 40.1991 52.3255 43.6495 52.4209C43.6659 52.4214 43.6819 52.4216 43.6978 52.4216C44.6251 52.4216 45.3893 51.683 45.415 50.7503C45.4412 49.8013 44.6933 49.0109 43.7444 48.9848C38.0626 48.8277 33.0825 44.8704 31.6336 39.3613C29.8889 32.7264 33.6464 25.8978 40.1881 23.8154C43.5071 22.7587 47.0303 23.07 50.1086 24.6913C53.1795 26.3086 55.4254 29.0263 56.4348 32.3452C57.0738 34.7619 56.864 37.0073 55.7346 39.8469C55.4247 40.626 54.4643 42.438 52.2426 42.438C51.8241 42.438 51.5011 42.1761 51.3456 42.02C50.9752 41.6476 50.7555 41.0991 50.7583 40.5524L50.7796 36.2475C50.783 36.1297 50.7866 36.0122 50.7866 35.8932C50.7866 35.8186 50.7837 35.7454 50.7825 35.6715L50.8219 27.7371C50.8265 26.788 50.0608 26.0145 49.1117 26.0099C49.1086 26.0099 49.1061 26.0099 49.103 26.0099C48.1578 26.0099 47.389 26.7739 47.3844 27.7202L47.3815 28.3127C46.2584 27.504 44.9114 27.049 43.4209 27.049C39.5713 27.049 35.5891 30.374 35.5891 35.9381C35.5891 41.0108 39.0328 45.1377 43.2656 45.1377C45.0593 45.1377 46.6864 44.4012 47.9657 43.1582C48.2149 43.6302 48.5316 44.0654 48.9093 44.4447C49.8274 45.3675 51.0113 45.8755 52.2429 45.8755C55.7776 45.8755 58.0143 43.4174 58.9291 41.1172C60.3381 37.5742 60.5911 34.587 59.7491 31.4322ZM43.2654 41.7005C41.2268 41.7005 39.0264 39.4976 39.0264 35.9384C39.0264 32.526 41.2608 30.4869 43.4208 30.4869C45.6708 30.4869 47.2599 32.5908 47.3452 35.6354L47.3423 36.2234C47.2214 39.2725 45.4393 41.7005 43.2654 41.7005Z" fill="#218225"/>
<path d="M45.4132 50.7504C45.4369 49.8895 44.8228 49.1611 44 49.0134V52.3933C44.7844 52.2526 45.3901 51.5787 45.4132 50.7504Z" fill="#218225"/>
<path d="M59.7319 31.3788C58.4583 27.1593 55.6091 23.7041 51.7088 21.65C49.2903 20.3762 46.6555 19.7417 44 19.7619V23.2013C46.1036 23.1817 48.1913 23.6828 50.1067 24.6915C53.1776 26.3088 55.4235 29.0265 56.4329 32.3454C57.072 34.7622 56.8621 37.0075 55.7327 39.8471C55.4228 40.6262 54.4624 42.4383 52.2407 42.4383C51.8222 42.4383 51.4993 42.1763 51.3437 42.0203C50.9733 41.6478 50.7537 41.0994 50.7564 40.5526L50.7777 36.2477C50.7812 36.1299 50.7848 36.0124 50.7848 35.8934C50.7848 35.8189 50.7818 35.7456 50.7806 35.6717L50.82 27.7373C50.8246 26.7882 50.0589 26.0148 49.1098 26.0101C49.1068 26.0101 49.1042 26.0101 49.1011 26.0101C48.1559 26.0101 47.3871 26.7741 47.3825 27.7204L47.3796 28.3129C46.4045 27.6108 45.2604 27.1758 44.0002 27.0733V30.5364C45.9382 30.8678 47.2656 32.8605 47.3433 35.6355L47.3404 36.2234C47.2337 38.9196 45.8274 41.1289 44.0002 41.6045V45.0948C45.502 44.9226 46.8621 44.2292 47.9636 43.1588C48.2128 43.6307 48.5296 44.0659 48.9072 44.4453C49.8254 45.3681 51.0092 45.8761 52.2409 45.8761C55.7755 45.8761 58.0123 43.418 58.927 41.1178C60.3362 37.5744 60.5892 34.5872 59.7472 31.4324C59.7424 31.4144 59.7374 31.3967 59.7319 31.3788Z" fill="#218225"/>
<path d="M85.4219 88H2.57812C1.15431 88 0 86.8457 0 85.4219V36.9531C0 36.0168 0.507719 35.1541 1.32619 34.6993C2.14466 34.2447 3.14531 34.2695 3.94041 34.7643L44 59.6977L84.0596 34.7643C84.8543 34.2695 85.8548 34.2447 86.6738 34.6993C87.4923 35.1541 88 36.0168 88 36.9531V85.4219C88 86.8457 86.8457 88 85.4219 88Z" fill="#96FF9A"/>
<path d="M86.6738 34.6993C85.8548 34.2447 84.8543 34.2695 84.0596 34.7643L44 59.6977V88H85.4219C86.8457 88 88 86.8457 88 85.4219V36.9531C88 36.0168 87.4923 35.1541 86.6738 34.6993Z" fill="#2BCC31"/>
</g>
<defs>
<clipPath id="clip0_73_5796">
<rect width="88" height="88" fill="white"/>
</clipPath>
</defs>
</svg>
