<svg width="85" height="85" viewBox="0 0 85 85" fill="none" xmlns="http://www.w3.org/2000/svg">
<g clip-path="url(#clip0_107_21061)">
<path d="M85.0004 31.6399V79.7086H20.3646C19.282 79.7086 18.4062 78.8312 18.4062 77.7503V25.0179C18.4062 23.9353 19.282 23.0596 20.3646 23.0596H44.1133C44.6314 23.0596 45.1291 23.2648 45.4968 23.6325L50.973 29.1087C51.3408 29.4764 51.8385 29.6816 52.3583 29.6816H83.0421C84.123 29.6818 85.0004 30.5592 85.0004 31.6399Z" fill="#218225"/>
<path d="M53.7992 39.2292C56.4357 39.2292 58.573 37.0919 58.573 34.4554C58.573 31.8189 56.4357 29.6816 53.7992 29.6816C51.1627 29.6816 49.0254 31.8189 49.0254 34.4554C49.0254 37.0919 51.1627 39.2292 53.7992 39.2292Z" fill="#218225"/>
<path d="M36.2767 45.724C37.1386 46.5843 36.5298 48.0585 35.3105 48.0585H20.2362C19.6188 48.0585 19.0082 48.0277 18.4062 47.9696V25.0179C18.4062 23.9353 19.282 23.0596 20.3646 23.0596H37.3833C38.1769 25.1135 38.613 27.3473 38.613 29.6818C38.613 34.7562 36.5556 39.3499 33.2308 42.6763L36.2767 45.724Z" fill="#34251C"/>
<path d="M84.9999 31.64V79.7086H78.4974V31.64C78.4974 30.559 77.6217 29.6816 76.5391 29.6816H83.0414C84.1225 29.6818 84.9999 30.5592 84.9999 31.64Z" fill="#218225"/>
<path d="M65.0282 55.1533L85.0001 79.7097H19.3364C18.7471 79.7097 18.1893 79.4442 17.8174 78.987L0.44269 57.6241C-0.597896 56.3447 0.312534 54.4307 1.96173 54.4307H63.509C64.0986 54.4307 64.6565 54.6961 65.0282 55.1533Z" fill="#2BCC31"/>
<path d="M85.0005 79.7091H76.5792L56.6086 55.1532C56.2357 54.6965 55.6782 54.4297 55.0898 54.4297H63.5095C64.0995 54.4297 64.657 54.6965 65.0282 55.1532L85.0005 79.7091Z" fill="#218225"/>
<path d="M70.1303 73.9501H52.8535C52.3195 73.9501 51.8161 73.7006 51.4925 73.2756L47.0649 67.4579C46.6364 66.8949 47.038 66.085 47.7454 66.085H65.0221C65.5562 66.085 66.0596 66.3345 66.3831 66.7595L70.8108 72.5772C71.2393 73.14 70.8378 73.9501 70.1303 73.9501Z" fill="#218225"/>
<path d="M70.13 73.9493H64.5717C65.2797 73.9493 65.6816 73.1403 65.2523 72.576L60.8245 66.7595C60.5013 66.3337 59.9984 66.084 59.4648 66.084H65.0216C65.5568 66.084 66.0597 66.3337 66.3829 66.7595L70.8107 72.576C71.2382 73.1405 70.8381 73.9493 70.13 73.9493Z" fill="#EFE2DD"/>
<path d="M42.4997 75.2323H34.6518C33.9434 75.2323 33.3691 74.658 33.3691 73.9496C33.3691 73.2412 33.9434 72.667 34.6518 72.667H42.4997C43.2081 72.667 43.7823 73.2412 43.7823 73.9496C43.7823 74.658 43.2081 75.2323 42.4997 75.2323Z" fill="#218225"/>
<path d="M39.6352 70.9774H36.3041C35.5957 70.9774 35.0215 70.4031 35.0215 69.6947C35.0215 68.9864 35.5957 68.4121 36.3041 68.4121H39.6352C40.3436 68.4121 40.9179 68.9864 40.9179 69.6947C40.918 70.4031 40.3438 70.9774 39.6352 70.9774Z" fill="#218225"/>
<path d="M38.6129 23.6678C38.6129 13.5186 30.3853 5.29102 20.2363 5.29102C10.0966 5.29102 1.85938 13.5282 1.85938 23.6679C1.85954 33.8171 10.0869 42.0446 20.2361 42.0446H35.3104C36.5291 42.0446 37.1395 40.571 36.2777 39.7092L33.2305 36.662C36.5561 33.3367 38.6129 28.7424 38.6129 23.6678Z" fill="#C5FFC8"/>
<path d="M36.2766 39.7093C37.1386 40.5713 36.5298 42.0438 35.3104 42.0438H29.1124C30.3301 42.0438 30.9407 40.5713 30.0786 39.7093L28.189 37.8187C27.5605 37.1899 27.5206 36.1861 28.0937 35.5063C30.7895 32.3088 32.4148 28.177 32.4148 23.6671C32.4148 14.5754 25.8115 7.02449 17.1387 5.55193C17.9779 5.408 18.8362 5.32233 19.7096 5.2976C29.9868 5.00806 38.4391 13.0741 38.6101 23.354C38.6966 28.5521 36.6234 33.2684 33.2306 36.6614L36.2766 39.7093Z" fill="#218225"/>
<path d="M23.8631 23.6671L27.2815 20.2487C28.2834 19.2468 28.2834 17.6225 27.2815 16.6207C26.2798 15.6188 24.6553 15.6188 23.6536 16.6207L20.2351 20.0392L16.8169 16.6206C15.8151 15.6187 14.1907 15.6187 13.1889 16.6206C12.187 17.6223 12.187 19.2466 13.1889 20.2485L16.6074 23.6669L13.1889 27.0854C12.187 28.0873 12.187 29.7116 13.1889 30.7133C13.6898 31.2143 14.3464 31.4647 15.003 31.4647C15.6596 31.4647 16.316 31.2142 16.817 30.7133L20.2355 27.2949L23.6539 30.7133C24.1549 31.2143 24.8112 31.4647 25.4679 31.4647C26.1244 31.4647 26.781 31.2142 27.282 30.7133C28.2839 29.7116 28.2839 28.0873 27.282 27.0854L23.8631 23.6671Z" fill="#218225"/>
<path d="M53.7992 35.1892C56.4357 35.1892 58.573 33.0519 58.573 30.4154C58.573 27.7789 56.4357 25.6416 53.7992 25.6416C51.1627 25.6416 49.0254 27.7789 49.0254 30.4154C49.0254 33.0519 51.1627 35.1892 53.7992 35.1892Z" fill="#DFFFE0"/>
<path d="M58.5737 30.4147C58.5737 33.0522 56.4357 35.1902 53.8004 35.1902C52.9169 35.1902 52.088 34.9501 51.3789 34.5291C53.2529 34.0971 54.6491 32.4195 54.6491 30.4147C54.6491 28.4121 53.255 26.7323 51.3811 26.3004C52.0901 25.8815 52.9169 25.6416 53.8004 25.6416C56.4359 25.6414 58.5737 27.7794 58.5737 30.4147Z" fill="#2BCC31"/>
<path d="M70.5192 24.6917C72.5998 24.6917 74.2864 23.005 74.2864 20.9245C74.2864 18.8439 72.5998 17.1572 70.5192 17.1572C68.4386 17.1572 66.752 18.8439 66.752 20.9245C66.752 23.005 68.4386 24.6917 70.5192 24.6917Z" fill="#DFFFE0"/>
<path d="M74.2852 20.9241C74.2852 23.0055 72.5981 24.6925 70.5184 24.6925C69.8212 24.6925 69.1671 24.5031 68.6074 24.1709C70.0863 23.8301 71.188 22.5061 71.188 20.9241C71.188 19.3437 70.0879 18.0182 68.6091 17.6772C69.1686 17.3466 69.821 17.1572 70.5183 17.1572C72.5981 17.1572 74.2852 18.8444 74.2852 20.9241Z" fill="#2BCC31"/>
<path d="M61.9107 14.0381L62.6047 13.3441C63.1057 12.8431 63.1057 12.0311 62.6047 11.5301C62.1038 11.0292 61.2916 11.0292 60.7906 11.5301L60.0967 12.224L59.4027 11.5301C58.9019 11.029 58.0897 11.029 57.5887 11.5301C57.0876 12.0309 57.0876 12.8431 57.5887 13.3441L58.2826 14.0381L57.5887 14.732C57.0876 15.2331 57.0876 16.045 57.5887 16.5461C57.8392 16.7966 58.1674 16.9218 58.4956 16.9218C58.8238 16.9218 59.1522 16.7964 59.4026 16.5461L60.0965 15.8521L60.7904 16.5461C61.041 16.7966 61.3692 16.9218 61.6974 16.9218C62.0256 16.9218 62.354 16.7964 62.6043 16.5461C63.1054 16.0452 63.1054 15.2331 62.6043 14.732L61.9107 14.0381Z" fill="#2BCC31"/>
<path d="M9.604 43.1579C9.10313 42.657 8.29098 42.657 7.78995 43.1579L6.58168 44.3661L5.37342 43.1579C4.87255 42.657 4.06041 42.657 3.55937 43.1579C3.05833 43.6587 3.05833 44.4709 3.55937 44.9719L4.76763 46.1802L3.55937 47.3885C3.05833 47.8893 3.05833 48.7015 3.55937 49.2025C3.80989 49.453 4.1381 49.5782 4.46631 49.5782C4.79453 49.5782 5.12291 49.4529 5.37326 49.2025L6.58152 47.9942L7.78978 49.2025C8.0403 49.453 8.36851 49.5782 8.69672 49.5782C9.02494 49.5782 9.35331 49.4529 9.60367 49.2025C10.1047 48.7016 10.1047 47.8895 9.60367 47.3885L8.39541 46.1802L9.60367 44.9719C10.1049 44.4709 10.1049 43.6587 9.604 43.1579Z" fill="#2BCC31"/>
</g>
<defs>
<clipPath id="clip0_107_21061">
<rect width="85" height="85" fill="white"/>
</clipPath>
</defs>
</svg>
