<svg width="21" height="20" viewBox="0 0 21 20" fill="none" xmlns="http://www.w3.org/2000/svg">
<g clip-path="url(#clip0_184_692)">
<path d="M9.37427 4.23104C9.84102 3.67494 10.0996 3.3208 10.1189 3.29424C10.3044 3.0388 10.2477 2.68135 9.99223 2.49585C9.73675 2.31038 9.37934 2.36701 9.1938 2.62252C7.46074 5.00855 4.11249 8.10117 1.01495 9.68859C1.01399 9.68908 1.01308 9.68954 1.01216 9.69003C0.880921 9.75729 0.783137 9.87112 0.734854 10.0055C0.689963 10.1303 0.689925 10.2671 0.734854 10.3921C0.783137 10.5264 0.880921 10.6403 1.01216 10.7075C1.01312 10.708 1.01403 10.7085 1.01495 10.709C4.37368 12.4302 7.61923 15.6133 9.19383 17.7751C9.37843 18.0292 9.73561 18.0881 9.99226 17.9017C10.2477 17.7162 10.3044 17.3588 10.1189 17.1033C10.0996 17.0768 9.84105 16.7226 9.37431 16.1665C10.3037 14.4978 10.6198 12.1155 10.6198 10.1988C10.6198 8.2807 10.3033 5.89897 9.37427 4.23104ZM8.56456 15.2433C6.82663 13.3423 4.71161 11.513 2.46147 10.1988C4.70738 8.88703 6.82114 7.0611 8.56456 5.15431C8.85075 5.76876 9.07711 6.52459 9.23274 7.37237C7.85706 7.57765 6.79835 8.7668 6.79835 10.1988C6.79835 11.6307 7.85702 12.8199 9.23278 13.0252C9.07707 13.873 8.85075 14.6288 8.56456 15.2433ZM7.94154 10.1988C7.94154 9.34295 8.57173 8.63163 9.39241 8.50428C9.44767 9.04765 9.47663 9.61572 9.47663 10.1988C9.47663 10.7818 9.44767 11.3499 9.39241 11.8933C8.57173 11.7659 7.94154 11.0546 7.94154 10.1988Z" fill="#218225"/>
</g>
<defs>
<clipPath id="clip0_184_692">
<rect width="19.5111" height="19.5111" fill="white" transform="translate(0.701172 0.442871)"/>
</clipPath>
</defs>
</svg>
