<svg width="39" height="39" viewBox="0 0 39 39" fill="none" xmlns="http://www.w3.org/2000/svg">
<circle cx="19.7347" cy="19.0511" r="19.0511" fill="#FFF1CF"/>
<path d="M26.8346 23.5224L25.637 29.0824C25.4681 29.8641 24.7773 30.4226 23.9778 30.4226H19.4863C17.659 30.4226 16.8731 29.7393 15.8309 28.7251H14.5578V21.9353H15.4345C17.446 20.5663 18.523 18.599 19.1197 16.6291C19.219 16.3032 19.4974 16.0528 19.8377 16.0274C21.4741 15.9043 22.6835 17.4108 22.2685 18.9419C21.9833 19.9943 21.7159 20.9364 21.1846 21.9345H25.5522C26.3882 21.9353 27.0103 22.706 26.8346 23.5224Z" fill="#FEC844"/>
<path d="M20.3028 7.16246L21.3264 9.23674C21.3637 9.31227 21.435 9.36405 21.5182 9.37593L23.8072 9.70863C24.016 9.73918 24.0992 9.9955 23.9481 10.1432L22.2914 11.7583C22.2311 11.8169 22.204 11.9009 22.2184 11.9841L22.6096 14.2637C22.6453 14.4717 22.4272 14.6304 22.2404 14.5319L20.1925 13.4557C20.1186 13.4167 20.0295 13.4167 19.9557 13.4557L17.9077 14.5319C17.721 14.6304 17.5029 14.4717 17.5385 14.2637L17.9298 11.9841C17.9442 11.9017 17.9162 11.8169 17.8568 11.7583L16.2001 10.1432C16.049 9.9955 16.1322 9.73918 16.341 9.70863L18.63 9.37593C18.7132 9.36405 18.7844 9.31142 18.8218 9.23674L19.8454 7.16246C19.9396 6.97319 20.2095 6.97319 20.3028 7.16246Z" fill="#FEC844"/>
<path d="M27.9413 9.1926L28.9649 11.2669C29.0022 11.3424 29.0735 11.3942 29.1567 11.4061L31.4457 11.7388C31.6545 11.7693 31.7377 12.0256 31.5866 12.1733L29.9307 13.7876C29.8705 13.8462 29.8433 13.9302 29.8577 14.0134L30.249 16.293C30.2846 16.501 30.0665 16.6597 29.8798 16.5612L27.8318 15.485C27.758 15.446 27.6689 15.446 27.595 15.485L25.5471 16.5612C25.3604 16.6597 25.1422 16.501 25.1779 16.293L25.5691 14.0134C25.5836 13.931 25.5556 13.8462 25.4962 13.7876L23.8394 12.1725C23.6884 12.0248 23.7715 11.7685 23.9803 11.7379L26.2693 11.4052C26.3525 11.3933 26.4238 11.3407 26.4611 11.266L27.4847 9.19175C27.5781 9.00334 27.848 9.00334 27.9413 9.1926Z" fill="#FEC844"/>
<path d="M12.6643 9.1926L13.6879 11.2669C13.7252 11.3424 13.7965 11.3942 13.8797 11.4061L16.1687 11.7388C16.3775 11.7693 16.4606 12.0256 16.3096 12.1733L14.6537 13.7876C14.5935 13.8462 14.5663 13.9302 14.5807 14.0134L14.972 16.293C15.0076 16.501 14.7895 16.6597 14.6028 16.5612L12.5548 15.485C12.481 15.446 12.3919 15.446 12.318 15.485L10.2701 16.5612C10.0833 16.6597 9.86521 16.501 9.90086 16.293L10.2921 14.0134C10.3065 13.931 10.2785 13.8462 10.2191 13.7876L8.56157 12.1733C8.4105 12.0256 8.49368 11.7693 8.70246 11.7388L10.9915 11.4061C11.0755 11.3942 11.1468 11.3416 11.1841 11.2669L12.2077 9.1926C12.301 9.00334 12.5709 9.00334 12.6643 9.1926Z" fill="#FEC844"/>
<path d="M10.3142 21.0866H12.8604C13.0946 21.0866 13.2847 21.2767 13.2847 21.511V29.1495C13.2847 29.3837 13.0946 29.5738 12.8604 29.5738H10.3142C10.0799 29.5738 9.88983 29.3837 9.88983 29.1495V21.511C9.88983 21.2767 10.0799 21.0866 10.3142 21.0866Z" fill="#FEC844"/>
</svg>
