<svg width="39" height="39" viewBox="0 0 39 39" fill="none" xmlns="http://www.w3.org/2000/svg">
<circle cx="19.4183" cy="19.0511" r="19.0511" fill="#FFF1CF"/>
<g clip-path="url(#clip0_69_4510)">
<path d="M28.6172 15.6602V10.8789H23.8359L20.1172 7.16016L16.3984 10.8789H11.6172V15.6602L7.89844 19.3789L11.6172 23.0977V27.8789H16.3984L20.1172 31.5977L23.8359 27.8789H28.6172V23.0977L32.3359 19.3789L28.6172 15.6602ZM18.5234 16.0692C18.9917 16.3227 19.4015 16.6717 19.7264 17.0935C20.0513 17.5154 20.2839 18.0008 20.4094 18.5183C20.4406 18.6524 20.4186 18.7935 20.3478 18.9117C20.2771 19.0299 20.1632 19.1159 20.0302 19.1518C19.8972 19.1876 19.7555 19.1704 19.6349 19.1037C19.5144 19.0371 19.4244 18.9262 19.3841 18.7945C19.2986 18.4267 19.1385 18.0804 18.9137 17.777C18.6889 17.4736 18.4042 17.2196 18.0772 17.0308C17.9591 16.966 17.8701 16.8587 17.8281 16.7307C17.7861 16.6028 17.7943 16.4637 17.851 16.3415C17.9077 16.2193 18.0087 16.1233 18.1335 16.0727C18.2584 16.0222 18.3977 16.0209 18.5234 16.0692ZM13.11 22.4123C12.4831 21.6739 12.4725 19.7827 13.3916 20.0005C13.5278 20.0321 13.6461 20.1163 13.7207 20.2347C13.7953 20.353 13.8202 20.496 13.79 20.6327C13.737 20.8134 13.721 21.0031 13.7429 21.1902C13.7648 21.3773 13.8242 21.5581 13.9175 21.7217C13.96 21.7748 14.0928 21.9289 14.5284 21.9023C14.9292 21.9042 15.3183 21.7671 15.6292 21.5142C15.9402 21.2614 16.1538 20.9085 16.2338 20.5158C16.2019 19.9527 15.7981 16.797 15.5856 15.2033C15.5673 15.0624 15.6057 14.92 15.6924 14.8074C15.7791 14.6948 15.9069 14.6213 16.0478 14.603C16.1887 14.5847 16.3311 14.6231 16.4437 14.7097C16.5563 14.7964 16.6298 14.9243 16.6481 15.0652C16.6481 15.2564 17.2591 19.7189 17.3016 20.4627C17.3972 22.3911 14.2734 23.7989 13.11 22.4123ZM27.4538 20.8186C26.8337 21.4748 26.0767 21.9864 25.2366 22.3169C24.3964 22.6475 23.4938 22.7889 22.5928 22.7311C21.78 22.6939 21.3497 22.0564 21.1213 21.2648C20.1854 22.2729 18.926 22.9214 17.5619 23.0977C17.4921 23.1043 17.4217 23.0971 17.3547 23.0765C17.2877 23.056 17.2255 23.0224 17.1714 22.9777C17.1174 22.9331 17.0727 22.8783 17.0399 22.8163C17.0071 22.7544 16.9868 22.6866 16.9802 22.6169C16.9735 22.5471 16.9807 22.4767 17.0013 22.4097C17.0219 22.3427 17.0554 22.2805 17.1001 22.2264C17.1447 22.1724 17.1996 22.1277 17.2615 22.0949C17.3234 22.0621 17.3912 22.0418 17.4609 22.0352C18.89 21.8067 20.7919 20.7123 20.8397 19.3364C20.8325 18.2071 20.916 17.079 21.0894 15.963C21.1126 15.8221 21.1909 15.6962 21.307 15.613C21.423 15.5298 21.5674 15.4961 21.7083 15.5194C21.8492 15.5426 21.9751 15.6209 22.0583 15.737C22.1414 15.853 22.1751 15.9974 22.1519 16.1383C21.9659 17.2805 21.5675 21.6208 22.6141 21.6686C23.788 21.7394 24.9516 21.4138 25.9184 20.7442C25.4701 20.489 25.0009 20.2722 24.5159 20.0961C24.3526 20.0427 24.1774 20.0379 24.0114 20.0822C23.8454 20.1265 23.6959 20.2181 23.5809 20.3458C23.5391 20.4016 23.4866 20.4486 23.4266 20.4842C23.3666 20.5197 23.3001 20.5431 23.2311 20.5529C23.162 20.5628 23.0917 20.559 23.0241 20.5417C22.9565 20.5243 22.893 20.4939 22.8372 20.452C22.1094 19.9208 23.4003 18.6617 24.8187 19.0761C25.7962 19.363 26.4125 19.9473 27.0181 19.9473C27.1206 19.9453 27.2215 19.9729 27.3086 20.0268C27.3957 20.0808 27.4654 20.1588 27.5092 20.2514C27.553 20.3441 27.569 20.4474 27.5554 20.549C27.5418 20.6506 27.4991 20.746 27.4325 20.8239L27.4538 20.8186Z" fill="#FEC844"/>
</g>
<defs>
<clipPath id="clip0_69_4510">
<rect width="25.5" height="25.5" fill="white" transform="translate(7.36719 6.62891)"/>
</clipPath>
</defs>
</svg>
