<svg width="24" height="20" viewBox="0 0 24 20" fill="none" xmlns="http://www.w3.org/2000/svg">
<path fill-rule="evenodd" clip-rule="evenodd" d="M10.0236 0.615578C11.2151 -0.205193 12.7849 -0.205193 13.9764 0.615578L20.4764 5.09317C21.4299 5.75 22 6.83822 22 8.00141V16.4762C22 18.4224 20.433 20 18.5 20H5.5C3.567 20 2 18.4224 2 16.4762V8.00141C2 6.83822 2.57012 5.75 3.52361 5.09317L10.0236 0.615578ZM9.5 15.4694C9.22386 15.4694 9 15.6948 9 15.9728C9 16.2508 9.22386 16.4762 9.5 16.4762H14.5C14.7761 16.4762 15 16.2508 15 15.9728C15 15.6948 14.7761 15.4694 14.5 15.4694H9.5Z" fill="#218225"/>
</svg>
