<svg width="39" height="39" viewBox="0 0 39 39" fill="none" xmlns="http://www.w3.org/2000/svg">
<circle cx="19.0511" cy="19.0511" r="19.0511" fill="#FFF1CF"/>
<path d="M19.5822 8.44213V7.02051H18.1915V8.44213C11.8039 8.76102 7.01953 13.4625 7.01953 19.5832L7.02023 20.7036L8.02524 20.2059C8.03743 20.1991 9.33936 19.5832 10.5426 19.5832C11.4397 19.5832 12.5003 20.4408 12.8331 20.7708L13.3247 21.257L13.815 20.7708C14.1478 20.4408 15.2084 19.5832 16.1055 19.5832C16.8657 19.5832 17.7389 20.1968 18.1915 20.5856V28.6691C18.1915 29.8194 19.1273 30.7552 20.2776 30.7552C21.4279 30.7552 22.3636 29.8194 22.3636 28.6691V27.2784H20.9729V28.6691C20.9729 29.0528 20.6612 29.3645 20.2776 29.3645C19.8939 29.3645 19.5822 29.0528 19.5822 28.6691V20.5856C20.0348 20.1968 20.908 19.5832 21.6683 19.5832C22.5653 19.5832 23.626 20.4408 23.9587 20.7708L24.4503 21.257L24.9406 20.7708C25.2734 20.4408 26.3804 19.5832 27.2774 19.5832C28.4807 19.5832 29.7363 20.1991 29.7485 20.2059L30.7542 20.7043V19.5832C30.7542 13.4625 25.9698 8.76102 19.5822 8.44213Z" fill="#FEC844"/>
</svg>
