<svg width="24" height="20" viewBox="0 0 24 20" fill="none" xmlns="http://www.w3.org/2000/svg">
<path d="M7.98611 18.7557C8.1682 19.4841 8.80553 20 9.53391 20H14.0863C14.845 20 15.4823 19.4841 15.6341 18.7557L16.3321 15.7815H7.28808L7.98611 18.7557Z" fill="#218225"/>
<path d="M18.6083 7.40516C18.6386 7.31411 18.6083 7.19272 18.5476 7.13202C18.4869 7.04097 18.3958 7.01062 18.2744 7.01062C14.5415 7.31411 12.842 8.67982 12.1136 9.83308V8.10319C11.9315 8.13354 11.6887 8.13354 11.5066 8.10319V9.83308C10.7479 8.67982 9.07867 7.31411 5.34575 7.01062C5.2547 7.01062 5.1333 7.04097 5.0726 7.13202C5.01191 7.22307 4.98156 7.31411 5.01191 7.40516C5.92238 10.1062 8.3503 12.4127 11.5066 11.8058V12.8983H7.28808C6.65075 12.8983 6.16517 13.4143 6.16517 14.0516C6.16517 14.6586 6.6811 15.1745 7.28808 15.1745H16.3017C16.9391 15.1745 17.4247 14.6586 17.4247 14.0212C17.4247 13.3839 16.9087 12.8983 16.3017 12.8983H12.1136V11.8058C15.2395 12.4127 17.6674 10.1366 18.6083 7.40516Z" fill="#218225"/>
<path d="M11.8101 7.52655C13.9042 7.52655 15.5734 5.82701 15.5734 3.76328C15.5734 1.6692 13.8738 0 11.8101 0C9.716 0 8.04681 1.69954 8.04681 3.76328C8.04681 5.82701 9.716 7.52655 11.8101 7.52655ZM11.8101 4.03642C11.1728 4.03642 10.6568 3.52049 10.6568 2.88316C10.6568 2.33687 11.021 1.88164 11.5066 1.76024V1.39605C11.5066 1.24431 11.628 1.09256 11.8101 1.09256C11.9618 1.09256 12.1136 1.24431 12.1136 1.39605V1.76024C12.5992 1.88164 12.9633 2.33687 12.9633 2.88316C12.9633 3.06525 12.842 3.18665 12.6599 3.18665C12.5081 3.18665 12.3564 3.06525 12.3564 2.88316C12.3564 2.57967 12.1136 2.33687 11.8404 2.33687H11.7797C11.4762 2.33687 11.2638 2.61002 11.2638 2.88316C11.2638 3.18665 11.5066 3.42944 11.8101 3.42944C12.4474 3.42944 12.9633 3.94537 12.9633 4.5827C12.9633 5.12898 12.5688 5.58422 12.0529 5.70561V6.0698C12.0529 6.2519 11.9011 6.37329 11.7494 6.37329C11.5976 6.37329 11.4459 6.2519 11.4459 6.0698V5.70561C10.9603 5.55387 10.6265 5.12898 10.6265 4.5827C10.6265 4.40061 10.7782 4.27921 10.93 4.27921C11.0817 4.27921 11.2335 4.40061 11.2335 4.5827C11.2335 4.88619 11.4762 5.12898 11.7797 5.12898C12.0832 5.12898 12.326 4.88619 12.326 4.5827C12.3564 4.27921 12.1136 4.03642 11.8101 4.03642Z" fill="#218225"/>
<path d="M15.0071 3.86879C15.0071 5.63446 13.5758 7.06581 11.8101 7.06581C10.0444 7.06581 8.61309 5.63446 8.61309 3.86879C8.61309 2.10313 10.0444 0.671773 11.8101 0.671773C13.5758 0.671773 15.0071 2.10313 15.0071 3.86879Z" fill="#218225"/>
</svg>