<svg width="68" height="68" viewBox="0 0 68 68" fill="none" xmlns="http://www.w3.org/2000/svg">
<g clip-path="url(#clip0_69_4715)">
<path d="M45.723 25.7931V18.7586C45.723 12.2836 40.4739 7.03448 33.9989 7.03448C27.5238 7.03448 22.2747 12.2836 22.2747 18.7586V25.7931H15.2402V18.7586C15.2402 8.39852 23.6388 0 33.9989 0C44.359 0 52.7575 8.39852 52.7575 18.7586V25.7931H45.723Z" fill="#218225"/>
<path d="M9.37891 55.1033V63.3102C9.37891 65.9002 11.4785 67.9999 14.0686 67.9999H53.9306C56.5207 67.9999 58.6203 65.9002 58.6203 63.3102V30.4826C58.6203 27.8926 56.5207 25.793 53.9306 25.793H14.0686C11.4785 25.793 9.37891 27.8926 9.37891 30.4826V55.1033Z" fill="#FEC844"/>
<path d="M45.7241 38.6895H65.6552C66.9486 38.6933 67.9961 39.7409 68 41.0343V52.7584C67.9961 54.0518 66.9486 55.0994 65.6552 55.1032H2.34483C1.05142 55.0994 0.00386287 54.0518 0 52.7584V41.0343C0.00386287 39.7409 1.05142 38.6933 2.34483 38.6895H45.7241Z" fill="#C0FCC2"/>
<path d="M14.0689 35.1726C13.4214 35.1726 12.8965 34.6477 12.8965 34.0002V30.483C12.8965 29.8355 13.4214 29.3105 14.0689 29.3105H17.5861C18.2336 29.3105 18.7586 29.8355 18.7586 30.483C18.7586 31.1305 18.2336 31.6554 17.5861 31.6554H15.2413V34.0002C15.2413 34.6477 14.7164 35.1726 14.0689 35.1726Z" fill="#F9EAB0"/>
<path d="M12.6982 43.9012C12.5257 43.6424 12.2574 43.4629 11.9524 43.4019C11.6475 43.341 11.3308 43.4038 11.0721 43.5764L9.37796 44.7066V43.3794C9.37796 42.7319 8.85306 42.207 8.20555 42.207C7.55804 42.207 7.03314 42.7319 7.03314 43.3794V44.7066L5.339 43.5764C4.80027 43.217 4.07223 43.3624 3.71286 43.9012C3.35349 44.4399 3.49889 45.1679 4.03762 45.5273L6.09521 46.8967L4.03762 48.2661C3.49889 48.6254 3.35349 49.3535 3.71286 49.8922C4.07223 50.4309 4.80027 50.5763 5.339 50.217L7.03314 49.0868V50.4139C7.03314 51.0614 7.55804 51.5863 8.20555 51.5863C8.85306 51.5863 9.37796 51.0614 9.37796 50.4139V49.0868L11.0721 50.217C11.4206 50.4494 11.8666 50.4783 12.2422 50.2928C12.6178 50.1072 12.8658 49.7353 12.8929 49.3173C12.92 48.8993 12.722 48.4985 12.3735 48.2661L10.3159 46.8967L12.37 45.5273C12.6293 45.3553 12.8096 45.0873 12.8711 44.7823C12.9327 44.4773 12.8705 44.1603 12.6982 43.9012Z" fill="#218225"/>
<path d="M25.5947 43.9012C25.4222 43.6424 25.1539 43.4629 24.8489 43.4019C24.544 43.341 24.2273 43.4038 23.9686 43.5764L22.2744 44.7066V43.3794C22.2744 42.7319 21.7495 42.207 21.102 42.207C20.4545 42.207 19.9296 42.7319 19.9296 43.3794V44.7066L18.2355 43.5764C17.6968 43.217 16.9687 43.3624 16.6093 43.9012C16.25 44.4399 16.3954 45.1679 16.9341 45.5273L18.9917 46.8967L16.9376 48.2661C16.5891 48.4985 16.3911 48.8993 16.4182 49.3173C16.4453 49.7353 16.6933 50.1072 17.0689 50.2928C17.4445 50.4783 17.8905 50.4494 18.239 50.217L19.9296 49.0868V50.4139C19.9296 51.0614 20.4545 51.5863 21.102 51.5863C21.7495 51.5863 22.2744 51.0614 22.2744 50.4139V49.0868L23.9686 50.217C24.3171 50.4494 24.7631 50.4783 25.1387 50.2928C25.5143 50.1072 25.7623 49.7353 25.7894 49.3173C25.8165 48.8993 25.6185 48.4985 25.27 48.2661L23.2124 46.8967L25.2664 45.5273C25.5258 45.3553 25.7061 45.0873 25.7676 44.7823C25.8292 44.4773 25.767 44.1603 25.5947 43.9012Z" fill="#218225"/>
<path d="M51.3877 43.9012C51.2151 43.6424 50.9469 43.4629 50.6419 43.4019C50.3369 43.341 50.0202 43.4038 49.7616 43.5764L48.0674 44.7066V43.3794C48.0674 42.7319 47.5425 42.207 46.895 42.207C46.2475 42.207 45.7226 42.7319 45.7226 43.3794V44.7066L44.0285 43.5764C43.4897 43.217 42.7617 43.3624 42.4023 43.9012C42.0429 44.4399 42.1883 45.1679 42.7271 45.5273L44.7847 46.8967L42.7306 48.2661C42.1919 48.6254 42.0465 49.3535 42.4058 49.8922C42.7652 50.4309 43.4932 50.5763 44.032 50.217L45.7226 49.0868V50.4139C45.7226 51.0614 46.2475 51.5863 46.895 51.5863C47.5425 51.5863 48.0674 51.0614 48.0674 50.4139V49.0868L49.7616 50.217C50.1101 50.4494 50.5561 50.4783 50.9317 50.2928C51.3072 50.1072 51.5553 49.7353 51.5824 49.3173C51.6094 48.8993 51.4114 48.4985 51.0629 48.2661L49.0053 46.8967L51.0594 45.5273C51.3187 45.3553 51.499 45.0873 51.5606 44.7823C51.6222 44.4773 51.56 44.1603 51.3877 43.9012Z" fill="#218225"/>
<path d="M38.4912 43.9012C38.3187 43.6424 38.0504 43.4629 37.7454 43.4019C37.4404 43.341 37.1238 43.4038 36.8651 43.5764L35.1709 44.7066V43.3794C35.1709 42.7319 34.646 42.207 33.9985 42.207C33.351 42.207 32.8261 42.7319 32.8261 43.3794V44.7066L31.132 43.5764C30.5932 43.217 29.8652 43.3624 29.5058 43.9012C29.1465 44.4399 29.2919 45.1679 29.8306 45.5273L31.8882 46.8967L29.8341 48.2661C29.2954 48.6254 29.15 49.3535 29.5093 49.8922C29.8687 50.4309 30.5968 50.5763 31.1355 50.217L32.8261 49.0868V50.4139C32.8261 51.0614 33.351 51.5863 33.9985 51.5863C34.646 51.5863 35.1709 51.0614 35.1709 50.4139V49.0868L36.8651 50.217C37.2136 50.4494 37.6596 50.4783 38.0352 50.2928C38.4107 50.1072 38.6588 49.7353 38.6859 49.3173C38.7129 48.8993 38.5149 48.4985 38.1665 48.2661L36.1089 46.8967L38.1629 45.5273C38.4222 45.3553 38.6025 45.0873 38.6641 44.7823C38.7257 44.4773 38.6635 44.1603 38.4912 43.9012Z" fill="#218225"/>
<path d="M63.3085 49.2417H56.274C55.6265 49.2417 55.1016 49.7666 55.1016 50.4141C55.1016 51.0616 55.6265 51.5865 56.274 51.5865H63.3085C63.956 51.5865 64.4809 51.0616 64.4809 50.4141C64.4809 49.7666 63.956 49.2417 63.3085 49.2417Z" fill="#218225"/>
</g>
<defs>
<clipPath id="clip0_69_4715">
<rect width="68" height="68" fill="white"/>
</clipPath>
</defs>
</svg>
