<svg width="24" height="24" viewBox="0 0 24 24" fill="none" xmlns="http://www.w3.org/2000/svg">
<g clip-path="url(#clip0_96_15709)">
<path d="M4.06854 18H19.7245C20.2064 18 20.6811 17.884 21.1086 17.6617C21.5361 17.4394 21.9038 17.1174 22.1805 16.723C22.4572 16.3285 22.6349 15.8732 22.6984 15.3956C22.762 14.918 22.7095 14.4321 22.5455 13.979L19.6935 6.094C19.2065 4.34171 18.1588 2.79719 16.7108 1.69667C15.2629 0.59615 13.4943 0.000212078 11.6755 1.01731e-09C9.78226 -2.95923e-05 7.94558 0.645588 6.46875 1.83026C4.99191 3.01493 3.96323 4.66781 3.55254 6.516L1.20254 14.116C1.06418 14.5647 1.03307 15.0396 1.11172 15.5025C1.19038 15.9654 1.37659 16.4034 1.65539 16.7812C1.93418 17.1591 2.29777 17.4662 2.7169 17.6779C3.13602 17.8895 3.59899 17.9999 4.06854 18Z" fill="#218225"/>
<path d="M7.10059 20C7.3301 21.1303 7.94332 22.1465 8.83633 22.8764C9.72934 23.6063 10.8472 24.005 12.0006 24.005C13.1539 24.005 14.2718 23.6063 15.1648 22.8764C16.0579 22.1465 16.6711 21.1303 16.9006 20H7.10059Z" fill="#218225"/>
</g>
<defs>
<clipPath id="clip0_96_15709">
<rect width="24" height="24" fill="white"/>
</clipPath>
</defs>
</svg>
