<svg width="33" height="32" viewBox="0 0 33 32" fill="none" xmlns="http://www.w3.org/2000/svg">
<rect x="0.922852" y="0.067627" width="31.3661" height="31.3661" rx="7.42881" fill="#E7E7E7"/>
<g clip-path="url(#clip0_110_27093)">
<path d="M10.6043 20.2904H22.4502C22.8148 20.2904 23.174 20.2026 23.4974 20.0344C23.8209 19.8662 24.0991 19.6226 24.3085 19.3241C24.5179 19.0257 24.6523 18.6812 24.7004 18.3198C24.7484 17.9584 24.7088 17.5908 24.5847 17.2479L22.4267 11.2819C22.0582 9.956 21.2655 8.78736 20.1699 7.95466C19.0743 7.12197 17.7361 6.67106 16.36 6.6709C14.9275 6.67088 13.5378 7.15937 12.4204 8.05574C11.3029 8.95211 10.5246 10.2027 10.2138 11.6012L8.43575 17.3516C8.33106 17.6911 8.30752 18.0504 8.36703 18.4007C8.42655 18.751 8.56744 19.0824 8.77839 19.3682C8.98934 19.6541 9.26444 19.8865 9.58157 20.0466C9.8987 20.2068 10.249 20.2903 10.6043 20.2904Z" fill="#218225"/>
<path d="M12.8984 21.804C13.0721 22.6592 13.5361 23.4281 14.2118 23.9803C14.8875 24.5326 15.7333 24.8343 16.606 24.8343C17.4786 24.8343 18.3245 24.5326 19.0002 23.9803C19.6759 23.4281 20.1398 22.6592 20.3135 21.804H12.8984Z" fill="#218225"/>
</g>
<defs>
<clipPath id="clip0_110_27093">
<rect width="18.1593" height="18.1593" fill="white" transform="translate(7.52637 6.6709)"/>
</clipPath>
</defs>
</svg>
