<svg width="47" height="47" viewBox="0 0 47 47" fill="none" xmlns="http://www.w3.org/2000/svg">
<path d="M23.1979 46.3958C36.0098 46.3958 46.3958 36.0098 46.3958 23.1979C46.3958 10.3861 36.0098 0 23.1979 0C10.3861 0 0 10.3861 0 23.1979C0 36.0098 10.3861 46.3958 23.1979 46.3958Z" fill="#FEC844"/>
<path d="M18.8822 33.4482H18.7678C18.5362 33.4309 18.311 33.3641 18.1074 33.2525C17.9038 33.1408 17.7265 32.9868 17.5874 32.8008L11.1136 24.169C10.856 23.8256 10.7454 23.394 10.8061 22.969C10.8668 22.5441 11.0939 22.1607 11.4373 21.9031C11.7806 21.6456 12.2123 21.535 12.6372 21.5957C13.0621 21.6564 13.4455 21.8834 13.7031 22.2268L19.0591 29.3653L32.8441 15.5804C33.1509 15.2945 33.5567 15.1388 33.976 15.1462C34.3953 15.1536 34.7953 15.3235 35.0918 15.62C35.3884 15.9166 35.5582 16.3166 35.5656 16.7359C35.573 17.1552 35.4174 17.561 35.1315 17.8678L20.0259 32.9734C19.876 33.1241 19.6978 33.2437 19.5015 33.3252C19.3052 33.4066 19.0947 33.4484 18.8822 33.4482Z" fill="white"/>
<rect x="8" y="13" width="32" height="22" fill="#FEC844"/>
<path d="M11 23H36" stroke="white" stroke-width="3" stroke-linecap="round"/>
</svg>
