<svg width="24" height="24" viewBox="0 0 24 24" fill="none" xmlns="http://www.w3.org/2000/svg">
<path d="M6.60264 8.34306H18.9593V7.57065C18.9593 6.93316 18.4372 6.41202 17.8007 6.41202H12.7007V5.73744C12.7007 4.77757 11.92 4 10.9632 4H7.99712C7.53366 4 7.09804 4.18124 6.76845 4.51082C6.43887 4.8404 6.25864 5.27293 6.25864 5.73744V6.41303H1.15862C0.521135 6.41202 0 6.93311 0 7.57065V17.918L3.89507 10.027C4.3678 9.06602 5.53363 8.34306 6.60264 8.34306ZM7.41731 5.73744C7.41731 5.58398 7.48014 5.43874 7.58828 5.3296C7.69642 5.21835 7.84267 5.15762 7.99612 5.15762H10.9622C11.2825 5.15762 11.541 5.41716 11.541 5.73744V6.41303H7.41736V5.73744H7.41731Z" fill="#5B5B5B"/>
<path d="M23.2457 9.49963H6.60264C5.96615 9.49963 5.21331 9.9672 4.93419 10.5378L0.458303 19.6049C0.176131 20.1745 0.467565 20.642 1.10405 20.642H17.7471C18.3836 20.642 19.1375 20.1755 19.4176 19.6049L23.8925 10.5378C24.1737 9.9672 23.8843 9.49963 23.2457 9.49963Z" fill="#5B5B5B"/>
</svg>
