<svg width="50" height="50" viewBox="0 0 50 50" fill="none" xmlns="http://www.w3.org/2000/svg">
<circle cx="25" cy="25" r="25" fill="white"/>
<path d="M43.6645 24.0066C42.4035 21.2774 40.8406 19.7085 39.0231 19.3415C36.0867 18.7495 33.2332 21.3721 31.1552 23.2843C30.3442 24.0302 29.4206 24.8768 29.0536 24.9419C27.3486 25.232 24.6964 22.935 22.7901 19.6079C20.8246 20.0756 19.5162 20.8926 18.9065 22.0529C18.6596 22.591 18.5265 23.1743 18.5153 23.7662C18.5041 24.3581 18.6151 24.946 18.8413 25.4931C18.8828 25.5819 22.2217 33.2958 29.7995 36.2204C31.4107 35.5594 32.9228 34.6788 34.2929 33.6037C34.9737 33.0413 34.9204 32.1769 34.879 31.4843C34.8139 30.3594 34.7724 29.6786 36.6373 29.4477C39.8637 29.0393 40.1538 28.69 40.2308 28.2045C40.2536 28.0557 40.2265 27.9035 40.1537 27.7718C40.0808 27.64 39.9664 27.5361 39.8282 27.4763C39.8056 27.464 39.7818 27.4541 39.7572 27.4467C39.3997 27.377 39.0652 27.2192 38.784 26.9877C38.5029 26.7561 38.2839 26.4581 38.1469 26.1206C38.0983 25.8543 38.1178 25.5801 38.2038 25.3233C38.2897 25.0666 38.4391 24.8358 38.6383 24.6524C39.4908 23.7348 42.0719 24.4748 42.9067 24.8064C43.0175 24.8501 43.139 24.8594 43.2551 24.833C43.3713 24.8065 43.4768 24.7457 43.5579 24.6584C43.639 24.5729 43.6925 24.4651 43.7115 24.3489C43.7305 24.2326 43.7141 24.1134 43.6645 24.0066ZM31.0427 42.1814H28.8819L28.3313 36.7526C28.0451 36.5365 27.7008 36.4107 27.3426 36.3915C20.7417 32.8808 17.8882 26.2799 17.758 25.9602C17.4598 25.2509 17.3147 24.4867 17.3321 23.7176C17.3494 22.9484 17.5288 22.1915 17.8586 21.4964C18.5986 20.0933 20.0668 19.1047 22.204 18.5364C21.3641 16.8462 20.1613 15.3624 18.6815 14.191C19.9543 12.8353 19.2913 10.5383 19.2557 10.4258C19.2232 10.3125 19.1572 10.2117 19.0663 10.1367C18.9754 10.0617 18.864 10.0159 18.7466 10.0054C17.5956 9.95193 16.461 10.2946 15.532 10.9763L15.4965 10.8047C15.4788 10.7109 15.4389 10.6228 15.3802 10.5476C15.3215 10.4724 15.2457 10.4124 15.159 10.3725C15.0722 10.3348 14.9777 10.3179 14.8832 10.323C14.7887 10.3281 14.6966 10.3552 14.6144 10.4021C12.637 11.5802 12.785 14.2147 12.9271 15.227L11.2576 16.3637C11.164 16.4282 11.0908 16.5182 11.0467 16.623C11.0025 16.7278 10.9893 16.8431 11.0086 16.9552C11.0279 17.0672 11.0789 17.1714 11.1556 17.2555C11.2322 17.3395 11.3313 17.3998 11.4412 17.4293L13.4067 17.9562C13.6106 18.6332 13.9466 19.2632 14.3953 19.8098C14.4016 21.6045 14.203 23.3941 13.8033 25.1438C13.2054 28.1453 15.4017 36.0309 20.3391 37.1617C20.7891 37.2623 21.2272 37.3334 21.6652 37.3926L20.6588 42.182H18.5513C18.3942 42.182 18.2437 42.2443 18.1326 42.3554C18.0216 42.4664 17.9592 42.617 17.9592 42.774C17.9592 42.931 18.0216 43.0816 18.1326 43.1926C18.2437 43.3036 18.3942 43.366 18.5513 43.366H31.0427C31.1997 43.366 31.3503 43.3036 31.4613 43.1926C31.5724 43.0816 31.6347 42.931 31.6347 42.774C31.6347 42.617 31.5724 42.4664 31.4613 42.3554C31.3503 42.2443 31.1997 42.1814 31.0427 42.1814ZM15.6859 15.7953H15.3662C15.2092 15.7953 15.0586 15.733 14.9476 15.6219C14.8366 15.5109 14.7742 15.3603 14.7742 15.2033C14.7742 15.0463 14.8366 14.8957 14.9476 14.7847C15.0586 14.6737 15.2092 14.6113 15.3662 14.6113H15.6859C15.8429 14.6113 15.9935 14.6737 16.1045 14.7847C16.2155 14.8957 16.2779 15.0463 16.2779 15.2033C16.2779 15.3603 16.2155 15.5109 16.1045 15.6219C15.9935 15.733 15.8429 15.7953 15.6859 15.7953ZM23.6485 42.1814L24.6371 37.4749C24.9036 37.4571 25.164 37.4216 25.4245 37.392L25.91 42.1814H23.6485Z" fill="#FEC844"/>
</svg>
