<svg width="89" height="89" viewBox="0 0 89 89" fill="none" xmlns="http://www.w3.org/2000/svg">
<path d="M77.9945 4.36084H11.0043C8.06144 4.36084 5.67578 6.7465 5.67578 9.68937V65.5504C5.67578 68.4933 8.06144 70.8789 11.0043 70.8789H77.9945C80.9374 70.8789 83.3231 68.4933 83.3231 65.5504V9.68937C83.3231 6.7465 80.9374 4.36084 77.9945 4.36084Z" fill="#CECECE"/>
<path d="M9.15234 65.5504V9.68937C9.15234 8.98959 9.29018 8.29666 9.55799 7.65015C9.82579 7.00364 10.2183 6.41621 10.7132 5.92141C11.208 5.4266 11.7954 5.03411 12.442 4.76635C13.0885 4.49859 13.7814 4.36079 14.4812 4.36084H11.0047C10.3049 4.36079 9.61194 4.49859 8.96541 4.76635C8.31888 5.03411 7.73143 5.4266 7.23659 5.92141C6.74176 6.41621 6.34923 7.00364 6.08142 7.65015C5.81362 8.29666 5.67578 8.98959 5.67578 9.68937V65.5504C5.67578 66.9636 6.23718 68.319 7.23647 69.3183C8.23576 70.3176 9.59109 70.8789 11.0043 70.8789H14.4809C13.0677 70.8789 11.7123 70.3176 10.713 69.3183C9.71374 68.319 9.15234 66.9636 9.15234 65.5504Z" fill="#AFAFAF"/>
<path d="M79.8481 65.5504V9.68937C79.8481 8.27615 79.2867 6.92082 78.2874 5.92153C77.2881 4.92224 75.9327 4.36084 74.5195 4.36084H77.9961C79.4093 4.36084 80.7646 4.92224 81.7639 5.92153C82.7632 6.92082 83.3246 8.27615 83.3246 9.68937V65.5504C83.3246 66.9636 82.7632 68.319 81.7639 69.3183C80.7646 70.3176 79.4093 70.8789 77.9961 70.8789H74.5195C75.9327 70.8789 77.2881 70.3176 78.2874 69.3183C79.2867 68.319 79.8481 66.9636 79.8481 65.5504Z" fill="#E2E2E2"/>
<path d="M83.3234 9.68937C83.3234 8.27615 82.762 6.92082 81.7627 5.92153C80.7634 4.92224 79.4081 4.36084 77.9949 4.36084H11.0047C10.3049 4.36079 9.61194 4.49859 8.96541 4.76635C8.31888 5.03411 7.73143 5.4266 7.23659 5.92141C6.74176 6.41621 6.34923 7.00364 6.08142 7.65015C5.81362 8.29666 5.67578 8.98959 5.67578 9.68937V18.9624H83.3234V9.68937Z" fill="#218225"/>
<path d="M14.4812 4.36084H11.0047C10.3049 4.36079 9.61194 4.49859 8.96541 4.76635C8.31888 5.03411 7.73143 5.4266 7.23659 5.92141C6.74176 6.41621 6.34923 7.00364 6.08142 7.65015C5.81362 8.29666 5.67578 8.98959 5.67578 9.68937V18.9624H9.15234V9.68937C9.15234 8.98959 9.29018 8.29666 9.55799 7.65015C9.82579 7.00364 10.2183 6.41621 10.7132 5.92141C11.208 5.4266 11.7954 5.03411 12.442 4.76635C13.0885 4.49859 13.7814 4.36079 14.4812 4.36084Z" fill="#34AE39"/>
<path d="M74.5195 4.36084H77.9961C79.4093 4.36084 80.7646 4.92224 81.7639 5.92153C82.7632 6.92082 83.3246 8.27615 83.3246 9.68937V18.9624H79.8481V9.68937C79.8481 8.27615 79.2867 6.92082 78.2874 5.92153C77.2881 4.92224 75.9327 4.36084 74.5195 4.36084Z" fill="#38A43C"/>
<path d="M15.1875 14.0952C16.5315 14.0952 17.6211 13.0057 17.6211 11.6616C17.6211 10.3176 16.5315 9.22803 15.1875 9.22803C13.8435 9.22803 12.7539 10.3176 12.7539 11.6616C12.7539 13.0057 13.8435 14.0952 15.1875 14.0952Z" fill="#78FD7E"/>
<path d="M24.5625 14.0952C25.9065 14.0952 26.9961 13.0057 26.9961 11.6616C26.9961 10.3176 25.9065 9.22803 24.5625 9.22803C23.2185 9.22803 22.1289 10.3176 22.1289 11.6616C22.1289 13.0057 23.2185 14.0952 24.5625 14.0952Z" fill="#78FD7E"/>
<path d="M33.9336 14.0952C35.2776 14.0952 36.3672 13.0057 36.3672 11.6616C36.3672 10.3176 35.2776 9.22803 33.9336 9.22803C32.5896 9.22803 31.5 10.3176 31.5 11.6616C31.5 13.0057 32.5896 14.0952 33.9336 14.0952Z" fill="#78FD7E"/>
<path d="M74.3934 9.9668H43.6001C42.5762 9.9668 41.7461 10.7969 41.7461 11.8208V11.8212C41.7461 12.8452 42.5762 13.6752 43.6001 13.6752H74.3934C75.4174 13.6752 76.2475 12.8452 76.2475 11.8212V11.8208C76.2475 10.7969 75.4174 9.9668 74.3934 9.9668Z" fill="#78FD7E"/>
<path d="M44.5008 80.8244C59.8854 80.8244 72.3571 68.3527 72.3571 52.9681C72.3571 37.5835 59.8854 25.1118 44.5008 25.1118C29.1162 25.1118 16.6445 37.5835 16.6445 52.9681C16.6445 68.3527 29.1162 80.8244 44.5008 80.8244Z" fill="#F46275"/>
<path d="M20.1218 52.968C20.1223 45.8815 22.8238 39.0617 27.6763 33.8972C32.5287 28.7328 39.1672 25.612 46.2399 25.1705C45.6645 25.1357 45.086 25.111 44.5016 25.111C40.8352 25.0981 37.2023 25.809 33.8113 27.2031C30.4202 28.5972 27.3377 30.647 24.7406 33.235C22.1435 35.823 20.0828 38.8982 18.6767 42.2843C17.2707 45.6704 16.5469 49.3007 16.5469 52.9671C16.5469 56.6336 17.2707 60.2639 18.6767 63.65C20.0828 67.0361 22.1435 70.1113 24.7406 72.6993C27.3377 75.2873 30.4202 77.3371 33.8113 78.7312C37.2023 80.1253 40.8352 80.8362 44.5016 80.8233C45.086 80.8233 45.6645 80.7993 46.2399 80.7638C39.1675 80.3223 32.5293 77.2018 27.6769 72.0377C22.8245 66.8736 20.1228 60.0542 20.1218 52.968Z" fill="#F48875"/>
<path d="M68.8797 52.968C68.8793 45.8815 66.1778 39.0617 61.3253 33.8972C56.4729 28.7328 49.8344 25.612 42.7617 25.1705C43.3371 25.1357 43.9156 25.111 44.5 25.111C48.1664 25.0981 51.7993 25.809 55.1903 27.2031C58.5814 28.5972 61.6638 30.647 64.261 33.235C66.8581 35.823 68.9188 38.8982 70.3249 42.2843C71.7309 45.6704 72.4547 49.3007 72.4547 52.9671C72.4547 56.6336 71.7309 60.2639 70.3249 63.65C68.9188 67.0361 66.8581 70.1113 64.261 72.6993C61.6638 75.2873 58.5814 77.3371 55.1903 78.7312C51.7993 80.1253 48.1664 80.8362 44.5 80.8233C43.9156 80.8233 43.3371 80.7993 42.7617 80.7638C49.8341 80.3223 56.4723 77.2018 61.3247 72.0377C66.1771 66.8736 68.8788 60.0542 68.8797 52.968Z" fill="#F48875"/>
<path d="M9.49805 84.1177H3.24023C3.10193 84.1177 2.96929 84.1726 2.87149 84.2704C2.77369 84.3682 2.71875 84.5009 2.71875 84.6392C2.71875 84.7775 2.77369 84.9101 2.87149 85.0079C2.96929 85.1057 3.10193 85.1606 3.24023 85.1606H9.49805C9.63635 85.1606 9.76899 85.1057 9.86679 85.0079C9.96459 84.9101 10.0195 84.7775 10.0195 84.6392C10.0195 84.5009 9.96459 84.3682 9.86679 84.2704C9.76899 84.1726 9.63635 84.1177 9.49805 84.1177Z" fill="#333333"/>
<path d="M85.7598 84.1177H79.502C79.3636 84.1177 79.231 84.1726 79.1332 84.2704C79.0354 84.3682 78.9805 84.5009 78.9805 84.6392C78.9805 84.7775 79.0354 84.9101 79.1332 85.0079C79.231 85.1057 79.3636 85.1606 79.502 85.1606H85.7598C85.8981 85.1606 86.0307 85.1057 86.1285 85.0079C86.2263 84.9101 86.2812 84.7775 86.2812 84.6392C86.2812 84.5009 86.2263 84.3682 86.1285 84.2704C86.0307 84.1726 85.8981 84.1177 85.7598 84.1177Z" fill="#333333"/>
<path d="M75.9561 84.1177H13.0449C12.9066 84.1177 12.774 84.1726 12.6762 84.2704C12.5784 84.3682 12.5234 84.5009 12.5234 84.6392C12.5234 84.7775 12.5784 84.9101 12.6762 85.0079C12.774 85.1057 12.9066 85.1606 13.0449 85.1606H75.9561C76.0944 85.1606 76.2271 85.1057 76.3248 85.0079C76.4226 84.9101 76.4776 84.7775 76.4776 84.6392C76.4776 84.5009 76.4226 84.3682 76.3248 84.2704C76.2271 84.1726 76.0944 84.1177 75.9561 84.1177Z" fill="#333333"/>
<path d="M3.24023 81.346H85.7599C85.8982 81.346 86.0309 81.291 86.1287 81.1932C86.2265 81.0954 86.2814 80.9628 86.2814 80.8245C86.2814 80.6862 86.2265 80.5535 86.1287 80.4557C86.0309 80.3579 85.8982 80.303 85.7599 80.303H52.1037C57.532 78.784 62.3863 75.6855 66.0495 71.4013H77.995C79.546 71.3995 81.033 70.7826 82.1297 69.6859C83.2264 68.5892 83.8433 67.1022 83.845 65.5513V9.68986C83.8433 8.13887 83.2264 6.65191 82.1297 5.5552C81.033 4.45849 79.546 3.84159 77.995 3.83984H11.0051C9.45415 3.84159 7.9672 4.45849 6.87048 5.5552C5.77377 6.65191 5.15687 8.13887 5.15512 9.68986V65.5513C5.15687 67.1022 5.77377 68.5892 6.87048 69.6859C7.9672 70.7826 9.45415 71.3995 11.0051 71.4013H22.9506C26.6139 75.6855 31.4681 78.784 36.8965 80.303H3.24023C3.10193 80.303 2.96929 80.3579 2.87149 80.4557C2.77369 80.5535 2.71875 80.6862 2.71875 80.8245C2.71875 80.9628 2.77369 81.0954 2.87149 81.1932C2.96929 81.291 3.10193 81.346 3.24023 81.346ZM6.19809 9.68986C6.19957 8.4154 6.70649 7.19357 7.60767 6.29239C8.50885 5.39121 9.73068 4.88428 11.0051 4.88281H77.9954C79.2698 4.88428 80.4917 5.39121 81.3928 6.29239C82.294 7.19357 82.8009 8.4154 82.8024 9.68986V18.4414H6.19809V9.68986ZM11.0051 70.3583C9.73068 70.3568 8.50885 69.8499 7.60767 68.9487C6.70649 68.0475 6.19957 66.8257 6.19809 65.5513V19.4844H82.8024V65.5513C82.8009 66.8257 82.294 68.0475 81.3928 68.9487C80.4917 69.8499 79.2698 70.3568 77.9954 70.3583H66.9013C70.1625 66.1649 72.1811 61.1403 72.7275 55.8562C73.2739 50.5721 72.3262 45.2408 69.9921 40.4688C67.658 35.6967 64.0313 31.6757 59.5247 28.8632C55.0181 26.0506 49.8125 24.5595 44.5003 24.5595C39.188 24.5595 33.9824 26.0506 29.4758 28.8632C24.9692 31.6757 21.3425 35.6967 19.0084 40.4688C16.6743 45.2408 15.7266 50.5721 16.273 55.8562C16.8194 61.1403 18.838 66.1649 22.0992 70.3583H11.0051ZM17.1653 52.9682C17.1653 47.5619 18.7684 42.277 21.772 37.7818C24.7756 33.2866 29.0447 29.783 34.0395 27.7141C39.0343 25.6452 44.5304 25.1039 49.8328 26.1586C55.1353 27.2133 60.0059 29.8167 63.8287 33.6396C67.6516 37.4624 70.2549 42.333 71.3097 47.6354C72.3644 52.9379 71.8231 58.434 69.7542 63.4288C67.6852 68.4236 64.1817 72.6927 59.6865 75.6963C55.1913 78.6999 49.9064 80.303 44.5001 80.303C37.2529 80.2948 30.305 77.4123 25.1805 72.2878C20.056 67.1633 17.1734 60.2153 17.1653 52.9682Z" fill="#333333"/>
<path d="M15.1895 8.70703C14.605 8.70703 14.0337 8.88034 13.5477 9.20505C13.0617 9.52976 12.683 9.99128 12.4593 10.5312C12.2357 11.0712 12.1771 11.6654 12.2912 12.2386C12.4052 12.8118 12.6866 13.3384 13.0999 13.7517C13.5132 14.1649 14.0397 14.4464 14.6129 14.5604C15.1862 14.6744 15.7803 14.6159 16.3203 14.3922C16.8603 14.1686 17.3218 13.7898 17.6465 13.3039C17.9712 12.8179 18.1445 12.2466 18.1445 11.6621C18.1436 10.8787 17.832 10.1276 17.278 9.57357C16.724 9.01958 15.9729 8.70795 15.1895 8.70703ZM15.1895 13.5742C14.8113 13.5742 14.4416 13.4621 14.1271 13.252C13.8127 13.0419 13.5676 12.7432 13.4229 12.3938C13.2782 12.0444 13.2403 11.66 13.3141 11.2891C13.3879 10.9182 13.57 10.5775 13.8374 10.31C14.1048 10.0426 14.4455 9.86052 14.8164 9.78674C15.1873 9.71296 15.5718 9.75083 15.9212 9.89555C16.2706 10.0403 16.5692 10.2854 16.7793 10.5998C16.9894 10.9142 17.1016 11.2839 17.1016 11.6621C17.1009 12.169 16.8993 12.655 16.5408 13.0135C16.1824 13.3719 15.6964 13.5736 15.1895 13.5742Z" fill="#333333"/>
<path d="M24.5645 8.70703C23.98 8.70703 23.4087 8.88034 22.9227 9.20505C22.4367 9.52976 22.058 9.99128 21.8343 10.5312C21.6107 11.0712 21.5521 11.6654 21.6662 12.2386C21.7802 12.8118 22.0616 13.3384 22.4749 13.7517C22.8882 14.1649 23.4147 14.4464 23.9879 14.5604C24.5612 14.6744 25.1553 14.6159 25.6953 14.3922C26.2353 14.1686 26.6968 13.7898 27.0215 13.3039C27.3462 12.8179 27.5195 12.2466 27.5195 11.6621C27.5186 10.8787 27.207 10.1276 26.653 9.57357C26.099 9.01958 25.3479 8.70795 24.5645 8.70703ZM24.5645 13.5742C24.1863 13.5742 23.8166 13.4621 23.5021 13.252C23.1877 13.0419 22.9426 12.7432 22.7979 12.3938C22.6532 12.0444 22.6153 11.66 22.6891 11.2891C22.7629 10.9182 22.945 10.5775 23.2124 10.31C23.4798 10.0426 23.8205 9.86052 24.1914 9.78674C24.5623 9.71296 24.9468 9.75083 25.2962 9.89555C25.6456 10.0403 25.9442 10.2854 26.1543 10.5998C26.3644 10.9142 26.4766 11.2839 26.4766 11.6621C26.4759 12.169 26.2743 12.655 25.9158 13.0135C25.5574 13.3719 25.0714 13.5736 24.5645 13.5742Z" fill="#333333"/>
<path d="M33.9355 8.70703C33.3511 8.70703 32.7798 8.88034 32.2938 9.20505C31.8078 9.52976 31.4291 9.99128 31.2054 10.5312C30.9818 11.0712 30.9232 11.6654 31.0373 12.2386C31.1513 12.8118 31.4327 13.3384 31.846 13.7517C32.2593 14.1649 32.7858 14.4464 33.359 14.5604C33.9323 14.6744 34.5264 14.6159 35.0664 14.3922C35.6064 14.1686 36.0679 13.7898 36.3926 13.3039C36.7173 12.8179 36.8906 12.2466 36.8906 11.6621C36.8897 10.8787 36.5781 10.1276 36.0241 9.57357C35.4701 9.01958 34.719 8.70795 33.9355 8.70703ZM33.9355 13.5742C33.5574 13.5742 33.1877 13.4621 32.8732 13.252C32.5588 13.0419 32.3137 12.7432 32.169 12.3938C32.0243 12.0444 31.9864 11.66 32.0602 11.2891C32.134 10.9182 32.3161 10.5775 32.5835 10.31C32.8509 10.0426 33.1916 9.86052 33.5625 9.78674C33.9334 9.71296 34.3179 9.75083 34.6673 9.89555C35.0167 10.0403 35.3153 10.2854 35.5254 10.5998C35.7355 10.9142 35.8477 11.2839 35.8477 11.6621C35.847 12.169 35.6454 12.655 35.2869 13.0135C34.9285 13.3719 34.4425 13.5736 33.9355 13.5742Z" fill="#333333"/>
<path d="M74.3913 9.4458H43.5984C42.9683 9.4458 42.364 9.6961 41.9185 10.1416C41.473 10.5872 41.2227 11.1914 41.2227 11.8215C41.2227 12.4516 41.473 13.0559 41.9185 13.5014C42.364 13.9469 42.9683 14.1972 43.5984 14.1972H74.3913C75.0214 14.1972 75.6257 13.9469 76.0712 13.5014C76.5167 13.0559 76.767 12.4516 76.767 11.8215C76.767 11.1914 76.5167 10.5872 76.0712 10.1416C75.6257 9.6961 75.0214 9.4458 74.3913 9.4458ZM74.3913 13.1542H43.5984C43.2449 13.1542 42.9059 13.0138 42.656 12.7639C42.406 12.514 42.2656 12.175 42.2656 11.8215C42.2656 11.468 42.406 11.1291 42.656 10.8791C42.9059 10.6292 43.2449 10.4888 43.5984 10.4888H74.3913C74.7448 10.4888 75.0838 10.6292 75.3337 10.8791C75.5836 11.1291 75.7241 11.468 75.7241 11.8215C75.7241 12.175 75.5836 12.514 75.3337 12.7639C75.0838 13.0138 74.7448 13.1542 74.3913 13.1542Z" fill="#333333"/>
<path d="M35.2224 52.8495C35.5825 53.2003 36.0663 53.3952 36.5691 53.3919C37.0718 53.3886 37.553 53.1875 37.9086 52.832C38.2641 52.4765 38.4653 51.9953 38.4687 51.4925C38.472 50.9898 38.2772 50.5059 37.9264 50.1458L34.9891 47.2084L37.9264 44.2711C38.2772 43.9109 38.472 43.427 38.4687 42.9243C38.4653 42.4215 38.2641 41.9403 37.9086 41.5849C37.553 41.2294 37.0718 41.0282 36.5691 41.0249C36.0663 41.0217 35.5825 41.2165 35.2224 41.5673L32.2854 44.5043L29.3484 41.5673C28.9882 41.2165 28.5044 41.0217 28.0017 41.0249C27.4989 41.0282 27.0177 41.2294 26.6621 41.5849C26.3066 41.9403 26.1054 42.4215 26.1021 42.9243C26.0987 43.427 26.2935 43.9109 26.6443 44.2711L29.5816 47.2084L26.6443 50.1458C26.4629 50.3225 26.3184 50.5334 26.2192 50.7664C26.12 50.9994 26.0681 51.2497 26.0664 51.503C26.0648 51.7562 26.1135 52.0072 26.2096 52.2415C26.3058 52.4757 26.4475 52.6885 26.6265 52.8676C26.8056 53.0466 27.0184 53.1883 27.2527 53.2844C27.487 53.3806 27.738 53.4292 27.9912 53.4275C28.2444 53.4258 28.4948 53.3738 28.7278 53.2746C28.9607 53.1754 29.1717 53.0309 29.3484 52.8495L32.2854 49.9125L35.2224 52.8495Z" fill="#333333"/>
<path d="M59.4168 47.2087L62.3542 44.2714C62.5368 44.095 62.6825 43.884 62.7827 43.6507C62.8829 43.4174 62.9356 43.1665 62.9378 42.9126C62.94 42.6587 62.8917 42.4069 62.7955 42.1719C62.6994 41.937 62.5574 41.7235 62.3779 41.5439C62.1983 41.3644 61.9848 41.2224 61.7499 41.1263C61.5149 41.0301 61.2631 40.9818 61.0092 40.984C60.7553 40.9862 60.5044 41.0389 60.2711 41.1391C60.0378 41.2393 59.8268 41.385 59.6504 41.5676L56.7131 44.505L53.7757 41.5676C53.5994 41.385 53.3884 41.2393 53.1551 41.1391C52.9218 41.0389 52.6709 40.9862 52.417 40.984C52.1631 40.9818 51.9113 41.0301 51.6763 41.1263C51.4413 41.2224 51.2279 41.3644 51.0483 41.5439C50.8688 41.7235 50.7268 41.937 50.6307 42.1719C50.5345 42.4069 50.4861 42.6587 50.4884 42.9126C50.4906 43.1665 50.5433 43.4174 50.6435 43.6507C50.7437 43.884 50.8894 44.095 51.072 44.2714L54.0094 47.2087L51.072 50.146C50.8894 50.3224 50.7437 50.5334 50.6435 50.7667C50.5433 51 50.4906 51.2509 50.4884 51.5048C50.4861 51.7587 50.5345 52.0105 50.6307 52.2455C50.7268 52.4804 50.8688 52.6939 51.0483 52.8735C51.2279 53.053 51.4413 53.195 51.6763 53.2911C51.9113 53.3873 52.1631 53.4356 52.417 53.4334C52.6709 53.4312 52.9218 53.3785 53.1551 53.2783C53.3884 53.1781 53.5994 53.0324 53.7757 52.8498L56.7131 49.9124L59.6504 52.8498C60.0111 53.1981 60.4941 53.3908 60.9954 53.3864C61.4968 53.3821 61.9764 53.181 62.3309 52.8265C62.6854 52.472 62.8865 51.9924 62.8908 51.491C62.8952 50.9897 62.7025 50.5067 62.3542 50.146L59.4168 47.2087Z" fill="#333333"/>
<path d="M44.5003 60.2974C42.5709 60.2963 40.6774 60.8192 39.0219 61.8101C37.3664 62.801 36.011 64.2228 35.1004 65.9238C34.9759 66.1455 34.8969 66.3897 34.8679 66.6422C34.839 66.8948 34.8606 67.1505 34.9317 67.3946C35.0028 67.6386 35.1218 67.8661 35.2818 68.0636C35.4418 68.2611 35.6395 68.4248 35.8635 68.5449C36.0875 68.6651 36.3332 68.7394 36.5862 68.7635C36.8393 68.7877 37.0946 68.7611 37.3372 68.6853C37.5799 68.6096 37.805 68.4863 37.9994 68.3225C38.1938 68.1588 38.3536 67.9579 38.4695 67.7316C39.054 66.6405 39.9236 65.7285 40.9856 65.0926C42.0477 64.4568 43.2623 64.1209 44.5001 64.1209C45.7379 64.1209 46.9526 64.4568 48.0146 65.0926C49.0766 65.7285 49.9462 66.6405 50.5307 67.7316C50.7759 68.1683 51.1826 68.4913 51.6634 68.6313C52.1442 68.7713 52.6608 68.7171 53.102 68.4803C53.5433 68.2435 53.8741 67.8431 54.0232 67.3651C54.1724 66.887 54.1281 66.3696 53.8999 65.9238C52.9893 64.2229 51.6339 62.8011 49.9785 61.8102C48.3231 60.8193 46.4296 60.2964 44.5003 60.2974Z" fill="#333333"/>
</svg>
