<svg width="24" height="20" viewBox="0 0 24 20" fill="none" xmlns="http://www.w3.org/2000/svg">
<path d="M19.5313 0H12C10.6365 0 9.53128 1.10321 9.53128 2.46872V13.7656C9.53128 14.2448 10.0809 14.5251 10.4688 14.2343L12.8229 12.4687H19.5313C20.8948 12.4687 22 11.3655 22 10V2.46872C22 1.10519 20.8968 0 19.5313 0ZM15.1796 9.33075H12.6276C12.304 9.33075 12.0417 9.06845 12.0417 8.74481C12.0417 8.42117 12.304 8.15887 12.6276 8.15887H15.1796C15.5033 8.15887 15.7656 8.42117 15.7656 8.74481C15.7656 9.06845 15.5033 9.33075 15.1796 9.33075ZM18.9037 6.82037H12.6276C12.304 6.82037 12.0417 6.55792 12.0417 6.23444C12.0417 5.9108 12.304 5.6485 12.6276 5.6485H18.9037C19.2272 5.6485 19.4896 5.9108 19.4896 6.23444C19.4896 6.55792 19.2273 6.82037 18.9037 6.82037ZM18.9037 4.30984H12.6276C12.304 4.30984 12.0417 4.04755 12.0417 3.72391C12.0417 3.40042 12.304 3.13797 12.6276 3.13797H18.9037C19.2272 3.13797 19.4896 3.40042 19.4896 3.72391C19.4896 4.04755 19.2273 4.30984 18.9037 4.30984Z" fill="#218225"/>
<path d="M8.49368 12.1835C8.49368 13.7132 7.2536 14.9533 5.72391 14.9533C4.19421 14.9533 2.95413 13.7132 2.95413 12.1835C2.95413 10.6537 4.19421 9.41361 5.72391 9.41361C7.2536 9.41361 8.49368 10.6537 8.49368 12.1835Z" fill="#218225"/>
<path d="M5.72391 14.9533C3.66733 14.9533 2 16.6206 2 18.6772V19.4141C2 19.7377 2.2623 20 2.58594 20H8.86203C9.18552 20 9.44797 19.7377 9.44797 19.4141V18.6772C9.44797 16.6206 7.78064 14.9533 5.72391 14.9533Z" fill="#218225"/>
</svg>
