<svg width="24" height="20" viewBox="0 0 24 20" fill="none" xmlns="http://www.w3.org/2000/svg">
<path d="M11.5006 16.5488C15.0957 16.5488 18.0203 13.6108 18.0203 9.99947C18.0203 6.38815 15.0956 3.45017 11.5006 3.45017C7.90495 3.45017 4.97964 6.3882 4.97964 9.99947C4.97964 13.6107 7.905 16.5488 11.5006 16.5488ZM10.8048 6.32408V5.98536C10.8048 5.79998 10.8781 5.6222 11.0086 5.49112C11.1391 5.36004 11.3161 5.2864 11.5006 5.2864C11.6852 5.2864 11.8622 5.36004 11.9927 5.49112C12.1231 5.6222 12.1965 5.79998 12.1965 5.98536V6.32553C12.8467 6.50646 13.4003 6.93442 13.6965 7.51568C13.7805 7.6807 13.7959 7.87252 13.7392 8.04893C13.6825 8.22533 13.5583 8.37187 13.394 8.45632C13.2297 8.54077 13.0388 8.55619 12.8632 8.49921C12.6876 8.44223 12.5417 8.31751 12.4576 8.15248C12.2953 7.83398 11.9191 7.62821 11.4991 7.62821C10.9393 7.62821 10.4664 8.01115 10.4664 8.4644C10.4664 8.9829 10.6314 9.10233 11.6436 9.31621C12.1322 9.41947 12.6374 9.52623 13.0719 9.81392C13.6378 10.1888 13.925 10.7677 13.925 11.5346C13.925 12.5433 13.1952 13.3976 12.1965 13.6742V14.0136C12.1965 14.199 12.1231 14.3768 11.9927 14.5079C11.8622 14.639 11.6852 14.7126 11.5006 14.7126C11.3161 14.7126 11.1391 14.639 11.0086 14.5079C10.8781 14.3768 10.8048 14.199 10.8048 14.0136V13.6742C10.1541 13.4936 9.5998 13.0653 9.30334 12.4833C9.21974 12.3183 9.2047 12.1268 9.26154 11.9507C9.31837 11.7746 9.44243 11.6283 9.60649 11.544C9.77055 11.4597 9.96121 11.4442 10.1366 11.5009C10.3121 11.5576 10.4579 11.6819 10.5422 11.8466C10.7046 12.1651 11.08 12.3708 11.4991 12.3708C12.0694 12.3708 12.5335 11.9957 12.5335 11.5346C12.5335 11.0171 12.3686 10.8979 11.3572 10.6842C10.8684 10.5809 10.363 10.4741 9.9285 10.1861C9.36225 9.81108 9.07497 9.23178 9.07497 8.4644C9.07488 7.45477 9.80552 6.59989 10.8049 6.32408H10.8048ZM20.451 14.3769C19.4704 16.4006 17.8388 18.0329 15.8202 19.0095C13.8016 19.9862 11.514 20.2502 9.32745 19.7587C7.14095 19.2673 5.18345 18.0491 3.77166 16.3014C2.35986 14.5537 1.57635 12.3786 1.54787 10.128L1.18378 10.4937C1.05293 10.623 0.876513 10.6952 0.692957 10.6944C0.509401 10.6937 0.333577 10.6201 0.203786 10.4897C0.0739936 10.3593 0.000748804 10.1827 5.70953e-06 9.9983C-0.000737385 9.81391 0.0710814 9.6367 0.199818 9.50526L1.75008 7.94787C1.88056 7.81679 2.05754 7.74315 2.24208 7.74315C2.42662 7.74315 2.6036 7.81679 2.73409 7.94787L4.28444 9.50526C4.41398 9.63653 4.48648 9.81402 4.48608 9.99886C4.48568 10.1837 4.4124 10.3609 4.28229 10.4916C4.15217 10.6223 3.97581 10.6959 3.7918 10.6963C3.60779 10.6967 3.43111 10.6239 3.30043 10.4937L2.93958 10.1312C3.01 14.8136 6.82218 18.601 11.4993 18.601C14.8011 18.601 17.7519 16.7477 19.2001 13.7642C19.2399 13.6813 19.2956 13.607 19.364 13.5458C19.4325 13.4846 19.5122 13.4375 19.5988 13.4073C19.6854 13.3771 19.7771 13.3644 19.8685 13.3699C19.96 13.3754 20.0495 13.399 20.1319 13.4394C20.2143 13.4797 20.2879 13.536 20.3485 13.605C20.4092 13.6741 20.4557 13.7544 20.4853 13.8415C20.515 13.9286 20.5272 14.0208 20.5213 14.1126C20.5154 14.2045 20.4915 14.2943 20.451 14.3769ZM22.8002 10.4937L21.2499 12.0511C21.1194 12.1822 20.9424 12.2558 20.7579 12.2558C20.5733 12.2558 20.3964 12.1822 20.2659 12.0511L18.7155 10.4937C18.6504 10.4289 18.5987 10.3519 18.5634 10.2669C18.5281 10.182 18.5098 10.0909 18.5096 9.99886C18.5094 9.90681 18.5273 9.81563 18.5622 9.73056C18.5972 9.64548 18.6486 9.56817 18.7134 9.50309C18.7782 9.438 18.8551 9.38641 18.9398 9.35128C19.0245 9.31615 19.1153 9.29817 19.2069 9.29837C19.2985 9.29857 19.3892 9.31695 19.4738 9.35245C19.5583 9.38796 19.635 9.43989 19.6995 9.50526L20.0604 9.86774C19.99 5.18612 16.177 1.39922 11.4993 1.39922C8.19793 1.39922 5.24766 3.25208 3.79983 6.23475C3.71844 6.40051 3.575 6.52713 3.40091 6.58692C3.22682 6.64671 3.03624 6.63481 2.87086 6.5538C2.70548 6.4728 2.57878 6.3293 2.51846 6.15469C2.45814 5.98008 2.46912 5.78858 2.549 5.62209C3.52976 3.5986 5.16137 1.96664 7.17994 0.990182C9.1985 0.0137243 11.486 -0.250126 13.6723 0.241308C15.8587 0.732743 17.816 1.95072 19.2279 3.69824C20.6397 5.44575 21.4233 7.6206 21.4521 9.871L21.8162 9.50526C21.9471 9.37594 22.1235 9.30381 22.307 9.30456C22.4906 9.30532 22.6664 9.3789 22.7962 9.50929C22.926 9.63968 22.9993 9.8163 23 10.0007C23.0007 10.1851 22.9289 10.3623 22.8002 10.4937Z" fill="#218225"/>
<path d="M17.368 10.0467C17.368 13.3022 14.7408 15.9413 11.5 15.9413C8.25923 15.9413 5.63205 13.3022 5.63205 10.0467C5.63205 6.79121 8.25923 4.15211 11.5 4.15211C14.7408 4.15211 17.368 6.79121 17.368 10.0467Z" fill="#218225"/>
<path d="M14.66 11.4779H7.67969V10.7365H14.66V11.4779ZM14.66 9.76291H7.67969V9.03045H14.66V9.76291ZM9.66262 9.28055V13.3537H8.4444V7.01172H9.42253L12.6859 11.1921V7.02065H13.9041V13.3537H12.8815L9.66262 9.28055Z" fill="white"/>
</svg>
