<svg width="90" height="90" viewBox="0 0 90 90" fill="none" xmlns="http://www.w3.org/2000/svg">
<path d="M44.7709 89.3386C69.441 89.3386 89.4401 69.3394 89.4401 44.6693C89.4401 19.9991 69.441 0 44.7709 0C20.1007 0 0.101562 19.9991 0.101562 44.6693C0.101562 69.3394 20.1007 89.3386 44.7709 89.3386Z" fill="#3CDB7F"/>
<path d="M36.4605 64.4069H36.2403C35.7944 64.3736 35.3608 64.2451 34.9687 64.03C34.5766 63.815 34.2352 63.5184 33.9674 63.1603L21.5015 46.5392C21.0056 45.8779 20.7927 45.0468 20.9096 44.2285C21.0265 43.4103 21.4636 42.672 22.1248 42.1761C22.7861 41.6802 23.6172 41.4673 24.4354 41.5841C25.2537 41.701 25.9919 42.1382 26.4879 42.7994L36.8013 56.5451L63.3452 30.0011C63.936 29.4506 64.7174 29.1509 65.5248 29.1652C66.3321 29.1794 67.1025 29.5065 67.6735 30.0775C68.2444 30.6485 68.5715 31.4188 68.5858 32.2262C68.6 33.0336 68.3003 33.815 67.7498 34.4057L38.6628 63.4927C38.3743 63.7829 38.0311 64.0131 37.6531 64.17C37.2751 64.3269 36.8698 64.4074 36.4605 64.4069Z" fill="#F4F4F4"/>
</svg>
