<svg width="24" height="24" viewBox="0 0 24 24" fill="none" xmlns="http://www.w3.org/2000/svg">
<g clip-path="url(#clip0_433_2929)">
<path d="M21.2308 0H2.76923C2.03479 0 1.33042 0.291758 0.811089 0.811089C0.291757 1.33042 0 2.03479 0 2.76923V20.3077C0 21.0421 0.291757 21.7465 0.811089 22.2658C1.33042 22.7852 2.03479 23.0769 2.76923 23.0769H21.2308C21.9652 23.0769 22.6696 22.7852 23.1889 22.2658C23.7082 21.7465 24 21.0421 24 20.3077V2.76923C24 2.03479 23.7082 1.33042 23.1889 0.811089C22.6696 0.291758 21.9652 0 21.2308 0ZM4.68462 9.58615C4.61508 9.41718 4.59726 9.23136 4.63341 9.05225C4.66956 8.87313 4.75806 8.70878 4.88769 8.58L7.65692 5.81077C7.83351 5.65955 8.06066 5.58052 8.29297 5.5895C8.52529 5.59847 8.74566 5.69478 8.91006 5.85917C9.07445 6.02357 9.17076 6.24394 9.17973 6.47626C9.18871 6.70858 9.10969 6.93572 8.95846 7.11231L7.76769 8.30769H18C18.2448 8.30769 18.4796 8.40495 18.6527 8.57806C18.8258 8.75117 18.9231 8.98595 18.9231 9.23077C18.9231 9.47559 18.8258 9.71037 18.6527 9.88348C18.4796 10.0566 18.2448 10.1538 18 10.1538H5.53846C5.35596 10.1542 5.17744 10.1005 5.02547 9.99946C4.87349 9.89841 4.75488 9.75459 4.68462 9.58615ZM19.5738 14.9585L16.8046 17.7277C16.7219 17.8243 16.62 17.9028 16.5055 17.9582C16.391 18.0136 16.2663 18.0448 16.1391 18.0497C16.012 18.0546 15.8852 18.0332 15.7668 17.9867C15.6483 17.9403 15.5407 17.8699 15.4508 17.78C15.3608 17.69 15.2904 17.5824 15.244 17.464C15.1976 17.3455 15.1762 17.2188 15.1811 17.0916C15.186 16.9645 15.2172 16.8398 15.2726 16.7253C15.328 16.6107 15.4064 16.5089 15.5031 16.4262L16.6938 15.2308H6.46154C6.21672 15.2308 5.98194 15.1335 5.80882 14.9604C5.63571 14.7873 5.53846 14.5525 5.53846 14.3077C5.53846 14.0629 5.63571 13.8281 5.80882 13.655C5.98194 13.4819 6.21672 13.3846 6.46154 13.3846H18.9231C19.1056 13.3842 19.2841 13.438 19.4361 13.539C19.588 13.64 19.7067 13.7839 19.7769 13.9523C19.8465 14.1213 19.8643 14.3071 19.8281 14.4862C19.792 14.6653 19.7035 14.8297 19.5738 14.9585Z" fill="#218225"/>
</g>
<defs>
<clipPath id="clip0_433_2929">
<rect width="24" height="24" fill="white"/>
</clipPath>
</defs>
</svg>
