<svg width="24" height="20" viewBox="0 0 24 20" fill="none" xmlns="http://www.w3.org/2000/svg">
<path d="M20.4 0H4.4C3.76348 0 3.15303 0.252856 2.70294 0.702944C2.25286 1.15303 2 1.76348 2 2.4V17.6C2 18.2365 2.25286 18.847 2.70294 19.2971C3.15303 19.7471 3.76348 20 4.4 20H20.4C21.0365 20 21.647 19.7471 22.0971 19.2971C22.5471 18.847 22.8 18.2365 22.8 17.6V2.4C22.8 1.76348 22.5471 1.15303 22.0971 0.702944C21.647 0.252856 21.0365 0 20.4 0ZM6.06 8.308C5.99973 8.16155 5.98429 8.00051 6.01562 7.84528C6.04695 7.69005 6.12365 7.54761 6.236 7.436L8.636 5.036C8.78904 4.90494 8.9859 4.83645 9.18724 4.84423C9.38858 4.85201 9.57957 4.93547 9.72205 5.07795C9.86453 5.22043 9.94799 5.41142 9.95577 5.61276C9.96355 5.8141 9.89506 6.01096 9.764 6.164L8.732 7.2H17.6C17.8122 7.2 18.0157 7.28429 18.1657 7.43431C18.3157 7.58434 18.4 7.78783 18.4 8C18.4 8.21217 18.3157 8.41566 18.1657 8.56569C18.0157 8.71571 17.8122 8.8 17.6 8.8H6.8C6.64183 8.80033 6.48712 8.75377 6.35541 8.6662C6.22369 8.57862 6.12089 8.45398 6.06 8.308ZM18.964 12.964L16.564 15.364C16.4923 15.4477 16.404 15.5158 16.3048 15.5638C16.2055 15.6118 16.0974 15.6388 15.9872 15.643C15.8771 15.6473 15.7672 15.6287 15.6645 15.5885C15.5619 15.5483 15.4686 15.4873 15.3907 15.4093C15.3127 15.3314 15.2517 15.2381 15.2115 15.1355C15.1713 15.0328 15.1527 14.9229 15.157 14.8128C15.1612 14.7026 15.1882 14.5945 15.2362 14.4952C15.2842 14.396 15.3523 14.3077 15.436 14.236L16.468 13.2H7.6C7.38783 13.2 7.18434 13.1157 7.03431 12.9657C6.88429 12.8157 6.8 12.6122 6.8 12.4C6.8 12.1878 6.88429 11.9843 7.03431 11.8343C7.18434 11.6843 7.38783 11.6 7.6 11.6H18.4C18.5582 11.5997 18.7129 11.6462 18.8446 11.7338C18.9763 11.8214 19.0791 11.946 19.14 12.092C19.2003 12.2384 19.2157 12.3995 19.1844 12.5547C19.153 12.71 19.0763 12.8524 18.964 12.964Z" fill="#218225"/>
</svg>
