<svg width="42" height="42" viewBox="0 0 42 42" fill="none" xmlns="http://www.w3.org/2000/svg">
<circle cx="21.1691" cy="20.8923" r="20.6769" fill="white" fill-opacity="0.37"/>
<path d="M16.1436 13.1387H28.2051C30.4164 13.1387 32.2256 14.9479 32.2256 17.1592C32.2256 18.8679 31.2205 20.2751 29.7128 20.8782V17.1592C29.7128 16.7571 29.5118 16.3551 29.3107 16.0535C29.1097 15.752 28.6071 15.6515 28.2051 15.6515H16.1436C15.7415 15.6515 15.3395 15.8525 15.0379 16.0535C14.7364 16.2546 14.6359 16.7571 14.6359 17.1592V20.8782C13.1282 20.2751 12.123 18.8679 12.123 17.1592C12.123 14.9479 13.9323 13.1387 16.1436 13.1387Z" fill="#272727"/>
<path fill-rule="evenodd" clip-rule="evenodd" d="M28.2051 17.1592V29.2207C28.2051 30.3264 27.3005 31.231 26.1949 31.231H18.1538C17.0482 31.231 16.1436 30.3264 16.1436 29.2207V17.1592H28.2051ZM20.6667 24.6976L21.3703 25.4012V21.1797C21.3703 20.7776 21.6718 20.3756 22.1744 20.3756C22.6769 20.3756 22.9785 20.6771 22.9785 21.1797V25.4012L23.682 24.6976C23.9836 24.3961 24.4862 24.3961 24.7877 24.6976C25.0892 24.9992 25.0892 25.5017 24.7877 25.8033L23.481 27.11C22.7774 27.8135 21.6718 27.8135 20.9682 27.11L19.6615 25.8033C19.36 25.5017 19.36 24.9992 19.6615 24.6976C19.9631 24.3961 20.3651 24.3961 20.6667 24.6976Z" fill="#272727"/>
</svg>
