<svg width="29" height="26" viewBox="0 0 29 26" fill="none" xmlns="http://www.w3.org/2000/svg">
<path fill-rule="evenodd" clip-rule="evenodd" d="M23.1111 0H5.77778C2.5868 0 0 2.5868 0 5.77778C0 8.20255 1.49367 10.2785 3.61111 11.1355V5.77778C3.61111 5.20315 3.83939 4.65204 4.24571 4.24571C4.65204 3.83939 5.20315 3.61111 5.77778 3.61111H23.1111C23.6857 3.61111 24.2369 3.83939 24.6432 4.24571C25.0496 4.65204 25.2778 5.20315 25.2778 5.77778V11.1355C27.3952 10.2785 28.8889 8.20255 28.8889 5.77778C28.8889 2.5868 26.302 0 23.1111 0ZM23.1111 23.1111V5.77778H5.77778V23.1111C5.77778 24.7066 7.07118 26 8.66667 26H20.2222C21.8178 26 23.1111 24.7066 23.1111 23.1111ZM13.3611 17.6071L12.3215 16.5675C11.8985 16.1444 11.2126 16.1444 10.7895 16.5675C10.3665 16.9906 10.3665 17.6765 10.7895 18.0996L12.6571 19.9671C13.6442 20.9543 15.2447 20.9543 16.2318 19.9671L18.0993 18.0996C18.5224 17.6765 18.5224 16.9906 18.0993 16.5675C17.6762 16.1444 16.9904 16.1444 16.5673 16.5675L15.5278 17.6071V11.5558C15.5278 10.9574 15.0427 10.4725 14.4444 10.4725C13.8462 10.4725 13.3611 10.9574 13.3611 11.5558V17.6071Z" fill="rgba(91,91,91,1)"/>
</svg>
